<?xml version="1.0" encoding="utf-8"?>
<!-- Generator: Adobe Illustrator 16.0.0, SVG Export Plug-In . SVG Version: 6.00 Build 0)  -->
<!DOCTYPE svg PUBLIC "-//W3C//DTD SVG 1.1//EN" "http://www.w3.org/Graphics/SVG/1.1/DTD/svg11.dtd">
<svg version="1.1" id="Layer_1" xmlns="http://www.w3.org/2000/svg" xmlns:xlink="http://www.w3.org/1999/xlink" x="0px" y="0px"
	 width="1025px" height="725px" viewBox="0 0 1025 725" enable-background="new 0 0 1025 725" xml:space="preserve">
<g>
	<path fill="#D4E6FC" d="M889.594,75.292c0,0-25.475,0.065-17.066-30.859C905.447,53.103,889.594,75.292,889.594,75.292z"/>
	<path fill="#D4E6FC" d="M898.514,86.866c0,0-9.484-14.356,11.09-21.078C916.92,87.587,898.514,86.866,898.514,86.866z"/>
	<path fill="#D4E6FC" d="M909.155,103.99c0,0-7.932-15.27,13.231-19.803C927.384,106.627,909.155,103.99,909.155,103.99z"/>
	<path fill="#D4E6FC" d="M914.075,120.862c0,0-2.497-17.024,18.985-14.382C930.438,129.322,914.075,120.862,914.075,120.862z"/>
	<path fill="#D4E6FC" d="M893.825,87.874c0,0-9.92,14.06-23.669-2.66C887.797,70.468,893.825,87.874,893.825,87.874z"/>
	<path fill="#D4E6FC" d="M902.106,107.403c0,0-9.92,14.058-23.668-2.66C896.078,89.998,902.106,107.403,902.106,107.403z"/>
	<path fill="#D4E6FC" d="M923.988,161.499c0,0-5.87-16.173,15.704-17.905C941.716,166.499,923.988,161.499,923.988,161.499z"/>
	<path fill="#D4E6FC" d="M915.565,161.129c0,0-9.921,14.06-23.669-2.657C909.537,143.724,915.565,161.129,915.565,161.129z"/>
	<path fill="#D4E6FC" d="M927.202,180.264c0,0-5.868-16.176,15.706-17.904C944.933,185.262,927.202,180.264,927.202,180.264z"/>
	<path fill="#D4E6FC" d="M918.779,179.895c0,0-9.922,14.057-23.669-2.66C912.753,162.49,918.779,179.895,918.779,179.895z"/>
	<path fill="#D4E6FC" d="M907.715,122.256c0,0-5.656,16.248-23.483,3.975C897.119,107.188,907.715,122.256,907.715,122.256z"/>
	<path fill="#D4E6FC" d="M918.489,139.226c0,0-2.497-17.024,18.982-14.382C934.85,147.686,918.489,139.226,918.489,139.226z"/>
	<path fill="#D4E6FC" d="M912.127,140.62c0,0-5.654,16.25-23.481,3.975C901.53,125.552,912.127,140.62,912.127,140.62z"/>
	<path fill="#D4E6FC" d="M928.028,218.822c0,0-2.978-16.948,18.573-14.912C944.62,226.816,928.028,218.822,928.028,218.822z"/>
	<path fill="#D4E6FC" d="M919.797,216.996c0,0-12.206,12.126-22.85-6.721C916.878,198.811,919.797,216.996,919.797,216.996z"/>
	<path fill="#D4E6FC" d="M927.943,237.859c0,0-2.978-16.946,18.57-14.911C944.535,245.854,927.943,237.859,927.943,237.859z"/>
	<path fill="#D4E6FC" d="M919.709,236.033c0,0-12.205,12.126-22.847-6.722C916.793,217.849,919.709,236.033,919.709,236.033z"/>
	<path fill="#D4E6FC" d="M926.474,195.931c0,0,0.491-17.199,21.19-10.874C941.119,207.099,926.474,195.931,926.474,195.931z"/>
	<path fill="#D4E6FC" d="M919.967,196.2c0,0-8.387,15.026-23.815-0.154C912.142,179.526,919.967,196.2,919.967,196.2z"/>
	
		<path fill="none" stroke="#0C5AE5" stroke-width="0.6182" stroke-linecap="round" stroke-linejoin="round" stroke-miterlimit="10" d="
		M890.035,76.449c0,0,95.244,140.746-37.359,348.436"/>
</g>
<g>
	
		<path fill="#FFFFFF" stroke="#0C5AE5" stroke-width="0.607" stroke-linecap="round" stroke-linejoin="round" stroke-miterlimit="10" d="
		M273.36,105.4l-29.991-41.213l6.438-14.479l-46.571-20.691l-6.437,14.477l-50.681,5.372l-9.326-12.81L95.591,66.027l9.314,12.827
		L84.21,125.425l-15.749,1.664l5.357,50.686l15.764-1.669l29.989,41.197l-6.438,14.481l46.571,20.689l6.437-14.477l50.68-5.369
		l9.332,12.825l41.197-29.989l-9.327-12.81l20.694-46.571l15.762-1.681l-5.37-50.666L273.36,105.4z M218.723,157.305
		c-9.143,20.576-33.24,29.843-53.819,20.701c-20.577-9.142-29.844-33.239-20.702-53.816c9.142-20.579,33.239-29.846,53.819-20.704
		C218.598,112.628,227.865,136.726,218.723,157.305z"/>
</g>
<g>
	<g>
		<g>
			<path fill="#D4E6FC" d="M186.561,337.744l-13.9-21.518l3.633-7.091l-22.795-11.68l-3.633,7.084l-25.587,1.283l-4.324-6.688
				l-21.512,13.894l4.316,6.697l-11.685,22.795l-7.949,0.395l1.275,25.589l7.957-0.398l13.903,21.512l-3.635,7.086l22.795,11.688
				l3.635-7.091l25.584-1.282l4.324,6.696l21.512-13.897l-4.324-6.691l11.684-22.795l7.957-0.404l-1.28-25.575L186.561,337.744z
				 M157.693,362.27c-5.162,10.07-17.515,14.047-27.585,8.888c-10.073-5.16-14.052-17.516-8.89-27.585
				c5.162-10.075,17.516-14.053,27.585-8.888C158.876,339.844,162.855,352.195,157.693,362.27z"/>
		</g>
	</g>
</g>
<g>
	<path fill="#D4E6FC" d="M993.534,360.588c-23.484,9.018-57.914,8.189-61.376,44.028c-2.389,24.722,14.286,47.481-12.438,63.974
		c-10.595,6.542-22.394,8.443-28.731,20.266c-5.509,10.274-4.142,22.959-2.884,34.072c1.083,9.552,5.604,21.363,4.373,31.004
		c-2.013,15.748-14.954,18.453-26.425,26.553c-10.916,7.704-20.229,18.434-22.142,32.241c-2.529,18.273,10.85,31.014,13.1,47.646
		c0,0,20.855,63.251,80.663,24.916c14.135-9.057,29.475-15.439,37.688-31.957c6.21-12.485,4.571-26.598-0.1-39.112
		c-4.906-13.154-14.067-22.69-6.85-36.827c4.425-8.663,14.816-15.864,21.099-23.14c7.306-8.468,15.589-18.175,16.835-29.762
		c1.432-13.339-7.236-21.563-12.299-32.939c-12.766-28.693,13.841-38.085,25.81-59.847c17.351-31.549-11.548-50.281-25.854-70.971
		L993.534,360.588z"/>
	
		<line fill="none" stroke="#0C5AE5" stroke-width="0.6182" stroke-linecap="round" stroke-linejoin="round" stroke-miterlimit="10" x1="976.025" y1="418.1" x2="885.15" y2="712.299"/>
	
		<line fill="none" stroke="#0C5AE5" stroke-width="0.6182" stroke-linecap="round" stroke-linejoin="round" stroke-miterlimit="10" x1="920.857" y1="494.535" x2="938.275" y2="540.308"/>
	
		<line fill="none" stroke="#0C5AE5" stroke-width="0.6182" stroke-linecap="round" stroke-linejoin="round" stroke-miterlimit="10" x1="905.83" y1="645.356" x2="947.136" y2="630.147"/>
	
		<line fill="none" stroke="#0C5AE5" stroke-width="0.6182" stroke-linecap="round" stroke-linejoin="round" stroke-miterlimit="10" x1="949.668" y1="503.437" x2="979.748" y2="483.69"/>
</g>
<g>
	<g>
		<path fill="#FFFFFF" d="M197.688,708.342c-2.151-0.965-45.046-20.571-89.826-65.452c-26.847-26.908-49.109-57.503-66.167-90.934
			c-21.258-41.662-34.449-87.876-39.208-137.36c43.663,12.508,83.313,35.327,117.86,67.83
			c27.733,26.092,52.258,58.447,72.894,96.168c33.819,61.816,46.024,118.124,46.997,122.789L197.688,708.342z"/>
		<path fill="#0C5AE5" d="M2.832,415.012c43.439,12.518,82.898,35.267,117.292,67.621c27.708,26.065,52.213,58.39,72.834,96.075
			c33.187,60.651,45.557,116.012,46.918,122.426l-42.147,6.894c-2.966-1.341-45.398-20.991-89.671-65.371
			c-26.821-26.885-49.06-57.452-66.101-90.853C20.785,510.304,7.623,464.284,2.832,415.012 M2.143,414.182
			c20.722,217.875,195.504,294.475,195.504,294.475l42.953-7.025C240.6,701.631,194.508,468.959,2.143,414.182L2.143,414.182z"/>
	</g>
	
		<line fill="#FFFFFF" stroke="#0C5AE5" stroke-width="0.607" stroke-linecap="round" stroke-linejoin="round" stroke-miterlimit="10" x1="27.298" y1="520.768" x2="109.625" y2="556.287"/>
	
		<line fill="#FFFFFF" stroke="#0C5AE5" stroke-width="0.607" stroke-linecap="round" stroke-linejoin="round" stroke-miterlimit="10" x1="138.534" y1="594.501" x2="140.385" y2="502.563"/>
	
		<line fill="#FFFFFF" stroke="#0C5AE5" stroke-width="0.607" stroke-linecap="round" stroke-linejoin="round" stroke-miterlimit="10" x1="163.013" y1="530.423" x2="160.333" y2="623.325"/>
	
		<line fill="#FFFFFF" stroke="#0C5AE5" stroke-width="0.607" stroke-linecap="round" stroke-linejoin="round" stroke-miterlimit="10" x1="2.143" y1="414.182" x2="222.91" y2="706.052"/>
</g>
<line fill="none" stroke="#0C5AE5" stroke-width="0.6182" stroke-linecap="round" stroke-linejoin="round" stroke-miterlimit="10" x1="976.025" y1="715.138" x2="1006.604" y2="715.138"/>
<line fill="none" stroke="#0C5AE5" stroke-width="0.6182" stroke-linecap="round" stroke-linejoin="round" stroke-miterlimit="10" x1="59.18" y1="715.138" x2="136.807" y2="715.138"/>
<g>
	
		<rect x="209.873" y="618.639" fill="#D4E6FC" stroke="#0C5AE5" stroke-width="0.607" stroke-linecap="round" stroke-linejoin="round" stroke-miterlimit="10" width="163.55" height="44.832"/>
	
		<path fill="#D4E6FC" stroke="#0C5AE5" stroke-width="0.607" stroke-linecap="round" stroke-linejoin="round" stroke-miterlimit="10" d="
		M333.883,715.138H177.564c-18.443,0-33.394-14.949-33.394-33.389l0,0c0-18.443,14.951-33.395,33.394-33.395l156.319,15.774V715.138
		z"/>
	
		<polygon fill="#0C5AE5" stroke="#FFFFFF" stroke-width="0.607" stroke-linecap="round" stroke-linejoin="round" stroke-miterlimit="10" points="
		210.13,723.138 240.088,701.95 240.088,677.348 210.13,677.348 	"/>
	
		<path fill="#D4E6FC" stroke="#0C5AE5" stroke-width="0.607" stroke-linecap="round" stroke-linejoin="round" stroke-miterlimit="10" d="
		M239.028,715.138h156.319c18.441,0,33.392-14.949,33.392-33.389l0,0c0-18.443-14.95-33.395-33.392-33.395l-156.319,15.774V715.138z
		"/>
	
		<path fill="#0C5AE5" stroke="#0C5AE5" stroke-width="0.607" stroke-linecap="round" stroke-linejoin="round" stroke-miterlimit="10" d="
		M262.189,348.857c0,0-13.81-23.269,0-31.948c13.813-8.678,54.198-17.749,54.198-17.749l-4.741,41.567L262.189,348.857z"/>
	
		<rect x="193.176" y="542.275" fill="#0C5AE5" stroke="#0C5AE5" stroke-width="0.607" stroke-linecap="round" stroke-linejoin="round" stroke-miterlimit="10" width="186.557" height="92.293"/>
	
		<path fill="#0C5AE5" stroke="#0C5AE5" stroke-width="0.607" stroke-linecap="round" stroke-linejoin="round" stroke-miterlimit="10" d="
		M402.61,515.712c0-62.152-49.18-113.9-111.315-115.382c-1.272-0.03-2.555-0.045-3.855-0.045
		c-93.475,0-122.967,67.945-127.396,79.673c-9.86,26.103-24.06,100.177,56.007,103.336c80.067,3.153,90.322,2.759,90.322,2.759
		l96.238-9.467V515.712z"/>
	
		<path fill="#FFFFFF" stroke="#0C5AE5" stroke-width="0.6071" stroke-linecap="round" stroke-linejoin="round" stroke-miterlimit="10" d="
		M282.891,417.112L282.891,417.112c9.412,0,17.039-7.63,17.039-17.037V344.7h-34.078v55.375
		C265.852,409.482,273.482,417.112,282.891,417.112z"/>
	
		<path fill="#FFFFFF" stroke="#0C5AE5" stroke-width="0.6071" stroke-linecap="round" stroke-linejoin="round" stroke-miterlimit="10" d="
		M253.02,355.239c0.875,5.15,5.769,8.623,10.921,7.744c0.796-0.135,1.561-0.369,2.262-0.693c1.216,3.279,3.074,6.193,5.405,8.623
		c5.594,5.839,13.895,8.888,22.468,7.431c13.75-2.335,22.993-15.37,20.655-29.117c-2.338-13.748-15.367-22.99-29.118-20.655
		c-9.319,1.587-16.575,8.079-19.526,16.393c-1.62-0.708-3.454-0.963-5.32-0.644C255.615,345.194,252.145,350.089,253.02,355.239z"/>
	
		<path fill="none" stroke="#0C5AE5" stroke-width="0.7888" stroke-linecap="round" stroke-linejoin="round" stroke-miterlimit="10" d="
		M267.816,356.427c0,0-1.098-4.661-5.626-3.233"/>
	<g>
		
			<path fill="#FFFFFF" stroke="#0C5AE5" stroke-width="0.607" stroke-linecap="round" stroke-linejoin="round" stroke-miterlimit="10" d="
			M589.509,692.818H395.038c-22.054,0-39.932-17.88-39.932-39.932V463.435c0-22.052,17.877-39.926,39.932-39.926h194.471
			c22.054,0,39.931,17.874,39.931,39.926v189.451C629.439,674.938,611.563,692.818,589.509,692.818z"/>
	</g>
	
		<polygon fill="#FFFFFF" stroke="#0C5AE5" stroke-width="0.6071" stroke-linecap="round" stroke-linejoin="round" stroke-miterlimit="10" points="
		320.21,541.951 355.408,535.812 355.665,544.301 370.176,544.964 369.598,580.345 316.388,580.844 	"/>
	
		<line fill="none" stroke="#0C5AE5" stroke-width="0.7888" stroke-linecap="round" stroke-linejoin="round" stroke-miterlimit="10" x1="369.999" y1="554.834" x2="353.367" y2="554.167"/>
	
		<line fill="none" stroke="#0C5AE5" stroke-width="0.7888" stroke-linecap="round" stroke-linejoin="round" stroke-miterlimit="10" x1="369.248" y1="563.752" x2="352.614" y2="563.08"/>
	
		<line fill="none" stroke="#0C5AE5" stroke-width="0.7888" stroke-linecap="round" stroke-linejoin="round" stroke-miterlimit="10" x1="369.161" y1="572.635" x2="352.529" y2="571.966"/>
	
		<path fill="#0C5AE5" stroke="#0C5AE5" stroke-width="0.607" stroke-linecap="round" stroke-linejoin="round" stroke-miterlimit="10" d="
		M311.854,581.517c-14.419,0.973-42.883,2.535-75.477,2.455"/>
	
		<path fill="#0C5AE5" stroke="#0C5AE5" stroke-width="0.607" stroke-linecap="round" stroke-linejoin="round" stroke-miterlimit="10" d="
		M212.498,503.885c0,0-3.074,28.155,10.841,28.654c13.915,0.493,97.343,2.56,97.343,2.56"/>
	
		<line fill="#FFFFFF" stroke="#0C5AE5" stroke-width="0.6071" stroke-linecap="round" stroke-linejoin="round" stroke-miterlimit="10" x1="433.132" y1="482.677" x2="578.63" y2="482.677"/>
	
		<line fill="#FFFFFF" stroke="#0C5AE5" stroke-width="0.6071" stroke-linecap="round" stroke-linejoin="round" stroke-miterlimit="10" x1="433.132" y1="521.087" x2="578.63" y2="521.087"/>
	
		<line fill="#FFFFFF" stroke="#0C5AE5" stroke-width="0.6071" stroke-linecap="round" stroke-linejoin="round" stroke-miterlimit="10" x1="433.132" y1="559.5" x2="578.63" y2="559.5"/>
	
		<line fill="#FFFFFF" stroke="#0C5AE5" stroke-width="0.6071" stroke-linecap="round" stroke-linejoin="round" stroke-miterlimit="10" x1="433.132" y1="597.911" x2="578.63" y2="597.911"/>
	
		<line fill="#FFFFFF" stroke="#0C5AE5" stroke-width="0.6071" stroke-linecap="round" stroke-linejoin="round" stroke-miterlimit="10" x1="433.132" y1="636.324" x2="578.63" y2="636.324"/>
	
		<circle fill="#0C5AE5" stroke="#0C5AE5" stroke-width="0.607" stroke-linecap="round" stroke-linejoin="round" stroke-miterlimit="10" cx="412.613" cy="482.677" r="4.668"/>
	
		<path fill="#0C5AE5" stroke="#0C5AE5" stroke-width="0.607" stroke-linecap="round" stroke-linejoin="round" stroke-miterlimit="10" d="
		M417.281,521.062c0,2.575-2.088,4.665-4.668,4.665c-2.577,0-4.668-2.09-4.668-4.665c0-2.58,2.091-4.671,4.668-4.671
		C415.192,516.391,417.281,518.482,417.281,521.062z"/>
	
		<path fill="#0C5AE5" stroke="#0C5AE5" stroke-width="0.607" stroke-linecap="round" stroke-linejoin="round" stroke-miterlimit="10" d="
		M417.281,559.441c0,2.579-2.088,4.671-4.668,4.671c-2.577,0-4.668-2.092-4.668-4.671c0-2.575,2.091-4.666,4.668-4.666
		C415.192,554.775,417.281,556.866,417.281,559.441z"/>
	
		<path fill="#0C5AE5" stroke="#0C5AE5" stroke-width="0.607" stroke-linecap="round" stroke-linejoin="round" stroke-miterlimit="10" d="
		M417.281,597.826c0,2.579-2.088,4.671-4.668,4.671c-2.577,0-4.668-2.092-4.668-4.671c0-2.575,2.091-4.666,4.668-4.666
		C415.192,593.16,417.281,595.25,417.281,597.826z"/>
	
		<path fill="#0C5AE5" stroke="#0C5AE5" stroke-width="0.607" stroke-linecap="round" stroke-linejoin="round" stroke-miterlimit="10" d="
		M417.281,636.21c0,2.579-2.088,4.67-4.668,4.67c-2.577,0-4.668-2.091-4.668-4.67c0-2.576,2.091-4.666,4.668-4.666
		C415.192,631.544,417.281,633.634,417.281,636.21z"/>
</g>
<path fill="#D4E6FC" d="M429.063,264.028H371.94c-6.974,0-12.627,5.654-12.627,12.627v57.121c0,6.971,5.654,12.625,12.627,12.625
	h7.473v17.396l21.263-17.396h28.386c6.974,0,12.625-5.654,12.625-12.625v-57.121C441.688,269.682,436.036,264.028,429.063,264.028z"
	/>
<g>
	
		<polygon fill="#0C5AE5" stroke="#0C5AE5" stroke-width="0.607" stroke-linecap="round" stroke-linejoin="round" stroke-miterlimit="10" points="
		965.684,719.984 935.724,698.792 935.724,674.189 965.684,674.189 	"/>
	
		<path fill="#D4E6FC" stroke="#0C5AE5" stroke-width="0.607" stroke-linecap="round" stroke-linejoin="round" stroke-miterlimit="10" d="
		M868.612,650.586v64.552H735.75c-26.75,0-48.432-21.682-48.432-48.429V556.322h78.991v94.265H868.612z"/>
	
		<path fill="#D4E6FC" stroke="#0C5AE5" stroke-width="0.607" stroke-linecap="round" stroke-linejoin="round" stroke-miterlimit="10" d="
		M754.429,556.322h78.991v94.265h102.304v64.552H802.86c-26.75,0-48.432-21.682-48.432-48.429v-66.544"/>
	
		<path fill="#FFFFFF" stroke="#0C5AE5" stroke-width="0.607" stroke-linecap="round" stroke-linejoin="round" stroke-miterlimit="10" d="
		M884.851,412.361c-4.432-11.727-33.92-79.672-127.397-79.672c-1.299,0-2.583,0.015-3.854,0.045
		c-62.135,1.482-111.314,53.23-111.314,115.382v60.875h22.874v63.645h186.56v-69.533
		C905.807,489.418,893.637,435.621,884.851,412.361z"/>
	
		<path fill="#0C5AE5" stroke="#0C5AE5" stroke-width="0.607" stroke-linecap="round" stroke-linejoin="round" stroke-miterlimit="10" d="
		M800.782,318.881l-73.203,9.94v-50.958c0-18.122,22.264-32.815,40.387-32.815l0,0c18.125,0,32.816,14.693,32.816,32.815V318.881z"
		/>
	
		<path fill="#FFFFFF" stroke="#0C5AE5" stroke-width="0.6071" stroke-linecap="round" stroke-linejoin="round" stroke-miterlimit="10" d="
		M754.712,350.119L754.712,350.119c-9.408,0-17.036-7.625-17.036-17.037v-55.376h34.075v55.376
		C771.751,342.494,764.124,350.119,754.712,350.119z"/>
	
		<path fill="#FFFFFF" stroke="#0C5AE5" stroke-width="0.6071" stroke-linecap="round" stroke-linejoin="round" stroke-miterlimit="10" d="
		M783.725,280.478c0.418,5.209-3.471,9.776-8.68,10.195c-0.806,0.065-1.604,0.027-2.363-0.115c-0.374,3.473-1.459,6.754-3.118,9.684
		c-3.987,7.038-11.283,12.033-19.954,12.731c-13.899,1.112-26.063-9.242-27.178-23.146c-1.115-13.9,9.241-26.063,23.142-27.179
		c9.424-0.756,18.055,3.755,22.959,11.085c1.396-1.087,3.112-1.781,4.998-1.934C778.74,271.383,783.307,275.271,783.725,280.478z"/>
	
		<path fill="#0C5AE5" stroke="#0C5AE5" stroke-width="0.607" stroke-linecap="round" stroke-linejoin="round" stroke-miterlimit="10" d="
		M716.962,279.887l51.57-6.153l-8.405-26.063c-0.244-1.11-1.656-1.742-3.156-1.412l-17.994,3.952
		c-15.033,3.301-25.069,15.764-22.418,27.84L716.962,279.887z"/>
	
		<path fill="none" stroke="#0C5AE5" stroke-width="0.7888" stroke-linecap="round" stroke-linejoin="round" stroke-miterlimit="10" d="
		M769.676,285.271c0,0-0.083-4.79,4.658-4.523"/>
	<g>
		
			<path fill="#0C5AE5" stroke="#0C5AE5" stroke-width="0.607" stroke-linecap="round" stroke-linejoin="round" stroke-miterlimit="10" d="
			M577.061,544.759h112.693c12.779,0,23.139-10.359,23.139-23.139V415.235c0-12.779-10.359-23.139-23.139-23.139H577.061
			c-12.777,0-23.139,10.359-23.139,23.139v106.386C553.922,534.4,564.283,544.759,577.061,544.759z"/>
	</g>
	
		<polygon fill="#FFFFFF" stroke="#0C5AE5" stroke-width="0.6071" stroke-linecap="round" stroke-linejoin="round" stroke-miterlimit="10" points="
		747.103,484.2 712.915,487.658 712.915,495.087 698.679,497.977 704.2,529.725 756.854,522.05 	"/>
	
		<path fill="none" stroke="#0C5AE5" stroke-width="0.7888" stroke-linecap="round" stroke-linejoin="round" stroke-miterlimit="10" d="
		M766.887,522.564c12.696-1.009,27.686-1.926,73.489-10.204"/>
	
		<path fill="none" stroke="#0C5AE5" stroke-width="0.7888" stroke-linecap="round" stroke-linejoin="round" stroke-miterlimit="10" d="
		M835.283,428.005c0,0,7.363,27.347-6.31,29.976c-13.674,2.63-75.666,14.092-75.666,14.092"/>
	
		<line fill="none" stroke="#0C5AE5" stroke-width="0.7888" stroke-linecap="round" stroke-linejoin="round" stroke-miterlimit="10" x1="700.37" y1="506.157" x2="716.703" y2="502.938"/>
	
		<line fill="none" stroke="#0C5AE5" stroke-width="0.7888" stroke-linecap="round" stroke-linejoin="round" stroke-miterlimit="10" x1="702.386" y1="514.225" x2="718.719" y2="511.006"/>
	
		<line fill="none" stroke="#0C5AE5" stroke-width="0.7888" stroke-linecap="round" stroke-linejoin="round" stroke-miterlimit="10" x1="703.568" y1="521.276" x2="719.901" y2="518.058"/>
	
		<line fill="none" stroke="#0C5AE5" stroke-width="0.7888" stroke-linecap="round" stroke-linejoin="round" stroke-miterlimit="10" x1="689.496" y1="428.005" x2="689.496" y2="483.69"/>
	
		<path fill="none" stroke="#0C5AE5" stroke-width="0.7888" stroke-linecap="round" stroke-linejoin="round" stroke-miterlimit="10" d="
		M802.86,715.138c-26.75,0-48.432-21.682-48.432-48.429v-66.544"/>
	<g>
		
			<circle fill="none" stroke="#FFFFFF" stroke-width="0.7888" stroke-linecap="round" stroke-linejoin="round" stroke-miterlimit="10" cx="633.408" cy="451.359" r="24.299"/>
		
			<path fill="none" stroke="#FFFFFF" stroke-width="0.7888" stroke-linecap="round" stroke-linejoin="round" stroke-miterlimit="10" d="
			M666.327,508.591h-65.841c0-18.184,14.736-32.92,32.921-32.92C651.591,475.671,666.327,490.408,666.327,508.591z"/>
	</g>
</g>
<line fill="none" stroke="#0C5AE5" stroke-width="0.6182" stroke-linecap="round" stroke-linejoin="round" stroke-miterlimit="10" x1="514.709" y1="715.138" x2="685.789" y2="715.138"/>
<g>
	
		<path fill="#FFFFFF" stroke="#0C5AE5" stroke-width="0.607" stroke-linecap="round" stroke-linejoin="round" stroke-miterlimit="10" d="
		M710.522,34.59h-0.053c-15.736,0.002-28.489,12.361-28.489,27.603c0,4.749,1.208,9.227,3.389,13.129l3.346,5.208
		c2.623,4.082,4.352,8.641,5.076,13.399l1.318,8.685h15.36h15.369l1.707-9.626c0.734-4.146,2.236-8.131,4.43-11.762l3.577-5.916
		c2.171-3.89,3.411-8.341,3.416-13.074C738.993,47.048,726.199,34.613,710.522,34.59z"/>
	
		<polygon fill="none" stroke="#0C5AE5" stroke-width="0.6218" stroke-linecap="round" stroke-linejoin="round" stroke-miterlimit="10" points="
		720.542,62.992 700.397,62.992 705.598,106.439 715.343,106.439 	"/>
	
		<polygon fill="#0C5AE5" stroke="#0C5AE5" stroke-width="0.607" stroke-linecap="round" stroke-linejoin="round" stroke-miterlimit="10" points="
		710.47,102.614 695.109,102.614 695.109,116.452 710.47,116.452 725.994,116.452 725.994,102.614 	"/>
</g>
<g>
	
		<line fill="none" stroke="#0C5AE5" stroke-width="0.6218" stroke-linecap="round" stroke-linejoin="round" stroke-miterlimit="10" x1="710.552" y1="24.338" x2="710.552" y2="8.859"/>
	
		<line fill="none" stroke="#0C5AE5" stroke-width="0.6218" stroke-linecap="round" stroke-linejoin="round" stroke-miterlimit="10" x1="673.188" y1="61.7" x2="657.709" y2="61.7"/>
	
		<line fill="none" stroke="#0C5AE5" stroke-width="0.6218" stroke-linecap="round" stroke-linejoin="round" stroke-miterlimit="10" x1="763.393" y1="61.7" x2="747.914" y2="61.7"/>
	
		<line fill="none" stroke="#0C5AE5" stroke-width="0.6218" stroke-linecap="round" stroke-linejoin="round" stroke-miterlimit="10" x1="684.132" y1="88.12" x2="673.188" y2="99.061"/>
	
		<line fill="none" stroke="#0C5AE5" stroke-width="0.6218" stroke-linecap="round" stroke-linejoin="round" stroke-miterlimit="10" x1="747.914" y1="24.338" x2="736.973" y2="35.279"/>
	
		<line fill="none" stroke="#0C5AE5" stroke-width="0.6218" stroke-linecap="round" stroke-linejoin="round" stroke-miterlimit="10" x1="684.132" y1="35.279" x2="673.188" y2="24.338"/>
	
		<line fill="none" stroke="#0C5AE5" stroke-width="0.6218" stroke-linecap="round" stroke-linejoin="round" stroke-miterlimit="10" x1="747.914" y1="99.061" x2="736.973" y2="88.12"/>
</g>
<circle fill="none" stroke="#0C5AE5" stroke-width="0.6218" stroke-linecap="round" stroke-linejoin="round" stroke-miterlimit="10" stroke-dasharray="6.2178,3.1089" cx="544.989" cy="239.628" r="81.01"/>
<path fill="#FFFFFF" stroke="#0C5AE5" stroke-width="0.6218" stroke-linecap="round" stroke-linejoin="round" stroke-miterlimit="10" stroke-dasharray="6.2178,3.1089" d="
	M541.336,331.137c0,0,2.853,57.782-55.695,85.866"/>
<g>
	<g>
		
			<path fill="#FFFFFF" stroke="#0C5AE5" stroke-width="0.6138" stroke-linecap="round" stroke-linejoin="round" stroke-miterlimit="10" d="
			M584.331,220.746v-32.356c0-1.614-1.849-2.535-3.142-1.566l-58.781,35.413h-17.475c-0.137,0-0.275,0-0.412,0.01
			c-7.725,0.205-14.304,6.195-14.666,13.95c-0.174,3.505,0.891,6.766,2.79,9.369c2.674,3.663,6.991,6.041,11.876,6.041h14.285h3.603
			l58.781,35.393c1.293,0.978,3.142,0.06,3.142-1.557v-32.346"/>
		
			<rect x="508.436" y="222.233" fill="#0C5AE5" stroke="#0C5AE5" stroke-width="0.607" stroke-linecap="round" stroke-linejoin="round" stroke-miterlimit="10" width="13.97" height="29.37"/>
	</g>
	
		<path fill="#FFFFFF" stroke="#0C5AE5" stroke-width="0.6138" stroke-linecap="round" stroke-linejoin="round" stroke-miterlimit="10" d="
		M592.879,236.919c0,6.717-3.388,12.66-8.548,16.176v-32.349C589.491,224.261,592.879,230.194,592.879,236.919z"/>
	
		<path fill="#FFFFFF" stroke="#0C5AE5" stroke-width="0.6138" stroke-linecap="round" stroke-linejoin="round" stroke-miterlimit="10" d="
		M504.519,251.603h3.516l11.26,36.211c0.35,0.653-0.125,1.439-0.863,1.439h-10.195c-0.379,0-0.724-0.217-0.886-0.561l-14.701-43.125
		C495.319,249.225,499.641,251.603,504.519,251.603"/>
</g>
<circle fill="#0C5AE5" stroke="#0C5AE5" stroke-width="0.607" stroke-linecap="round" stroke-linejoin="round" stroke-miterlimit="10" cx="384.766" cy="304.509" r="5.348"/>
<circle fill="#0C5AE5" stroke="#0C5AE5" stroke-width="0.607" stroke-linecap="round" stroke-linejoin="round" stroke-miterlimit="10" cx="400.5" cy="304.509" r="5.348"/>
<circle fill="#0C5AE5" stroke="#0C5AE5" stroke-width="0.607" stroke-linecap="round" stroke-linejoin="round" stroke-miterlimit="10" cx="416.237" cy="304.509" r="5.348"/>
</svg>
