<?xml version="1.0" encoding="utf-8"?>
<!-- Generator: Adobe Illustrator 16.0.0, SVG Export Plug-In . SVG Version: 6.00 Build 0)  -->
<!DOCTYPE svg PUBLIC "-//W3C//DTD SVG 1.1//EN" "http://www.w3.org/Graphics/SVG/1.1/DTD/svg11.dtd">
<svg version="1.1" id="Layer_1" xmlns="http://www.w3.org/2000/svg" xmlns:xlink="http://www.w3.org/1999/xlink" x="0px" y="0px"
	 width="673.466px" height="664.467px" viewBox="0 0 673.466 664.467" enable-background="new 0 0 673.466 664.467"
	 xml:space="preserve">
<linearGradient id="SVGID_1_" gradientUnits="userSpaceOnUse" x1="340.1973" y1="608.7271" x2="338.3938" y2="565.4435">
	<stop  offset="0" style="stop-color:#FFEBE3"/>
	<stop  offset="1" style="stop-color:#EDDAD4"/>
</linearGradient>
<path fill="url(#SVGID_1_)" d="M50.823,571.893h557.526c0,0,43.898-2.15,21.203,20.523
	c-22.697,22.669-110.063,17.262-164.219,49.724c-54.154,32.462-45.448-15.331-116.53-18.036
	c-71.084-2.705-288.09-7.217-290.05-27.053C56.793,577.213,27.193,572.35,50.823,571.893z"/>
<g>
	<linearGradient id="SVGID_2_" gradientUnits="userSpaceOnUse" x1="415.5605" y1="370.187" x2="554.3203" y2="370.187">
		<stop  offset="0" style="stop-color:#40D5E6"/>
		<stop  offset="1" style="stop-color:#5577FF"/>
	</linearGradient>
	<path fill="url(#SVGID_2_)" d="M427.685,186.829c11.963-5.717,23.873,32.368,23.873,32.368
		c20.337,26.874,48.758-8.875,45.978,31.293c-4.864,70.293,80.909,22.106,41.338,95.495c-39.569,73.386,34.941,41.495,10.35,100.668
		c-24.591,59.174,7.283,129.752-29.719,100.75c0,0-32.578-71.444-66.178-93.551c-33.6-22.104,20.13-48.332,9.616-78.352
		c-15.27-43.609-52.057-41.896-25.532-88.759C463.936,239.884,387.012,206.282,427.685,186.829z"/>
	<g>
		<path fill="#FFFFFF" d="M531.22,520.515c-16.037-11.28-34.809-89.885-35.928-136.7c-0.574-23.981-7.663-33.974-13.918-42.791
			c-5.977-8.424-11.141-15.699-8.132-32.411c5.747-31.932-9.365-45.717-9.519-45.852l1.748-1.995
			c0.674,0.588,16.413,14.807,10.38,48.316c-2.811,15.613,1.822,22.141,7.687,30.406c6.153,8.676,13.813,19.472,14.405,44.26
			c1.201,50.246,20.393,124.462,34.804,134.596L531.22,520.515z"/>
	</g>
	<g>
		<linearGradient id="SVGID_3_" gradientUnits="userSpaceOnUse" x1="517.3525" y1="447.6177" x2="642.834" y2="447.6177">
			<stop  offset="0" style="stop-color:#40D5E6"/>
			<stop  offset="1" style="stop-color:#5577FF"/>
		</linearGradient>
		<path fill="url(#SVGID_3_)" d="M537.222,526.343c-2.068,0-4.317-0.24-6.782-0.737c-6.181-1.251-10.233-4.512-12.046-9.694
			c-4.322-12.364,5.694-32.45,13.824-42.131c0.135-0.163,13.743-16.795,12.291-39.847c-0.242-3.867-0.644-7.44-0.997-10.598
			c-1.022-9.123-1.76-15.715,2.156-20.115c3.456-3.88,10.12-5.561,22.293-5.618c21.344-0.1,29.783-8.939,36.564-16.039
			c2.879-3.019,5.6-5.863,8.904-7.67l0,0c10.639-5.807,21.904-6.659,26.791-2.027c2.321,2.198,4.281,6.507,0.438,14.546
			c-3.514,7.343-8.07,11.993-11.733,15.728c-4.927,5.027-8.182,8.347-6.485,14.967c0.396,1.555,0.855,3.125,1.316,4.698
			c3.29,11.255,7.02,24.012-12.241,32.669c-4.088,1.836-7.813,3.298-11.1,4.588c-13.446,5.275-21.561,8.46-30.724,27.802
			c-1.773,3.745-3.34,7.29-4.853,10.723C557.614,513.958,552.15,526.339,537.222,526.343z M614.702,376.223
			c-2.944,1.609-5.407,4.185-8.26,7.171c-7.128,7.465-15.999,16.754-38.47,16.862c-11.191,0.05-17.458,1.512-20.321,4.726
			c-3.133,3.522-2.448,9.617-1.504,18.061c0.356,3.184,0.763,6.795,1.009,10.723c1.521,24.144-12.315,41.011-12.904,41.719
			c-8.048,9.583-17.166,28.654-13.355,39.553c1.484,4.236,4.87,6.918,10.069,7.967c18.14,3.668,23.148-7.68,31.447-26.488
			c1.52-3.448,3.093-7.013,4.882-10.785c9.611-20.292,18.578-23.812,32.152-29.137c3.257-1.279,6.949-2.729,10.979-4.54
			c17.156-7.71,14.061-18.294,10.784-29.504c-0.469-1.603-0.938-3.202-1.34-4.785c-2.065-8.067,2.006-12.219,7.161-17.48
			c3.708-3.781,7.91-8.069,11.233-15.018c1.741-3.641,3.178-8.587,0.132-11.475C634.388,369.993,624.202,371.036,614.702,376.223
			L614.702,376.223z"/>
	</g>
	<g>
		<linearGradient id="SVGID_4_" gradientUnits="userSpaceOnUse" x1="528.0762" y1="465.8638" x2="622.2607" y2="465.8638">
			<stop  offset="0" style="stop-color:#40D5E6"/>
			<stop  offset="1" style="stop-color:#5577FF"/>
		</linearGradient>
		<path fill="url(#SVGID_4_)" d="M530.727,541.654l-2.65-0.139c0.133-2.489,3.474-61.149,27.027-78.318
			c25.839-18.834,33.985-39.074,37.864-52.661c4.573-16.009,27.843-20.286,28.832-20.462l0.461,2.611
			c-0.226,0.04-22.627,4.169-26.74,18.578c-3.989,13.964-12.355,34.76-38.854,54.077
			C534.122,481.77,530.757,541.056,530.727,541.654z"/>
	</g>
	<linearGradient id="SVGID_5_" gradientUnits="userSpaceOnUse" x1="494.0674" y1="390.0737" x2="603.752" y2="390.0737">
		<stop  offset="0" style="stop-color:#40D5E6"/>
		<stop  offset="1" style="stop-color:#5577FF"/>
	</linearGradient>
	<path fill="url(#SVGID_5_)" d="M584.577,246.03c-16.74-5.743-13.263,26.525-20.336,50.397
		c-7.072,23.873-78.692,10.414-48.629,70.195c30.062,59.781-38.021,19.994-17.684,72.159c20.336,52.165,1.768,107.959,23.872,93.767
		c22.105-14.192,12.419-79.884,35.407-87.688c22.989-7.806,26.741-16.911,3.979-38.129c-22.761-21.221,59.642-42.29,39.307-85.137
		C580.155,278.742,603.92,252.66,584.577,246.03z"/>
	<g>
		<path fill="#FFFFFF" d="M532.058,530.046c-2.105-8.93-20.085-87.521-3.31-97.021c14.787-8.372,14.422-40.938,12.115-71.69
			c-2.042-27.221,32.919-39.944,34.408-40.474l0.89,2.502c-0.346,0.123-34.543,12.576-32.652,37.773
			c2.368,31.582,2.623,65.097-13.452,74.198c-12.739,7.214-1.012,70.375,4.582,94.105L532.058,530.046z"/>
	</g>
	<linearGradient id="SVGID_6_" gradientUnits="userSpaceOnUse" x1="468.8965" y1="547.4009" x2="570.1123" y2="547.4009">
		<stop  offset="0" style="stop-color:#FF9340"/>
		<stop  offset="1" style="stop-color:#FFCE45"/>
	</linearGradient>
	<polygon fill="url(#SVGID_6_)" points="570.112,502.062 546.21,592.74 492.798,592.74 468.896,502.062 	"/>
	<linearGradient id="SVGID_7_" gradientUnits="userSpaceOnUse" x1="468.8965" y1="547.4009" x2="570.1123" y2="547.4009">
		<stop  offset="0" style="stop-color:#C97332"/>
		<stop  offset="1" style="stop-color:#FFCE45"/>
	</linearGradient>
	<path fill="url(#SVGID_7_)" d="M570.112,502.062c0,0-52.618,9.881-52.618,90.678h-24.696l-23.901-90.678H570.112z"/>
</g>
<g>
	<g>
		<g>
			<polygon fill="#FFCA55" points="15.23,7.093 185.45,7.875 184.883,131.254 184.763,157.241 158.896,131.133 14.663,130.471 			
				"/>
		</g>
	</g>
	<circle fill="#FFFFFF" cx="100.042" cy="74.106" r="13.001"/>
	<circle fill="#FFFFFF" cx="57.344" cy="73.971" r="13"/>
	<circle fill="#FFFFFF" cx="141.758" cy="74.238" r="13"/>
</g>
<path fill="#FFCA55" d="M659.923,238.695c3.456-9.37-1.337-19.766-10.71-23.223c-9.368-3.453-19.766,1.338-23.222,10.708
	c0,0-0.375,0.728-0.733,2.549c-0.125,0.601-0.222,1.2-0.285,1.799c-0.712,5.542-0.783,17.163,4.233,39.189
	c18.115-13.487,25.607-22.374,28.666-27.051c0.342-0.496,0.659-1.018,0.952-1.555C659.736,239.493,659.923,238.695,659.923,238.695z
	 M639.059,243.008c-5.838-2.155-8.825-8.632-6.671-14.468c2.153-5.836,8.631-8.827,14.468-6.672
	c5.838,2.153,8.825,8.629,6.674,14.468C651.375,242.174,644.896,245.163,639.059,243.008z"/>
<g>
	
		<rect x="286.784" y="98.426" transform="matrix(0.9798 0.2 -0.2 0.9798 29.8448 -60.5421)" fill="#FFC655" width="55.49" height="37.994"/>
	<polygon fill="#FFBC55" points="283.545,130.486 314.978,115.226 337.913,141.585 	"/>
	<polygon fill="#FFA655" points="345.515,104.362 313.595,122.001 291.144,93.26 	"/>
</g>
<g>
	<g>
		<path fill="#FFD255" d="M512.282,151.1c-2.615,0.842-5.357,0.864-7.816,0.043c-2.791-0.931-4.888-2.826-5.91-5.34
			c-2.376-4.806-6.009-9.286-8.714-12.27c-8.034-2.356-14.347-8.483-16.922-16.448c-4.277-13.228,3.005-27.47,16.234-31.749
			c13.231-4.274,27.472,3.006,31.749,16.237c2.329,7.201,1.322,14.959-2.754,21.338c0.196,5.448,0.924,10.208,2.165,14.158
			c2.044,5.161-1.149,11.303-7.132,13.701C512.884,150.892,512.583,151.001,512.282,151.1z M489.788,87.303
			c-12.146,3.923-18.834,17.002-14.906,29.149c2.394,7.4,8.301,13.075,15.804,15.177l0.284,0.079l0.199,0.219
			c2.819,3.085,6.715,7.847,9.252,12.996l0.033,0.072c0.787,1.961,2.444,3.454,4.665,4.19c2.279,0.762,4.872,0.645,7.294-0.329
			c4.943-1.983,7.623-6.944,5.971-11.059l-0.015-0.035l-0.013-0.04c-1.327-4.21-2.095-9.281-2.28-15.069l-0.012-0.325l0.18-0.274
			c3.884-5.904,4.866-13.139,2.696-19.848C515.013,90.063,501.936,83.373,489.788,87.303z"/>
	</g>
	<g>
		<polygon fill="#FFD255" points="504.7,144.912 491.237,120.729 498.334,122.945 500.13,117.951 504.372,120.21 507.61,113.984 
			515.019,140.691 513.031,141.244 507.022,119.587 505.243,123.01 501.267,120.893 499.608,125.505 495.553,124.237 
			506.503,143.907 		"/>
	</g>
	<g>
		
			<rect x="504.629" y="148.186" transform="matrix(0.928 -0.3725 0.3725 0.928 -19.5822 202.2136)" fill="#FFD255" width="17.884" height="7.206"/>
	</g>
	<g>
		
			<rect x="499.828" y="141.193" transform="matrix(0.928 -0.3726 0.3726 0.928 -17.9283 201.2169)" fill="#FFD255" width="23.636" height="11.603"/>
	</g>
</g>
<g>
	<path fill="#EEA886" d="M316.125,362.667c0,0,5.565,1.12,8.225,1.203c2.661,0.083,14.968-5.497,18.905-4.963
		c3.938,0.53,29.622,11.442,30.788,12.238s-0.548,2.55-0.548,2.55l-58.966,0.698L316.125,362.667z"/>
	<polygon fill="#323657" points="394.335,382.167 296.259,382.907 296.191,373.928 394.268,373.181 	"/>
	
		<rect x="355.374" y="329.464" transform="matrix(0.2925 -0.9563 0.9563 0.2925 -33.2126 623.0225)" fill="#323657" width="98.08" height="8.983"/>
	<g>
		<path fill="#515269" d="M215.236,563.652l-3.784,8.187c0,0-15.931-5.939-16.012-6.138c-0.078-0.201,4.387-11.37,4.387-11.37
			L215.236,563.652z"/>
	</g>
	<g>
		<path fill="#6A6B8A" d="M351.686,563.476l4.409,12.88c0,0-17.485,3.854-20.025,3.651c-0.224-0.021-3.308-14.592-3.308-14.592
			L351.686,563.476z"/>
	</g>
	<path fill="#C4C6D1" d="M334.114,576.251c0,0,12.217-3.317,12.582-3.85c0.363-0.53,4.845-3.554,7.154-3.169
		c2.311,0.388,2.521,3.151,4.828,3.716s20.162,6.272,22.637,7.731c2.475,1.46,14.285-2.837,16.561,0.222
		c2.274,3.059,4.481,11.104-14.077,13.883c-18.56,2.779-38.428,11.064-42.869,9.933
		C336.483,603.589,333.435,581.199,334.114,576.251z"/>
	<path fill="#C4C6D1" d="M194.186,563.515c0,0,11.324,4.832,11.921,4.65c0.596-0.187,5.841,0.208,7.369,1.893
		c1.53,1.691,0.023,3.924,1.443,5.748c1.421,1.823,9.493,12.508,11.857,14.975c1.931,2.016,12.531,3.901,15.93,7.451
		c2.563,2.681-0.45,13.384-18.479,8.27c-17.557-4.982-39.298-13.617-42.006-17.156C179.509,585.805,190.686,566.881,194.186,563.515
		z"/>
	<g>
		<path fill="#34395C" d="M205.799,402.944c0,0,49.807,22.148,60.361,29.718c10.553,7.574,33.664,21.52,34.433,24.932
			c0.768,3.416,5.343,0.089-2.852,17.139c-8.197,17.051-46.945,58.083-50.576,62.547c-3.79,4.651-30.668,32.518-30.668,32.518
			l-20.215-15.228c0,0,38.869-57.153,44.494-65.557c5.624-8.404,8.159-9.649,4.832-13.361c-3.327-3.709-16.614-3.653-85.019-31.987
			c-6.836-2.833-25.907-9.392-28.421-18.571c-4.542-16.585-0.648-37.604,17.738-46.851
			C168.292,368.999,205.799,402.944,205.799,402.944z"/>
	</g>
	<g>
		<path fill="#EEA886" d="M229.485,242.613c-0.438,0.386-0.913,1.229-1.409,2.392c-0.716,1.668-1.473,3.989-2.204,6.547
			c-2.26,7.899-4.31,18.036-4.31,18.036s-28.508-23.75-24.479-25.244c4.032-1.492,7.011-8.432,7.011-8.432
			S232.488,239.945,229.485,242.613z"/>
	</g>
	<g>
		<path fill="#EDDCC5" d="M227.707,324.655c0,0-23.136,44.238-24.136,60.824c-1.003,16.583-48.299-5.223-48.299-5.223
			L227.707,324.655z"/>
	</g>
	<g>
		<path fill="#323657" d="M203.66,384.417l0.532,4.124l0.825,5.437h-0.001c0,0-0.003,0-0.009,0
			c-0.712-0.043-46.185-2.9-49.479-2.063c-3.322,0.844,6.261-10.726,6.261-10.726L203.66,384.417z"/>
	</g>
	<g>
		<path fill="#494F80" d="M205.016,393.978c0,0,51.456,12.11,64.179,16.176c12.721,4.063,34.615,11.221,40.498,14.577
			c3.125,1.786,7.896,4.456,13.61,23.048c6.476,21.081,21.264,80.363,24.62,89.595c2.109,5.799,8.172,28.61,8.172,28.61
			l-26.295,4.559c0,0-31.314-63.044-33.854-79.846c-4.274-28.287-15.24-28.438-19.67-31.017
			c-4.431-2.576-25.761,2.261-101.655-3.792c-7.583-0.604-28.319-0.982-33.685-9.167c-9.696-14.787-19.482-31.582-4.423-46.449
			C151.572,385.404,205.016,393.978,205.016,393.978z"/>
	</g>
	<g>
		<path fill="#EEA886" d="M239.534,183.064c0,0,8.906,15.38,6.876,19.567c-2.026,4.184,9.304,14.327,7.441,16.475
			c-1.857,2.148-5.691,4.75-5.627,5.378c0.064,0.624-3.294,20.669-7.663,21.117c-4.371,0.449-34.246-1.1-36.725-10.444
			c-2.479-9.345-9.765-29.819-11.481-33.619C190.637,197.734,207.861,168.374,239.534,183.064z"/>
	</g>
	<g>
		<path fill="#FCCCA2" d="M202.702,180.093c-2.488,1.847-4.498,3.8-6.104,5.797c-1.96,0.921-13.515,6.661-11.113,12.864
			c3.233,8.344,16.298,30.705,17.4,33.042c0.146,0.312,0.147-0.276,0.039-1.532c0.805-7.895,10.521-16.741,10.521-16.741
			l5.183-2.339c-2.704-5.031-1.634-9.733-1.634-9.733c5.869-6.289,25.369-13.064,25.369-13.064
			C239.584,160.565,215.772,170.395,202.702,180.093z"/>
	</g>
	<g>
		<path fill="#EEA886" d="M211.525,206.978c-1.381-2.104-8.655-1.757-7.593,4.445c1.06,6.208,9.986,11.186,11.929,8.419
			C217.807,217.073,212.995,209.221,211.525,206.978z"/>
	</g>
	<path fill="#FFC05C" d="M197.084,244.347c0,0-36.109,21.04-44.255,57.781c-8.148,36.738-22.882,101.256-23.142,108.895
		c0,0,48.863-23.512,75.329-17.044c0,0,16.664-59.869,25.429-74.008c8.767-14.139-4.261-47.383-4.261-47.383
		S213.728,252.64,197.084,244.347z"/>
	<path fill="#5E5E5B" d="M65.427,260.79l29.096,85.33c0.22,0.647,0.354,1.322,0.396,2.005l6.979,112.198l121.651,2.71
		l35.447,129.038c1.073,3.902,0.389,8.092-1.959,11.418c-1.542,2.185-3.75,4.118-6.83,4.497c-7.713,0.945-163.891,0-163.891,0
		v-6.453c0-3.217,2.661-5.824,5.945-5.824h146.002c2.412,0,4.725-1.045,6.202-2.909c0.867-1.093,1.484-2.449,1.243-3.993
		c-0.644-4.113-31.813-109.247-31.813-109.247l-117.632-2.085c-5.354-0.096-9.707-4.261-9.929-9.502l-5.11-120.72
		c-0.032-0.772-0.158-1.533-0.374-2.269l-23.777-81.575c0,0-2.491-5.687,2.09-6.24C63.739,256.621,64.921,259.304,65.427,260.79z"/>
	<path fill="#D6985E" d="M224.2,465.404c0,0,0.091-9.313-12.678-9.965c-14.662-0.746-110.016-1.407-110.016-1.407l0.635,9.909
		L224.2,465.404z"/>
	<path fill="#D6985E" d="M283.094,389.461v4.344h207.231v-4.344c0-4.054-2.725-7.338-6.083-7.338H289.18
		C285.82,382.124,283.094,385.408,283.094,389.461z"/>
	<path fill="#807066" d="M415.958,605.793h62.623v-10.02h-56.474c-3.396,0-6.149,2.756-6.149,6.153V605.793z"/>
	<rect x="466.327" y="393.805" fill="#807066" width="8.275" height="211.988"/>
	<rect x="449.7" y="393.805" fill="#807066" width="8.276" height="211.988"/>
	<path fill="#A77860" d="M228.076,245.005c-0.716,1.668-1.473,3.989-2.204,6.547c-4.268-1.775-12.406-9.284-12.657-9.519
		C216.611,243.35,228.076,245.005,228.076,245.005z"/>
	<path fill="#BC8551" d="M371.022,393.805h119.303v-4.344c0-4.054-2.804-7.338-6.262-7.338h-94.362L371.022,393.805z"/>
	<g>
		<path fill="#FFC05C" d="M212.931,272.795c0,0,8.597,12.187,13.911,21.411c6.027,10.461,11.952,20.791,13.257,23.112
			c2.66,4.723,12.121,7.248,16.306,9.045c3.85,1.652,67.979,35.976,68.794,35.9c0.815-0.07-6.909,12.79-6.909,12.79
			s-89.043-25.533-93.046-29.191c-4-3.657-15.882-20.307-20.743-27.165c-4.63-6.534-11.73-17.251-15.497-21.867
			c-4.21-5.165-13.042-22.83-1.811-31.64C201.541,253.935,209.477,267.628,212.931,272.795z"/>
	</g>
	<path fill="#D19E4C" d="M188.525,296.211c0,0,10.298,27.932,16.492,37.455c6.195,9.522,13.029,17.438,13.029,17.438l3.297-9.637
		C221.343,341.468,194.689,304.808,188.525,296.211z"/>
</g>
</svg>
