<?xml version="1.0" encoding="utf-8"?>
<!-- Generator: Adobe Illustrator 16.0.0, SVG Export Plug-In . SVG Version: 6.00 Build 0)  -->
<!DOCTYPE svg PUBLIC "-//W3C//DTD SVG 1.1//EN" "http://www.w3.org/Graphics/SVG/1.1/DTD/svg11.dtd">
<svg version="1.1" id="Layer_1" xmlns="http://www.w3.org/2000/svg" xmlns:xlink="http://www.w3.org/1999/xlink" x="0px" y="0px"
	 width="780.902px" height="800px" viewBox="0 0 780.902 800" enable-background="new 0 0 780.902 800" xml:space="preserve">
<linearGradient id="SVGID_1_" gradientUnits="userSpaceOnUse" x1="318.937" y1="532.4619" x2="300.6987" y2="201.8872">
	<stop  offset="0" style="stop-color:#D1D7E0"/>
	<stop  offset="1" style="stop-color:#EBEBFF"/>
</linearGradient>
<path opacity="0.95" fill="url(#SVGID_1_)" d="M393.056,346.89H211.455c-14.348,0-25.979-11.631-25.979-25.979V139.31
	c0-14.348,11.631-25.979,25.979-25.979h181.602c14.348,0,25.979,11.631,25.979,25.979v181.602
	C419.036,335.259,407.404,346.89,393.056,346.89z"/>
<rect x="248.19" y="293.716" fill="#96BFE6" width="108.133" height="5.342"/>
<rect x="263.504" y="310.548" fill="#96BFE6" width="77.503" height="5.342"/>
<g>
	<rect x="602.391" y="415.679" fill="#4598E6" width="25.354" height="4.695"/>
</g>
<g>
	<rect x="506.14" y="458.704" fill="#96BFE6" width="147.522" height="9.09"/>
	<rect x="506.14" y="502.349" fill="#96BFE6" width="119.294" height="9.092"/>
	<rect x="506.14" y="480.526" fill="#96BFE6" width="69.936" height="9.091"/>
</g>
<g>
	<path fill="#4598E6" d="M692.257,231.751v4.592h27.034v25.371h4.591v-29.963H692.257z M508.678,261.714h4.593v-25.371h27.033
		v-4.592h-31.626V261.714z M719.292,392.63v25.38h-27.034v4.592h31.625V392.63H719.292z M513.271,392.63h-4.593v29.972h31.626
		v-4.592h-27.033V392.63z"/>
</g>
<g>
	<g>
		<path fill="#4598E6" d="M709.57,512.107c-14.907,0-27.035-12.129-27.035-27.035c0-14.907,12.128-27.036,27.035-27.036
			c14.906,0,27.035,12.129,27.035,27.036C736.605,499.979,724.476,512.107,709.57,512.107z M709.57,463.269
			c-12.022,0-21.803,9.781-21.803,21.804c0,12.021,9.78,21.803,21.803,21.803s21.803-9.781,21.803-21.803
			C731.373,473.05,721.592,463.269,709.57,463.269z"/>
	</g>
	<g>
		<polygon fill="#4598E6" points="707.844,495.713 695.563,483.431 699.262,479.729 707.844,488.313 719.876,476.281 
			723.577,479.98 		"/>
	</g>
</g>
<linearGradient id="SVGID_2_" gradientUnits="userSpaceOnUse" x1="12.3418" y1="767.4824" x2="600.6743" y2="767.4824">
	<stop  offset="0.0052" style="stop-color:#1A2257"/>
	<stop  offset="1" style="stop-color:#5E60F2"/>
</linearGradient>
<ellipse fill="url(#SVGID_2_)" cx="306.508" cy="767.482" rx="294.166" ry="20.532"/>
<linearGradient id="SVGID_3_" gradientUnits="userSpaceOnUse" x1="302.2563" y1="414.459" x2="302.2563" y2="165.6073">
	<stop  offset="0" style="stop-color:#D1D7E0"/>
	<stop  offset="1" style="stop-color:#EBEBFF"/>
</linearGradient>
<rect x="223.543" y="122.064" opacity="0.95" fill="url(#SVGID_3_)" width="157.426" height="135.071"/>
<g>
	<path fill="#385369" d="M362.387,204.291c-5.185-13.716-17.641-20.013-23.521-21.975c-2.094-0.696-5.834-1.917-9.773-3.191
		c-7.102-2.294-14.859-4.79-14.859-4.79h-24.502c0,0-8.485,2.843-17.502,6.003c0,0.008-0.007,0.008-0.007,0.008
		c-8.308,2.912-17.054,6.088-20.006,7.572c-6.157,3.075-16.521,25.058-18.613,27.577c-1.082,1.298-5.888,9.859-10.618,19.425h26.396
		c2.79-4.791,4.938-8.507,4.938-8.507s1.67,3.663,3.693,8.507h84.563c1.338-5.625,2.172-12.711,2.172-12.711
		s4.529,6.159,9.474,12.711h24.371C372.664,224.976,365.309,212.033,362.387,204.291z"/>
	<g>
		<path fill="#EEA886" d="M304.903,107.005c0,0,19.156,3.018,16.24,32.992c-2.918,29.975-19.826,27.518-20.956,27.488
			c-1.131-0.03-16.975,0.547-18.21-36.051C281.977,131.434,281.438,104.372,304.903,107.005z"/>
	</g>
	<g>
		<path fill="#EEA886" d="M321.44,131.53c0,0,2.097-2.241,2.867,0.028c0.77,2.269-2.862,12.387-2.992,12.859
			c0,0-0.383,0.88-0.887,0.396C319.924,144.329,321.44,131.53,321.44,131.53z"/>
	</g>
	<g>
		<path fill="#EEA886" d="M282.494,131.151c0,0-2.055-2.281-2.868-0.028c-0.813,2.253,2.591,12.438,2.743,12.915
			c0,0,0.366,0.888,0.879,0.413C283.76,143.977,282.494,131.151,282.494,131.151z"/>
	</g>
	<g>
		<path fill="#434343" d="M321.43,136.128l-2.742,3.667c0,0,0.076-8.039-0.362-9.299c-0.44-1.26-1.114-5.111-1.481-6.02
			c-0.368-0.907-16.452-5.415-30.66,1.316c0,0,0.626,5.78-0.736,6.295c-1.361,0.515-0.694,9.415-0.694,9.415l-2.255-2.544
			c0,0-3.451-23.061-2.599-25.465c0.852-2.404,3.568-16.854,32.715-8.276c0,0,9.087-1.924,10.91,4.349
			S321.43,136.128,321.43,136.128z"/>
	</g>
	<path fill="#EEA886" d="M316.61,173.793c-0.009-0.027-2.458-1.208-2.458-1.208c-1.193-2.668-0.307-13.929-0.307-13.929
		s-24.4-6.21-23.704-1.461s-2.102,15.782-2.102,15.782l-12.519,6.215c0,0,13.338,35.812,28.666,31.191
		c15.329-4.619,21.116-32.482,21.116-32.482L316.61,173.793z"/>
	<path fill="#A77860" d="M290.493,162.469c0,0,3.93,5.076,10.755,5.076c4.487,0,7.71-1.258,12.181-5.618c0,0-1.938,8.28-12.151,9.05
		C301.277,170.977,293.871,171.918,290.493,162.469z"/>
</g>
<g>
	<g>
		<g>
			<g>
				<g>
					<g>
						<path fill="#0E2D3D" d="M208.648,332.715c0,0,14.078,6.887,10.598,25.62c-3.481,18.734-5.021,21.259-1.128,28.579
							c3.895,7.32,8.488,38.545,4.983,44.463c-3.504,5.918-43.373-26.008-48.901-52.796c-5.53-26.787,3.503-38.702,6.697-43.14
							C184.088,331.002,196.22,326.408,208.648,332.715z"/>
					</g>
				</g>
			</g>
		</g>
	</g>
	<g>
		<path fill="#163342" d="M203.336,767.482h3.19v-15.048c0,0,6.258,4.172,10.186,9.939c3.927,5.768,9.326,5.276,17.548,4.908
			c8.222-0.367,7.854-3.681,7.118-8.345c-0.736-4.663-9.081-6.135-11.781-6.871c-2.701-0.736-8.828-11.296-10.799-13.867
			c-2.688-3.507-4.111-6.871-4.111-6.871s-1.533-6.258-9.143,0c-7.607,6.258-5.398,18.284-4.54,19.388
			C201.864,751.82,203.336,767.482,203.336,767.482z"/>
	</g>
	<g>
		<path fill="#EEA886" d="M219.412,752.066c2.822,1.841,10.186,0,10.186,0c-2.086-2.7-14.91-20.738-14.91-20.738
			c-7.791-4.541-10.871,1.708-10.871,1.708C206.995,734.007,216.589,750.225,219.412,752.066z"/>
	</g>
	<g>
		<g>
			<g>
				<g>
					<path fill="#EEA886" d="M301.462,474.468c0,0,5.107,0.98,6.854-1.422c1.483-2.041,4.877-3.606,5.92-4.092
						c1.396-0.647,4.939-4.232,5.774-2.479c0.834,1.751-5.559,6.19-6.712,7.389c-1.154,1.197,6.267,1.729,7.548,2.893
						c1.28,1.165-0.294,13.409-5.347,12.456c-5.052-0.953-9.819-5.307-10.741-5.298c-0.922,0.008-3.703-0.55-3.703-0.55
						L301.462,474.468z"/>
				</g>
			</g>
		</g>
	</g>
	<g>
		<g>
			<g>
				<g>
					<path fill="#EEA886" d="M319.719,476.256c0,0,15.272,3.944,16.07,5.06s0.534,1.931-0.908,1.622
						c-1.443-0.312-14.867-3.386-14.867-3.386s17.291,7.706,18.146,8.478c0.498,0.451,0.083,2.059-0.705,1.964
						c-0.787-0.094-18.362-6.752-18.362-6.752s16.132,7.224,16.653,8.082c0.457,0.749-0.294,2.131-1.527,1.677
						c-1.232-0.453-16.585-6.313-16.585-6.313s11.411,5.997,11.425,6.981c0.008,0.604-0.285,2.009-3.183,0.37
						c-2.896-1.64-10.134-4.79-10.134-4.79L319.719,476.256z"/>
				</g>
			</g>
		</g>
	</g>
	<g>
		<path fill="#163342" d="M161.994,768.51h1.964v-11.045c0,0,3.492,3.594,5.086,8.869c1.596,5.276,7.308,6.842,16.021,6.597
			c8.712-0.246,8.835-3.685,8.1-8.838c-0.736-5.155-8.1-7.855-8.1-7.855c-3.313-2.945-11.535-15.154-11.535-15.154
			s-5.277-1.411-9.418,1.933c-4.141,3.342-2.853,10.892-2.73,12.854C161.502,757.834,161.994,768.51,161.994,768.51z"/>
	</g>
	<g>
		<path fill="#1D3B54" d="M168.007,505.411c0,0-10.383,13.498-13.199,29.512c-2.815,16.016,1.664,69.763,1.541,77.678
			s-7.486,27.611-6.014,42.521c1.473,14.909,7.284,89.118,7.284,89.118l15.909-3.157c0,0-0.919-75.653,0-81.912
			c0.921-6.258,2.769-29.07,3.137-31.648c0.367-2.576,23.37-70.244,23.37-81.79S193.041,486.574,168.007,505.411z"/>
	</g>
	<g>
		<path fill="#1D3B54" d="M220.16,510.688c0,0,17.058,65.101,19.083,74.118c2.025,9.02,4.957,16.459,4.957,20.289
			c0,8.886-3.3,23.152-3.3,23.152l-21.661,103.594H198.61c0,0,11.494-62.149,11.805-74.301c0.309-12.181,9.684-29.477,7.844-34.631
			c-1.841-5.153-29.635-64.609-29.635-64.609S167.577,491.789,220.16,510.688z"/>
	</g>
	<g>
		<path fill="#EEA886" d="M185.064,756.237l-11.535-15.154l-9.418,1.933c0,0,2.535,6.783,7.112,11.887
			C176.645,760.946,185.064,756.237,185.064,756.237z"/>
	</g>
	<g>
		<g>
			<path fill="#285173" d="M213.116,400.058c0,0,7.031,0.664,12.346,6.357c5.314,5.692,10.302,14.772,11.693,17.809
				s20.899,31.176,21.911,31.809c1.013,0.634,10.819,3.909,17.316,6.097c10.026,3.374,30.126,10.679,30.126,10.679l-3.991,12.638
				c0,0-37.794-12.367-47.261-14.699c-11.573-2.851-38.219-37.033-38.219-37.033S197.173,410.433,213.116,400.058z"/>
		</g>
	</g>
	<g>
		<g>
			<path fill="#FFBF55" d="M200.843,395.124c0,0,9.109,4.302,12.272,4.934c3.163,0.632,15.435,16.575,17.585,22.394
				c2.151,5.819,0,14.55-4.428,24.798c-4.427,10.248-0.253,13.664-2.276,23.912c-2.025,10.248-1.373,48.585-0.994,54.279
				c0.38,5.693-59.219,14.323-70.984,3.948c0,0,7.965-34.551,17.396-44.413c2.04-2.132,1.825-16.345,0.433-19.888
				c-1.393-3.542-17.08-29.985-17.08-29.985s-1.151-26.818,5.693-32.135c5.946-4.619,22.152-6.264,25.063-7.277
				C186.432,394.68,194.897,394.239,200.843,395.124z"/>
		</g>
	</g>
	<g>
		<g>
			<path fill="#EEA886" d="M205.193,384.612c0,0-0.272,2.508-0.586,5.898c-0.121,1.342-0.255,2.822-0.374,4.338
				c-0.364,4.545-0.653,9.421-0.479,11.917c0,0-9.469,9.486-20.23-11.071c0,0,4.525-8.478,1.116-20.02
				C181.234,364.128,205.193,384.612,205.193,384.612z"/>
		</g>
	</g>
	<g>
		<path fill="#183C59" d="M231.687,451.029c0,0,2.278-15.155-0.144-24.372c0,0,0,7.926-4.346,19.18L231.687,451.029z"/>
	</g>
	<g>
		<path fill="#EEA886" d="M176.25,397.152c0,0,6.512,19.233,24.389,17.817c17.878-1.415,8.476-16.239,8.476-16.239
			s-4.455-2.555-5.71-2.796c-1.254-0.242-19.766-0.476-19.766-0.476L176.25,397.152z"/>
	</g>
	<g>
		<path fill="#285173" d="M209.114,398.73c0,0,9.362,25.901,9.362,52.299c0,26.397,0.754,69.399,4.023,82.979
			s12.574,55.575,12.574,55.575l7.293-3.772c0,0-17.537-67.024-18.86-71.856c-1.324-4.833,1.005-55.891,2.263-60.166
			s6.604-23.305,5.774-28.584c-1.048-6.656-7.276-16.505-17.335-24.972L209.114,398.73z"/>
	</g>
	<g>
		<path fill="#285173" d="M179.783,396.342c0,0,5.819,18.635,8.769,42.501c2.95,23.866-9.054,134.646-17.101,159.794l-31.183-5.029
			c0,0,6.712-78.305,15.824-92.555c9.112-14.252,12.012-26.859,2.175-56.602c-9.836-29.743,4.313-44.473,4.313-44.473
			S177.047,396.651,179.783,396.342z"/>
	</g>
	<g>
		<polygon fill="#616161" points="213.423,475.366 175.616,540.854 133.583,516.587 169.75,450.152 		"/>
	</g>
	<g>
		<polygon fill="#E0CEC7" points="208.866,477.619 175.287,535.78 137.958,514.228 170.078,455.226 		"/>
	</g>
	<g>
		<polygon fill="#616161" points="196.478,472.395 198.834,468.312 183.743,459.598 180.796,463.342 		"/>
	</g>
	<g>
		<g>
			<g>
				<g>
					<g>
						<g>
							<path fill="#EEA886" d="M194.677,518.859c0,0-1.72,0.008-2.474-0.356c0,0-1.32-0.768-2.291-1.254
								c-0.31-0.154-0.582-0.28-0.767-0.345c-0.771-0.268-2.544-0.621-4.216-1.782c-1.67-1.159-7.591-8.014-7.591-8.014l2.797-4.252
								l2.049-4.354c0,0,12.432,0.802,14.113,1.703c0.164,0.088,0.323,0.182,0.466,0.281c1.35,0.9,1.976,2.138,2.63,2.69
								c0.24,0.206,2.48,2.397,2.403,3.332c-0.108,1.297-0.708,2.151-1.489,2.579c0,0-0.322,2.529-1.568,3.71
								c0,0-0.222,2.342-2.19,3.368C196.549,516.167,196.058,518.519,194.677,518.859z"/>
						</g>
					</g>
				</g>
			</g>
		</g>
	</g>
	<g>
		<g>
			<path fill="#285173" d="M169.055,400.058c0,0-11.481-3.289-18.061,9.363c-6.579,12.651-6.546,18.051-7.426,24.229
				c-0.83,5.833-4.578,21.76-4.958,23.405c-0.379,1.644-8.867,21.258-4.975,28.112c3.912,6.891,43.652,27.173,43.4,28.691
				c-0.254,1.518,6.882-15.335,6.882-15.335s-16.08-8.963-18.714-11.723c-4.278-4.482-13.302-9.312-11.448-14.873
				c2.178-6.531,8.721-28.57,10.238-31.797C165.513,436.906,178.734,404.17,169.055,400.058z"/>
		</g>
	</g>
	<g>
		<g>
			<g>
				<g>
					<g>
						<path fill="#EEA987" d="M206.607,334.793c0,0,20.44,6.424,9.343,41.699c-11.096,35.275-39.011-4.088-36.092-25.58
							C182.778,329.419,206.607,334.793,206.607,334.793z"/>
					</g>
				</g>
			</g>
		</g>
	</g>
	<g>
		<g>
			<g>
				<g>
					<g>
						<path fill="#0E2D3D" d="M218.041,355.375c0,0-10.158,9.967-27.155,11.213c0,0-6.532,7.66-7.035,10.666
							c0,0-15.165-25.85,3.478-41.346C205.969,320.412,224.892,348.99,218.041,355.375z"/>
					</g>
				</g>
			</g>
		</g>
	</g>
	<g>
		<g>
			<g>
				<g>
					<g>
						<path fill="#EEA987" d="M191.089,367.291c-0.131-2.568-1.714-8.41-5.528-6.775c-3.815,1.635,0.233,13.533,2.765,12.802
							C188.326,373.318,191.401,373.365,191.089,367.291z"/>
					</g>
				</g>
			</g>
		</g>
	</g>
	<g>
		<path fill="#A77860" d="M204.607,390.51c-0.121,1.342-0.255,2.822-0.374,4.338c0,0-9.022-0.537-15.054-13.958
			C189.574,381.476,196.183,391.187,204.607,390.51z"/>
	</g>
</g>
<g>
	<g>
		
			<linearGradient id="SVGID_4_" gradientUnits="userSpaceOnUse" x1="-5294.4688" y1="670.9805" x2="-5264.4878" y2="670.9805" gradientTransform="matrix(-1 0 0 1 -5189.7393 0)">
			<stop  offset="0" style="stop-color:#3076A1"/>
			<stop  offset="1" style="stop-color:#48C9B6"/>
		</linearGradient>
		<path fill="url(#SVGID_4_)" d="M75.411,727.393c6.967-4.898,15.12-39.041,15.607-59.377c0.249-10.417,3.328-14.756,6.044-18.586
			c2.597-3.659,4.84-6.82,3.534-14.078c-2.497-13.87,4.067-19.857,4.134-19.917l-0.76-0.865c-0.292,0.256-7.128,6.431-4.508,20.987
			c1.221,6.78-0.792,9.616-3.339,13.207c-2.673,3.768-6,8.456-6.257,19.225c-0.521,21.824-8.857,54.061-15.117,58.462
			L75.411,727.393z"/>
	</g>
	<g>
		
			<linearGradient id="SVGID_5_" gradientUnits="userSpaceOnUse" x1="-5271.1743" y1="695.7295" x2="-5216.6699" y2="695.7295" gradientTransform="matrix(-1 0 0 1 -5189.7393 0)">
			<stop  offset="0" style="stop-color:#3076A1"/>
			<stop  offset="1" style="stop-color:#48C9B6"/>
		</linearGradient>
		<path fill="url(#SVGID_5_)" d="M60.809,717.435c-0.658-1.49-1.338-3.032-2.108-4.658c-3.979-8.401-7.505-9.784-13.346-12.076
			c-1.427-0.561-3.044-1.195-4.82-1.992c-8.367-3.761-6.747-9.301-5.318-14.19c0.2-0.684,0.399-1.364,0.572-2.04
			c0.736-2.875-0.678-4.317-2.818-6.501c-1.59-1.623-3.57-3.643-5.096-6.832c-1.67-3.491-0.819-5.363,0.189-6.318
			c2.123-2.012,7.017-1.642,11.637,0.882c1.435,0.783,2.617,2.021,3.868,3.331c2.946,3.084,6.611,6.923,15.883,6.966
			c5.286,0.024,8.182,0.755,9.682,2.44c1.702,1.912,1.381,4.775,0.938,8.737c-0.154,1.37-0.328,2.925-0.434,4.604
			c-0.63,10.013,5.281,17.237,5.339,17.308c3.532,4.204,7.882,12.93,6.004,18.3c-0.787,2.252-2.547,3.669-5.232,4.211
			c-1.069,0.216-2.047,0.32-2.945,0.32C66.319,729.925,63.946,724.547,60.809,717.435z M39.15,664.719
			c-4.126-2.252-8.551-2.707-10.292-1.057c-1.323,1.254-0.699,3.403,0.058,4.984c1.443,3.018,3.269,4.88,4.879,6.523
			c2.239,2.285,4.007,4.09,3.11,7.593c-0.175,0.688-0.378,1.382-0.582,2.079c-1.423,4.868-2.767,9.466,4.684,12.814
			c1.75,0.786,3.354,1.416,4.77,1.972c5.896,2.313,9.791,3.843,13.965,12.655c0.777,1.64,1.461,3.188,2.121,4.687
			c3.604,8.168,5.779,13.099,13.659,11.506c2.258-0.457,3.729-1.621,4.374-3.462c1.654-4.733-2.305-13.019-5.801-17.181
			c-0.256-0.307-6.266-7.634-5.606-18.12c0.107-1.706,0.283-3.274,0.438-4.658c0.411-3.666,0.708-6.315-0.653-7.844
			c-1.244-1.397-3.966-2.031-8.827-2.054c-9.761-0.046-13.614-4.081-16.71-7.323C41.499,666.537,40.429,665.416,39.15,664.719
			L39.15,664.719z"/>
	</g>
	<g>
		
			<linearGradient id="SVGID_6_" gradientUnits="userSpaceOnUse" x1="-5266.5151" y1="703.6543" x2="-5225.606" y2="703.6543" gradientTransform="matrix(-1 0 0 1 -5189.7393 0)">
			<stop  offset="0" style="stop-color:#3076A1"/>
			<stop  offset="1" style="stop-color:#48C9B6"/>
		</linearGradient>
		<path fill="url(#SVGID_6_)" d="M75.626,736.575l1.15-0.061c-0.057-1.08-1.508-26.561-11.738-34.018
			c-11.224-8.182-14.762-16.973-16.447-22.875c-1.986-6.953-12.094-8.812-12.523-8.888l-0.201,1.135
			c0.098,0.018,9.828,1.811,11.615,8.07c1.732,6.064,5.366,15.099,16.877,23.489C74.151,710.565,75.612,736.316,75.626,736.575z"/>
	</g>
	<g>
		
			<linearGradient id="SVGID_7_" gradientUnits="userSpaceOnUse" x1="-5315.9663" y1="662.0977" x2="-5254.5337" y2="662.0977" gradientTransform="matrix(-1 0 0 1 -5189.7393 0)">
			<stop  offset="0" style="stop-color:#3076A1"/>
			<stop  offset="1" style="stop-color:#48C9B6"/>
		</linearGradient>
		<path fill="url(#SVGID_7_)" d="M73.678,742.306c-2.407-1.199-2.32-6.019-2.188-13.315c0.167-9.219,0.396-21.845-4.431-33.458
			c-5.126-12.337-0.555-15.943,3.868-19.431c4.953-3.905,9.63-7.594,0.653-24.244c-4.124-7.647-5.433-12.82-4.12-16.278
			c1.297-3.418,4.938-4.751,8.791-6.161c6.652-2.435,14.191-5.193,13.217-19.272c-0.299-4.315,0.208-6.97,1.597-8.353
			c1.508-1.501,3.73-1.339,6.303-1.15c3.887,0.284,8.291,0.605,12.126-4.399c0.398-1.25,4.066-12.412,8.453-14.323
			c0.921-0.401,1.824-0.396,2.684,0.015l0,0c3.029,1.449,4.786,3.167,5.373,5.251c1.021,3.629-1.636,7.72-4.713,12.458
			c-4.835,7.444-10.316,15.883-4.631,25.925c7.515,13.277,3.545,17.924-1.948,24.355c-3.147,3.684-6.714,7.859-9.1,14.671
			c-1.917,5.478,1.354,10.701,4.519,15.752c3.969,6.336,8.072,12.888-0.569,18.573c-14.287,9.399-28.397,40.082-28.538,40.392
			l-0.058,0.127l-0.111,0.087c-2.632,2.063-4.548,3.048-5.991,3.048C74.428,742.573,74.035,742.483,73.678,742.306z
			 M108.929,697.957c7.7-5.065,4.236-10.596,0.225-16.999c-3.155-5.036-6.73-10.743-4.629-16.744
			c2.457-7.016,6.098-11.278,9.311-15.039c5.382-6.301,8.939-10.463,1.821-23.039c-6.028-10.649-0.098-19.782,4.668-27.12
			c2.924-4.503,5.45-8.392,4.57-11.518c-0.492-1.747-2.05-3.227-4.761-4.524l0,0c-0.552-0.264-1.117-0.264-1.727,0.003
			c-4.07,1.771-7.807,13.589-7.844,13.709l-0.03,0.095l-0.061,0.08c-4.228,5.587-9.196,5.224-13.188,4.931
			c-2.386-0.175-4.27-0.313-5.406,0.818c-1.118,1.113-1.531,3.553-1.261,7.457c1.034,14.942-7.286,17.987-13.971,20.434
			c-3.756,1.375-7,2.562-8.11,5.488c-1.185,3.122,0.104,7.991,4.057,15.322c9.438,17.502,4.156,21.668-0.953,25.695
			c-4.273,3.371-8.309,6.554-3.518,18.084c4.919,11.836,4.688,24.602,4.52,33.922c-0.115,6.362-0.207,11.389,1.549,12.263
			c1.028,0.512,2.993-0.353,5.843-2.57C81.177,736.222,94.691,707.324,108.929,697.957z"/>
	</g>
	<linearGradient id="SVGID_8_" gradientUnits="userSpaceOnUse" x1="89.6489" y1="729.1563" x2="53.8813" y2="621.8531">
		<stop  offset="0" style="stop-color:#3076A1"/>
		<stop  offset="1" style="stop-color:#48C9B6"/>
	</linearGradient>
	<path fill="url(#SVGID_8_)" d="M51.126,608.57c7.272-2.494,5.761,11.521,8.833,21.891c3.073,10.369,34.181,4.523,21.123,30.49
		c-13.058,25.966,16.514,8.683,7.681,31.342c-8.833,22.66-0.768,46.894-10.37,40.729S73,698.324,63.015,694.934
		s-11.615-7.346-1.729-16.563s-25.906-18.368-17.073-36.979C53.047,622.78,42.726,611.45,51.126,608.57z"/>
	<g>
		<path fill="#FFFFFF" d="M75.048,731.534c0.915-3.879,8.724-38.016,1.437-42.142c-6.422-3.638-6.264-17.783-5.262-31.141
			c0.887-11.824-14.299-17.352-14.946-17.58l-0.385,1.085c0.15,0.054,15.003,5.464,14.183,16.409
			c-1.029,13.717-1.139,28.274,5.843,32.229c5.532,3.133,0.438,30.568-1.991,40.875L75.048,731.534z"/>
	</g>
	<linearGradient id="SVGID_9_" gradientUnits="userSpaceOnUse" x1="61.9761" y1="799.2344" x2="79.86" y2="722.1402">
		<stop  offset="0" style="stop-color:#C9C4C1"/>
		<stop  offset="1" style="stop-color:#FFF6DE"/>
	</linearGradient>
	<polygon fill="url(#SVGID_9_)" points="102.482,719.379 92.101,758.766 68.9,758.766 58.518,719.379 	"/>
	
		<linearGradient id="SVGID_10_" gradientUnits="userSpaceOnUse" x1="38.9844" y1="739.0723" x2="82.9482" y2="739.0723" gradientTransform="matrix(1 0 0 1 19.5337 0)">
		<stop  offset="0" style="stop-color:#C9C4C1"/>
		<stop  offset="1" style="stop-color:#FFF6DE"/>
	</linearGradient>
	<path fill="url(#SVGID_10_)" d="M102.482,719.379c0,0-22.854,4.291-22.854,39.387H68.9l-10.382-39.387H102.482z"/>
</g>
<linearGradient id="SVGID_11_" gradientUnits="userSpaceOnUse" x1="527.7749" y1="204.0742" x2="527.7749" y2="63.8923">
	<stop  offset="0" style="stop-color:#D1D7E0"/>
	<stop  offset="1" style="stop-color:#EBEBFF"/>
</linearGradient>
<path opacity="0.95" fill="url(#SVGID_11_)" d="M592.215,181.384H463.334c-11.795,0-21.357-9.562-21.357-21.357V48.197
	c0-11.795,9.563-21.357,21.357-21.357h128.881c11.796,0,21.358,9.563,21.358,21.357v111.83
	C613.574,171.822,604.011,181.384,592.215,181.384z"/>
<g>
	<rect x="520.319" y="152.155" fill="#4598E6" width="13.61" height="2.521"/>
</g>
<g>
	<g>
		<g>
			<g>
				<path fill="#344052" d="M539.431,13.305c0,0,10.965,6.021,7.484,20.827c-3.48,14.806-4.806,16.76-1.976,22.743
					c2.829,5.983,5.314,31.054,2.298,35.641c-3.018,4.586-33.604-22.373-37.003-43.939c-3.399-21.567,4.253-30.727,6.966-34.145
					S529.758,7.808,539.431,13.305z"/>
			</g>
		</g>
	</g>
	<g>
		<path fill="#EEA886" d="M560.02,135.675h-11.74c-0.566-5.791-1.092-9.821-0.983-10.418c0.172-0.985-11.684-32.081-12.789-34.653
			c-1.115-2.565-5.462-9.461-6.028-15.957c-0.574-6.495,7.896-9.118,7.896-9.118c11.431,2.048,15.302,17.861,15.302,17.861
			s4.801,32.066,7.229,41.09C559.532,126.794,559.869,130.883,560.02,135.675z"/>
	</g>
	<path fill="#EB4747" d="M554.111,91.114l-17.482,7.371c0,0-16.069-39.876-2.601-35.424C547.457,67.5,553.499,75.843,554.111,91.114
		z"/>
	<g>
		<path fill="#EB4747" d="M550.22,109.889c-0.51,3.959-2.602,17.983-2.133,21.77c0.078,0.625,0.337,2.063,0.725,4.017h-42.153
			c1.12-4.002,2.141-7.544,2.758-9.606c2.049-6.79,0.087-8.607-0.947-14.039c-0.401-2.127-1.818-6.165-3.362-10.728
			c-0.517-1.523-1.049-3.111-1.56-4.705c-1.854-5.749-2.716-11.625-3.247-15.046c-2.544-16.215,9.93-17.775,9.93-17.775
			c4.634-0.854,12.73-3.355,12.73-3.355l12.682,2.637c0,0,1.207,0.452,2.968,1.753c0,0,0.007,0,0.007,0.007
			c0.848,0.625,1.824,1.444,2.852,2.5c1.387,1.422,4.146,5.496,6.898,9.972c0.84,1.373,1.688,2.78,2.485,4.167
			c2.579,4.462,4.411,8.061,4.355,12.121C555.156,97.575,550.73,105.93,550.22,109.889z"/>
	</g>
	<path fill="#EEA886" d="M535.642,63.063c0,0,7.945,13.578,4.99,14.592c-2.954,1.013-18.525-2.415-24.609-15.243
		C516.023,62.412,526.245,57.766,535.642,63.063z"/>
	<path fill="#EEA886" d="M534.505,69.263c0,0-7.057,2.986-13.447-6.844c0,0,1.716-11.163-1.913-17.62
		c-3.632-6.455,15.867,7.74,15.867,7.74s-0.316,1.331-0.643,3.296c-0.167,1.006-0.34,2.175-0.472,3.417
		c-0.108,1.035-0.192,2.121-0.23,3.203C533.586,64.966,533.765,67.458,534.505,69.263z"/>
	<path fill="#393D63" d="M516.982,84.471c-1.454,7.473-11.876,16.833-11.876,16.833c-0.516-1.527-1.048-3.112-1.558-4.704
		C510.74,92.012,516.982,84.471,516.982,84.471z"/>
	<g>
		<path fill="#EEA886" d="M514.368,90.418c-0.661,2.724-3.7,30.306-3.37,31.247c0.194,0.539,1.667,6.92,3.141,14.011H500.53
			c-1.394-4.569-2.221-8.363-2.02-10.512c0.869-9.304-2.284-38.963-2.284-38.963s-2.824-17.941,12.063-20.183
			c0,0,8.795,1.158,9.327,7.652C518.148,80.172,515.029,87.702,514.368,90.418z"/>
	</g>
	<path fill="#EB4747" d="M495.126,94.229l18.477,4.315c0,0,14.655-28.456,1.455-33.651
		C501.146,59.417,491.792,78.706,495.126,94.229z"/>
	<g>
		<g>
			<g>
				<path fill="#EEA987" d="M537.724,14.884c0,0,16.058,5.892,5.88,33.601c-10.177,27.708-30.952-4.73-27.813-21.757
					C518.928,9.702,537.724,14.884,537.724,14.884z"/>
			</g>
		</g>
	</g>
	<g>
		<g>
			<g>
				<path fill="#344052" d="M546.065,31.726c0,0-8.474,7.565-22.073,7.917c0,0-3.18,7.748-3.692,10.125
					c0,0-13.437-23.069,2.012-34.722C537.759,3.394,551.77,26.894,546.065,31.726z"/>
			</g>
		</g>
	</g>
	<g>
		<g>
			<g>
				<path fill="#EEA987" d="M525.828,41.306c-0.007-2.052-1.048-6.77-4.152-5.61c-3.104,1.16-0.324,10.799,1.722,10.312
					C523.397,46.007,525.847,46.161,525.828,41.306z"/>
			</g>
		</g>
	</g>
	<path fill="#A77860" d="M533.687,61.981c-7.545-2.086-10.463-9.279-10.553-9.519c6.136,7.929,10.764,6.79,10.764,6.79
		C533.79,60.287,533.781,60.933,533.687,61.981z"/>
</g>
<g>
	<path fill="#4598E6" d="M568.561,54.808v2.464h14.512v13.621h2.466V54.808H568.561z M470.012,70.893h2.465V57.272h14.513v-2.464
		h-16.978V70.893z M583.073,141.171v13.625h-14.512v2.464h16.978v-16.089H583.073z M472.477,141.171h-2.465v16.089h16.978v-2.464
		h-14.513V141.171z"/>
</g>
<g>
	<rect x="293.167" y="267.62" fill="#4598E6" width="18.179" height="3.367"/>
</g>
<g>
	<path fill="#4598E6" d="M356.734,137.593v3.292h19.384v18.192h3.292v-21.484H356.734z M225.102,159.077h3.293v-18.192h19.383
		v-3.292h-22.676V159.077z M376.118,252.947v18.199h-19.384v3.292h22.676v-21.492H376.118z M228.395,252.947h-3.293v21.492h22.676
		v-3.292h-19.383V252.947z"/>
</g>
<g>
	<g>
		<path fill="#DECBC4" d="M708.322,390.527h-15.376c-0.281-0.615-0.509-1.15-0.697-1.579c-4.563-10.773-28.074-35.477-28.074-35.477
			s0,0.013,0,0.053c0,0-0.014,0.014-0.014,0.027c0,0,0,0.013,0,0.027c-0.013,0.04-0.027,0.066-0.04,0.106
			c-0.014,0.054-0.026,0.122-0.054,0.202c-0.014,0.04-0.026,0.093-0.026,0.134c-0.014,0.04-0.027,0.067-0.042,0.107
			c-0.962,3.6-5.7,21.532-8.068,36.399H551.883c-0.241-1.378-0.522-2.69-0.842-3.907c-0.952-3.694-1.594-7.347-2.009-10.759
			c-0.014-0.174-0.04-0.335-0.053-0.508c-0.08-0.629-0.148-1.258-0.202-1.874c-0.896-9.34-0.228-16.5-0.174-17.223
			c-0.294,0.629-2.394,8.337-5.151,17.852c-1.513,5.219-3.226,10.987-4.924,16.42h-24.571l30.833-88.952
			c0.683-0.535,8.686-4.402,14.52-7.186c5.955-2.837,13.143-6.999,19.633-10.559c3.318-1.82,6.449-3.467,9.166-4.711l0.415-0.187
			v-0.013c4.483-2.048,7.468-3.399,7.468-3.399s0,0,0.013,0c0.107-0.013,0.816-0.081,1.94-0.188
			c6.264-0.603,25.694-2.421,32.198-2.796c0.535-0.041,0.989-0.054,1.338-0.067c0.295-0.013,0.522-0.013,0.655,0
			c0.816,0.053,4.831,1.446,10.091,3.453c0.201,0.067,0.401,0.147,0.603,0.228c0.254,0.094,0.495,0.187,0.749,0.281
			c0.456,0.175,0.923,0.348,1.392,0.536c0.937,0.375,1.914,0.75,2.891,1.137c0.335,0.134,0.683,0.268,1.031,0.402
			c10.531,4.175,22.602,9.354,25.465,11.415c1.901,1.352,7.803,12.473,14.641,26.229
			C696.359,339.728,705.365,373.745,708.322,390.527z"/>
	</g>
	<g>
		<path fill="#EEA886" d="M631.969,269.444c-0.278,13.987-27.357,21.638-27.357,21.638s-11.328-14.201-8.621-15.561
			c1.061-0.535,1.493-2.654,1.625-5.031c0.122-2.262-0.021-4.758-0.153-6.343c-0.08-0.99-0.157-1.626-0.157-1.626
			s3.868-4.082,8.79-8.945c8.603-8.505,20.428-19.401,20.446-15.066c0.001,0.229-0.03,0.503-0.1,0.822
			C624.363,249.085,631.969,269.444,631.969,269.444z"/>
	</g>
	<g>
		<path fill="#A77860" d="M621.539,248.952c0,0,0,0-0.002,0.003c-0.053,0.081-1.202,1.8-3.162,4.266
			c-4.156,5.229-11.973,13.82-20.759,17.27c0.122-2.262-0.021-4.758-0.153-6.343c-0.9-0.023-1.799-0.127-2.689-0.324
			c2.408-4.208,5.887-8.622,5.887-8.622l5.436-1.625L621.539,248.952z"/>
	</g>
	<g>
		<path fill="#EEA886" d="M626.738,238.699c-2.343,5.096-4.568,8.79-5.199,10.253c0,0,0,0-0.002,0.003
			c-0.41,0.953-1.528,2.507-3.162,4.266c-4.463,4.808-12.758,11.148-20.912,10.927c-0.9-0.023-1.799-0.127-2.689-0.324
			c-3.293-0.72-7.182-2.25-9.321-6.438c-16.894-33.078-4.662-60.125-4.662-60.125s46.194-13.063,53.422,0.843
			C639.283,207.856,632.241,226.725,626.738,238.699z"/>
	</g>
	<g>
		<path fill="#E8734D" d="M580.79,197.26c0,0-4.291-0.237-5.352-8.372c-1.049-8.036,1.071-10.263,1.071-10.263
			s19.07-7.983,25.919-9.021c6.849-1.038,23.688-2.035,27.636,2.479c0,0,9.59-2.229,12.204,13.693
			c4.146,25.258-14.126,49.784-14.126,49.784s0.156-16.501-3.481-18.688c-3.64-2.187-6.78,3.013-6.78,3.013l-7.444,1.333
			c0,0,11.306-24.412-2.257-25.316C594.617,194.997,588.552,198.676,580.79,197.26z"/>
	</g>
	<g>
		<path fill="#EEA886" d="M618.085,213.307c0.707-7.27,13.854-10.045,12.973-2.426c-0.881,7.621-7.355,14.941-10.346,14.683
			S617.544,218.848,618.085,213.307z"/>
	</g>
	<g>
		<path fill="#3C4145" d="M695.034,316.831c-4.283-13.717-7.989-24.569-9.636-25.748c-2.878-2.061-25.68-8.337-36.506-12.579
			c-0.349-0.134-0.696-0.268-1.031-0.402c-0.977-0.388-1.954-0.763-2.891-1.137c-0.469-0.188-0.936-0.361-1.392-0.536
			c-0.254-0.094-0.495-0.187-0.749-0.281c-0.201-0.081-0.401-0.16-0.603-0.228c-0.014,0.013-0.026,0.04-0.053,0.053
			c-0.964,1.084-5.97,6.772-11.95,15.283c-11.188,15.898-25.762,41.659-23.527,65.439c0.723,7.628,1.607,18.588,3.091,30.886
			c0.107,0.977,0.229,1.953,0.362,2.944h50.478c0.616-12.874,1.713-29.829,3.371-36.399c0.015-0.04,0.028-0.067,0.042-0.107
			c0-0.041,0.013-0.094,0.026-0.134c0.013-0.067,0.04-0.134,0.054-0.202c0.013-0.04,0.027-0.066,0.04-0.106c0-0.014,0-0.027,0-0.027
			c0-0.014,0.014-0.027,0.014-0.027s12.217,19.097,12.847,37.002h31.77C707.238,373.893,702.379,340.371,695.034,316.831z"/>
	</g>
	<g>
		<path fill="#3C4145" d="M588.323,279.28c0,0-3.813,12.687-8.738,44.362c0,0,0,0,0,0.013c-0.174,1.058-0.335,2.142-0.508,3.252
			c-0.015,0.121-0.04,0.254-0.054,0.388c-0.121,0.723-0.229,1.472-0.335,2.223c-0.014,0.093-0.027,0.173-0.04,0.267
			c-0.08,0.495-0.16,1.003-0.229,1.525c-0.186,1.244-0.374,2.53-0.561,3.828c-1.848,12.927-4.311,33.469-6.813,55.389h-19.953
			c-1.083-6.089-2.101-11.629-2.021-15.43c-0.04,0.08-0.067,0.175-0.093,0.255c-1.593,4.416-3.347,9.22-5.126,13.89
			c-0.161,0.43-0.321,0.857-0.482,1.285H508.98l34.258-89.621c0.683-0.535,9.503-5.286,15.337-8.056
			c6.089-2.904,13.783-6.478,20.608-9.622c3.265-1.512,6.33-2.917,8.926-4.108L588.323,279.28z"/>
	</g>
	<g>
		<path fill="#51565C" d="M634.719,310.622l-13.181,7.44l5.633,5.742l-12.365,66.723h-4.656c-1.713-13.489-2.689-25.6-3.453-33.83
			c-3.439-36.775,33.255-78.246,35.53-80.775c1.767,0.669,3.667,1.405,5.634,2.181L634.719,310.622z"/>
	</g>
	<g>
		<path fill="#51565C" d="M588.524,278.933c0,0-4.925,16.072-10.652,56.206c-1.847,12.913-4.323,33.469-6.825,55.389h-1.939
			l-2.556-63.043l6.275-6.799l-5.581-6.972l11.938-30.485c3.265-1.512,6.33-2.917,8.926-4.108L588.524,278.933z"/>
	</g>
	<g>
		<path fill="#F5E2D9" d="M642.891,276.079l-10.922-6.634c0,0-0.307,5.991-27.357,21.638l7.682,21.637L642.891,276.079z"/>
	</g>
	<g>
		<path fill="#F5E2D9" d="M597.416,272.463c0,0,0.424,6.465,7.196,18.62l-14.995,19.545l-1.091-31.7L597.416,272.463z"/>
	</g>
	<g>
		<path fill="#D44040" d="M604.652,291.083c0,0,2.906,11.623,1.86,14.876c0,0-6.39,2.324-10.982-0.581
			C595.53,305.378,598.783,297.242,604.652,291.083z"/>
	</g>
	<g>
		<path fill="#D44040" d="M601.13,330.602c-3.065,20.876-3.065,41.994-1.927,59.925h-12.808c-0.174-2.529-0.334-5.165-0.495-7.922
			c-2.383-41.337,12.231-78.272,12.231-78.272l6.517-1.633C604.649,302.699,602.548,320.966,601.13,330.602z"/>
	</g>
	<g>
		<path fill="#2D3133" d="M549.487,356.361c-0.487,9.918-0.417,18.728-0.417,18.728s0,0.002,0,0.006
			c-0.003,0.048-0.012,0.317-0.033,0.76c-0.021-0.168-0.041-0.333-0.062-0.499c-1.588,4.415-3.346,9.215-5.119,13.886
			c-0.411-5.414-0.519-10.46-0.398-15.133c0.711-27.811,9.458-42.395,9.458-42.395C550.909,336.562,549.947,346.961,549.487,356.361
			z"/>
	</g>
</g>
<g>
	<g>
		<polygon fill="#292C47" points="418.378,440.646 377.46,463.139 336.37,398.474 386.07,381.209 		"/>
	</g>
	<g>
		<polygon fill="#FFFFFF" points="415.786,438.703 377.518,459.738 339.09,399.265 385.568,383.12 		"/>
	</g>
	<g>
		<path fill="#EEA886" d="M429.799,427.395c0,0-7.123-3.406-10.248-5.188c-3.127-1.78-11.169-4.225-11.816-4.805
			c-0.649-0.58-23.839-2.01-25.245-3.224s-2.773,2.843,3.236,4.16c6.01,1.315,14.373,4.535,14.83,6.884
			c0.458,2.349-6.172,2.904-6.844,4.84s0.188,1.502,1.138,1.916c0.951,0.416,7.887-3.427,10.938-2.336
			c3.05,1.09,7.712-0.42,10.051,0.381c2.337,0.801,13.704,4.625,13.704,4.625L429.799,427.395z"/>
	</g>
	<g>
		<path fill="#EEA886" d="M375.466,455.025c0,0-5.982-5.386-8.878-7.64c-2.895-2.251-8.329-8.878-9.129-9.265
			c-0.801-0.385-11.177-21.68-12.868-22.533c-1.691-0.853,1.6-3.721,5.18,1.43c3.581,5.151,9.871,11.778,12.262,11.295
			c2.393-0.483,0.335-6.948,1.896-8.334c1.562-1.387,1.487-0.406,2.248,0.326c0.762,0.734-0.157,8.767,2.059,11.217
			c2.214,2.449,2.607,7.432,4.271,9.322c1.664,1.892,9.695,11.114,9.695,11.114L375.466,455.025z"/>
	</g>
	<g>
		<path fill="#424773" d="M504.322,742.853c0,0,1.294,8.984,1.457,10.333c0.161,1.35,14.397-0.795,14.397-0.795l1.151-10.694
			C521.328,741.696,506.102,741.585,504.322,742.853z"/>
	</g>
	<g>
		<path fill="#292C47" d="M505.627,752.043c0,0-4.512,5.415-8.874,7.772c-4.362,2.36-11.219,3.295-13.798,5.737
			c-1.861,1.764-6.781,9.353,11.338,9.2c18.118-0.153,26.853,1.072,28.794-1.839c1.941-2.909-2.809-21.479-2.809-21.479
			S515.988,752.979,505.627,752.043z"/>
	</g>
	<g>
		<path fill="#424773" d="M402.32,742.853c0,0,1.294,8.984,1.456,10.333c0.162,1.35,14.398-0.795,14.398-0.795l1.151-10.694
			C419.326,741.696,404.1,741.585,402.32,742.853z"/>
	</g>
	<g>
		<path fill="#292C47" d="M403.625,752.043c0,0-4.512,5.415-8.874,7.772c-4.363,2.36-20.417,4.298-22.996,6.741
			c-1.862,1.763-4.959,8.859,20.534,8.196c18.113-0.473,26.854,1.072,28.796-1.839c1.941-2.909-2.809-21.479-2.809-21.479
			S414.234,753.084,403.625,752.043z"/>
	</g>
	<g>
		<path fill="#292C47" d="M492.534,512.016c0,0,13.376,21.253,12.378,40.463c-0.998,19.212,4.85,40.185,6.859,60.254
			c2.24,22.372,11.408,75.336,11.74,87.303c0.333,11.968-1.422,50.183-1.422,50.183l-18.353,0.419c0,0-15.412-92.595-19.403-102.043
			c-3.992-9.447-23.787-76.804-24.453-84.36C459.215,556.674,492.534,512.016,492.534,512.016z"/>
	</g>
	<g>
		<path fill="#292C47" d="M422.118,514.896c0,0-10.081,52.653-11.411,64.411s-2.219,56.9-2.883,64.249
			c-0.665,7.349-4.435,96.163-7.984,107.081h23.462c0,0,18.009-64.564,18.009-95.113c0-30.548,13.913-66.411,22.895-86.567
			c8.981-20.155,29.539-20.632,35.061-58.027C499.265,510.929,429.592,503.034,422.118,514.896z"/>
	</g>
	<g>
		<path fill="#EEA886" d="M470.211,333.338c0,0-17.953-6.707-26.231,6.96c-8.279,13.667-7.482,41.029,1.568,44.394
			c9.05,3.364,22.646,1.605,27.278-6.947c4.634-8.551,8.817-20.915,8.616-29.178C481.241,340.306,474.926,335.724,470.211,333.338z"
			/>
	</g>
	<g>
		<path fill="#EEA886" d="M447.499,385.318c0,0,0.746,4.848-0.488,7.235c-1.235,2.388,23.261,2.451,23.261,2.451
			s1.988-12.989,5.758-23.963C479.799,360.066,447.499,385.318,447.499,385.318z"/>
	</g>
	<g>
		<path fill="#3A3F47" d="M476.029,371.041c0,0-1.69,2.79-8.591,1.707c-6.902-1.082-15.32-10.264-18.203-11.271
			c-2.88-1.008-2.908-2.701-2.908-2.701l-1.804,2.636l-3.062,0.193c0,0,2.793-8.213-1.419-11.563
			c-4.211-3.35,4.37-26.584,26.503-18.849c0,0,16.999,4.686,16.381,14.353C482.308,355.213,479.833,366.226,476.029,371.041z"/>
	</g>
	<g>
		<path fill="#E2D2CA" d="M445.555,392.266c0,0,0.077-4.563,2.146-5c2.069-0.438,22.828-2.433,25.366-1.436v5.315
			C473.067,391.146,468.177,394.156,445.555,392.266z"/>
	</g>
	<g>
		<path fill="#EEA886" d="M446.784,355.259c0.387-1.621,4.512-6.256,6.09-1.293c1.578,4.961-2.387,11.635-4.598,11.064
			S445.802,359.37,446.784,355.259z"/>
	</g>
	<g>
		<path fill="#323657" d="M363.167,446.173c0.011-0.004,0.022-0.005,0.034-0.002C363.06,446.232,363.039,446.238,363.167,446.173z"
			/>
	</g>
	<g>
		<path fill="#FFDF69" d="M507.625,562.645c0,0-11.01,3.243-29.787,5.313c-18.776,2.069-65.691-0.748-65.986-2.966
			c-0.298-2.22,10.092-82.6,9.501-86.74c-0.592-4.14-0.909-18.89-0.909-18.89c-0.231,4.041-4.349,20.549-9.319,29.549
			c-1.794,3.251-7.819,13.442-10.723,11.125c-14.055-11.223-35.818-53.509-37.198-53.864c1.16-0.504,10.314-4.721,11.6-5.147
			c1.124-0.375,11.265,10.359,17.407,17.015c2.74,2.966,4.685,5.122,4.685,5.122c1.774-3.991,8.236-29.138,10.243-37.84
			c4.529-19.626,3.833-20.442,3.833-20.442c13.735-4.155,34.586-12.612,34.586-12.612l27.512-1.121c0,0,25.25,5.558,35.193,10.05
			c0.942,0.425,0.947,22.524,3.535,28.32l-8.244,17.393c0,0-4.762,34.453-5.751,49.777
			C497.348,503.719,507.625,562.645,507.625,562.645z"/>
	</g>
	<g>
		<path fill="#FFDF69" d="M512.939,458.207c-0.719,2.318-3.979,4.278-6.099,5.135c-1.356,0.549-2.876,0.726-4.405,0.442
			l-1.076-0.199v-0.001l-18.854-3.498c0,0-4.125-47.508,25.757-58.891C509.05,401.453,519.538,436.935,512.939,458.207z"/>
	</g>
	<g>
		<path fill="#AB9546" d="M506.84,463.34v0.002c-1.356,0.549-2.876,0.726-4.405,0.442l-1.076-0.199v-0.001l1.858-24.277
			L506.84,463.34z"/>
	</g>
	<g>
		<path fill="#AB9546" d="M396.894,463.16l-2.305,9.758c0,0-2.5-9.792-2.38-14.88C394.95,461.004,396.894,463.16,396.894,463.16z"/>
	</g>
	<g>
		<path fill="#3A3F47" d="M475.326,334.951c0,0,23.531-2.948,0.398,36.357L475.326,334.951z"/>
	</g>
	<g>
		<polygon fill="#292C47" points="355.285,395.004 352.894,390.895 371.733,384.395 374.125,388.481 		"/>
	</g>
</g>
<g opacity="0.95">
	<linearGradient id="SVGID_12_" gradientUnits="userSpaceOnUse" x1="721.9331" y1="164.6699" x2="739.3647" y2="164.6699">
		<stop  offset="0" style="stop-color:#D1D7E0"/>
		<stop  offset="1" style="stop-color:#EBEBFF"/>
	</linearGradient>
	<polygon fill="url(#SVGID_12_)" points="726.018,168.906 739.365,168.906 735.281,160.434 721.933,160.434 	"/>
	<linearGradient id="SVGID_13_" gradientUnits="userSpaceOnUse" x1="715.688" y1="164.6699" x2="722.9526" y2="164.6699">
		<stop  offset="0" style="stop-color:#D1D7E0"/>
		<stop  offset="1" style="stop-color:#EBEBFF"/>
	</linearGradient>
	<polygon fill="url(#SVGID_13_)" points="719.773,168.906 722.953,168.906 718.869,160.434 715.688,160.434 	"/>
	<linearGradient id="SVGID_14_" gradientUnits="userSpaceOnUse" x1="671.8657" y1="156.6973" x2="727.7036" y2="156.6973">
		<stop  offset="0" style="stop-color:#D1D7E0"/>
		<stop  offset="1" style="stop-color:#EBEBFF"/>
	</linearGradient>
	<polygon fill="url(#SVGID_14_)" points="673.66,158.815 727.704,158.815 725.91,154.579 671.866,154.579 	"/>
</g>
<g>
	<g>
		<linearGradient id="SVGID_15_" gradientUnits="userSpaceOnUse" x1="361.7632" y1="20.2705" x2="384.6646" y2="20.2705">
			<stop  offset="0" style="stop-color:#D1D7E0"/>
			<stop  offset="1" style="stop-color:#EBEBFF"/>
		</linearGradient>
		<path fill="url(#SVGID_15_)" d="M383.416,23.721H363.01c-0.689,0-1.247-0.558-1.247-1.248v-4.407c0-0.689,0.558-1.247,1.247-1.247
			h20.405c0.69,0,1.249,0.558,1.249,1.247v4.407C384.665,23.164,384.106,23.721,383.416,23.721z"/>
	</g>
	<g>
		<linearGradient id="SVGID_16_" gradientUnits="userSpaceOnUse" x1="361.7632" y1="36.8203" x2="384.6646" y2="36.8203">
			<stop  offset="0" style="stop-color:#D1D7E0"/>
			<stop  offset="1" style="stop-color:#EBEBFF"/>
		</linearGradient>
		<path fill="url(#SVGID_16_)" d="M383.416,40.271H363.01c-0.689,0-1.247-0.558-1.247-1.247v-4.407c0-0.689,0.558-1.248,1.247-1.248
			h20.405c0.69,0,1.249,0.558,1.249,1.248v4.407C384.665,39.713,384.106,40.271,383.416,40.271z"/>
	</g>
	<g>
		<linearGradient id="SVGID_17_" gradientUnits="userSpaceOnUse" x1="361.7632" y1="53.3706" x2="384.6646" y2="53.3706">
			<stop  offset="0" style="stop-color:#D1D7E0"/>
			<stop  offset="1" style="stop-color:#EBEBFF"/>
		</linearGradient>
		<path fill="url(#SVGID_17_)" d="M383.416,56.822H363.01c-0.689,0-1.247-0.559-1.247-1.248v-4.407c0-0.689,0.558-1.248,1.247-1.248
			h20.405c0.69,0,1.249,0.559,1.249,1.248v4.407C384.665,56.263,384.106,56.822,383.416,56.822z"/>
	</g>
	<g>
		<linearGradient id="SVGID_18_" gradientUnits="userSpaceOnUse" x1="394.1206" y1="20.2705" x2="400.6362" y2="20.2705">
			<stop  offset="0" style="stop-color:#D1D7E0"/>
			<stop  offset="1" style="stop-color:#EBEBFF"/>
		</linearGradient>
		<path fill="url(#SVGID_18_)" d="M399.389,23.721h-4.021c-0.689,0-1.247-0.558-1.247-1.248v-4.407c0-0.689,0.558-1.247,1.247-1.247
			h4.021c0.688,0,1.247,0.558,1.247,1.247v4.407C400.636,23.164,400.078,23.721,399.389,23.721z"/>
	</g>
	<g>
		<linearGradient id="SVGID_19_" gradientUnits="userSpaceOnUse" x1="394.1206" y1="36.8203" x2="400.6362" y2="36.8203">
			<stop  offset="0" style="stop-color:#D1D7E0"/>
			<stop  offset="1" style="stop-color:#EBEBFF"/>
		</linearGradient>
		<path fill="url(#SVGID_19_)" d="M399.389,40.271h-4.021c-0.689,0-1.247-0.558-1.247-1.247v-4.407c0-0.689,0.558-1.248,1.247-1.248
			h4.021c0.688,0,1.247,0.558,1.247,1.248v4.407C400.636,39.713,400.078,40.271,399.389,40.271z"/>
	</g>
	<g>
		<linearGradient id="SVGID_20_" gradientUnits="userSpaceOnUse" x1="394.1206" y1="53.3706" x2="400.6362" y2="53.3706">
			<stop  offset="0" style="stop-color:#D1D7E0"/>
			<stop  offset="1" style="stop-color:#EBEBFF"/>
		</linearGradient>
		<path fill="url(#SVGID_20_)" d="M399.389,56.822h-4.021c-0.689,0-1.247-0.559-1.247-1.248v-4.407c0-0.689,0.558-1.248,1.247-1.248
			h4.021c0.688,0,1.247,0.559,1.247,1.248v4.407C400.636,56.263,400.078,56.822,399.389,56.822z"/>
	</g>
</g>
<g>
	<linearGradient id="SVGID_21_" gradientUnits="userSpaceOnUse" x1="303.3882" y1="388.8428" x2="334.6802" y2="388.8428">
		<stop  offset="0" style="stop-color:#D1D7E0"/>
		<stop  offset="1" style="stop-color:#EBEBFF"/>
	</linearGradient>
	<polygon fill="url(#SVGID_21_)" points="310.722,396.448 334.68,396.448 327.346,381.238 303.388,381.238 	"/>
	<linearGradient id="SVGID_22_" gradientUnits="userSpaceOnUse" x1="292.1782" y1="388.8428" x2="305.2202" y2="388.8428">
		<stop  offset="0" style="stop-color:#D1D7E0"/>
		<stop  offset="1" style="stop-color:#EBEBFF"/>
	</linearGradient>
	<polygon fill="url(#SVGID_22_)" points="299.511,396.448 305.22,396.448 297.887,381.238 292.178,381.238 	"/>
</g>
</svg>
