<?xml version="1.0" encoding="utf-8"?>
<!-- Generator: Adobe Illustrator 16.0.0, SVG Export Plug-In . SVG Version: 6.00 Build 0)  -->
<!DOCTYPE svg PUBLIC "-//W3C//DTD SVG 1.1//EN" "http://www.w3.org/Graphics/SVG/1.1/DTD/svg11.dtd">
<svg version="1.1" id="Layer_1" xmlns="http://www.w3.org/2000/svg" xmlns:xlink="http://www.w3.org/1999/xlink" x="0px" y="0px"
	 width="1025px" height="725px" viewBox="0 0 1025 725" enable-background="new 0 0 1025 725" xml:space="preserve">
<g>
	
		<path fill="none" stroke="#0C5AE5" stroke-width="0.6158" stroke-linecap="round" stroke-linejoin="round" stroke-miterlimit="10" stroke-dasharray="6.1575,3.0788" d="
		M337.124,220.959c0,0-27.632,49.552-76.734,46.437"/>
	
		<circle fill="none" stroke="#0C5AE5" stroke-width="0.6158" stroke-linecap="round" stroke-linejoin="round" stroke-miterlimit="10" stroke-dasharray="6.1575,3.0788" cx="392.254" cy="148.403" r="77.271"/>
	<g>
		<g>
			<circle fill="#D4E6FC" cx="702.913" cy="255.108" r="197.891"/>
			<g>
				<path fill="#FFFFFF" d="M784.037,145.639c1.715,2.654,4.345,4.576,6.441,6.944c5.201,5.878,6.753,14.701,3.863,21.98
					c-0.897,2.255-2.199,4.449-2.24,6.874c-0.104,6.083,7.253,9.301,13.348,9.96c6.095,0.661,13.281,0.918,16.7,5.968
					c3.861,5.701-0.403,13.981-6.694,16.852c-6.288,2.869-13.589,1.925-20.438,0.922c-18.909-2.769-42.271-3.69-52.66,12.23
					c-7.472,11.448-4.355,26.574,0.077,39.488c0.784,2.285,1.659,4.647,3.419,6.313c2.298,2.178,5.637,2.753,8.653,3.745
					c19.465,6.398,26.165,31.221,22.49,51.241c-3.672,20.018-14.395,38.27-17.831,58.331c29.042-6.784,51.776-28.628,72.244-50.168
					c10.508-11.055,21.472-23.802,21.499-38.999c0.019-10.913-5.727-21.028-7.301-31.832c-1.577-10.803,3.978-24.532,14.974-24.834
					c4.106-0.113,8.599,1.667,12.099-0.469c2.635-1.608,3.635-4.87,4.301-7.866c7.447-33.465-3.059-69.566-25.01-95.636
					c-8.918-10.593-25.416-28.348-40.669-27.37C797.513,110.199,774.647,131.078,784.037,145.639z"/>
				<path fill="#FFFFFF" d="M833.737,364.046c-1.217,4.353-2.43,8.708-3.644,13.06c-0.904,3.244-1.299,7.669,1.792,9.053
					c2.441,1.093,5.172-0.734,7.017-2.66c7.404-7.721,10.903-18.961,9.177-29.479c-1.328-4.25-7.663-5.263-11.139-2.447
					c-3.473,2.813-4.264,7.91-3.242,12.248"/>
				<path fill="#FFFFFF" d="M583.583,371.097c-7.681-18.74-4.46-39.835-3.297-60.034c1.164-20.198-0.843-42.757-15.708-56.602
					c-11.73-10.929-29.706-14.519-39.164-27.438c-7.672-10.48-7.735-24.989-3.365-37.193c4.368-12.207,12.578-22.625,20.729-32.743
					c10.209-12.674,20.745-25.449,34.308-34.515c13.561-9.066,30.803-14.049,46.512-9.544
					c-6.323,10.975-22.351,12.305-30.584,21.955c-9.061,10.617-3.168,29.814,10.317,33.615c3.038,0.857,6.307,1.02,9.364,0.224
					c5.589-1.455,9.821-5.828,14.289-9.467c7.321-5.967,16.598-10.436,26.005-9.306c9.403,1.13,18.233,9.449,17.289,18.803
					c-0.523,5.167-3.721,9.639-6.932,13.738c-9.352,11.942-19.763,23.069-31.066,33.211c-8.672,7.778-17.954,15.07-24.933,24.376
					c-6.977,9.308-11.484,21.216-8.959,32.54c10.374-12.403,27.431-18.951,43.517-16.702c16.088,2.251,30.656,13.217,37.172,27.987
					c2.587,5.858,5.475,13.431,11.913,13.703c5.356,6.1,2.515,16.24-3.688,21.492c-6.205,5.246-14.598,6.933-22.564,8.649
					c-7.965,1.716-16.356,3.896-21.976,9.755c-6.167,6.435-7.652,15.864-8.849,24.666c-1.549,11.402-3.034,23.395,1.193,34.111
					c1.456,3.685,3.566,7.157,4.332,11.043c4.134,21.031-18.47,3.948-24.249-0.559C602.365,396.872,589.903,386.52,583.583,371.097z
					"/>
				<path fill="#FFFFFF" d="M654.653,96.484c3.148-0.122,6.376-0.233,9.378,0.716c7.01,2.213,11.045,9.617,12.5,16.771
					c1.455,7.154,1.066,14.61,2.854,21.69c1.278,5.07,4.336,10.402,9.481,11.513c5.672,1.224,11.163-3.433,13.361-8.765
					c2.193-5.333,2.097-11.274,2.939-16.972c2.999-20.255,19.332-37.909,39.411-42.598c-2.817-6.116-9.06-10.136-15.593-11.928
					c-18.408-5.048-38.353-2.805-56.586,1.895c-9.34,2.409-18.49,5.599-27.322,9.47c-5.123,2.244-18.712,6.667-20.761,12.324
					C620.72,100.527,648.627,96.716,654.653,96.484z"/>
				<path fill="#FFFFFF" d="M741.037,125.998c-2.728-2.483-7.665,0.416-7.879,4.082c-0.216,3.666,2.807,6.831,6.18,8.342
					c3.37,1.512,7.143,1.844,10.709,2.823c1.521,0.418,3.133,0.958,4.639,0.489c2.593-0.807,3.419-4.097,3.123-6.777
					c-0.295-2.681-1.265-5.403-0.562-8.009c-3.446-2.024-7.498-3.023-11.5-2.832"/>
			</g>
		</g>
		<g>
			<path fill="#0C5AE5" d="M720.819,12.16c-5.734-5.125-13.339-8.331-21.949-8.331c-8.587,0-16.215,3.206-21.947,8.331
				c-11.748,10.529-13.76,28.219-5.569,41.698L698.87,99.16l27.541-45.301C734.601,40.379,732.591,22.689,720.819,12.16z
				 M699.408,54.092c-8.494,0-15.372-6.902-15.372-15.397c0-8.494,6.878-15.396,15.372-15.396c8.52,0,15.396,6.902,15.396,15.396
				C714.805,47.19,707.928,54.092,699.408,54.092z"/>
		</g>
		<g>
			<path fill="#0C5AE5" d="M579.851,169.61c-3.879-3.466-9.025-5.635-14.852-5.635c-5.808,0-10.971,2.169-14.849,5.635
				c-7.947,7.125-9.309,19.093-3.769,28.212l18.617,30.65l18.636-30.65C589.176,188.704,587.813,176.735,579.851,169.61z
				 M565.365,197.981c-5.748,0-10.402-4.67-10.402-10.417s4.654-10.417,10.402-10.417c5.762,0,10.417,4.67,10.417,10.417
				S571.127,197.981,565.365,197.981z"/>
		</g>
	</g>
	<g>
		
			<path fill="#FFFFFF" stroke="#0C5AE5" stroke-width="0.6071" stroke-linecap="round" stroke-linejoin="round" stroke-miterlimit="10" d="
			M22.286,378.885c-8.59,22.32-31.098,46.101-8.005,71.367c15.932,17.425,42.616,20.15,37.243,49.52
			c-2.129,11.644-8.299,21.188-3.99,33.188c3.743,10.432,13.57,17.544,22.216,23.733c7.434,5.32,18.649,9.645,24.673,16.658
			c9.837,11.449,3.505,22.308,1.915,35.563c-1.513,12.61,0.13,26.017,8.663,36.163c11.286,13.421,28.8,12.089,41.978,21.095
			c0,0,57.93,25.552,68.958-41.08c2.605-15.744,7.866-30.638,1.438-46.954c-4.859-12.336-15.866-20.165-27.675-24.841
			c-12.414-4.912-24.977-4.514-30.36-18.615c-3.297-8.637-1.763-20.561-2.9-29.629c-1.325-10.551-2.899-22.577-10.29-30.838
			c-8.503-9.503-19.831-8.621-31.083-12.295c-28.386-9.259-18.073-34.021-25.815-56.327c-11.219-32.339-42.849-23.868-66.565-26.944
			L22.286,378.885z"/>
		
			<line fill="#FFFFFF" stroke="#0C5AE5" stroke-width="0.6071" stroke-linecap="round" stroke-linejoin="round" stroke-miterlimit="10" x1="51.737" y1="427.873" x2="193.96" y2="666.621"/>
		
			<line fill="#FFFFFF" stroke="#0C5AE5" stroke-width="0.6071" stroke-linecap="round" stroke-linejoin="round" stroke-miterlimit="10" x1="70.564" y1="515.49" x2="113.972" y2="532.344"/>
		
			<line fill="#FFFFFF" stroke="#0C5AE5" stroke-width="0.6071" stroke-linecap="round" stroke-linejoin="round" stroke-miterlimit="10" x1="167.467" y1="622.146" x2="183.031" y2="583.298"/>
		
			<line fill="#FFFFFF" stroke="#0C5AE5" stroke-width="0.6071" stroke-linecap="round" stroke-linejoin="round" stroke-miterlimit="10" x1="95.193" y1="500.821" x2="100.412" y2="467.011"/>
	</g>
	
		<line fill="none" stroke="#0C5AE5" stroke-width="0.6071" stroke-linecap="round" stroke-linejoin="round" stroke-miterlimit="10" x1="1024.296" y1="675.298" x2="627.347" y2="675.298"/>
	
		<line fill="none" stroke="#0C5AE5" stroke-width="0.6071" stroke-linecap="round" stroke-linejoin="round" stroke-miterlimit="10" x1="57.002" y1="675.298" x2="303.156" y2="675.298"/>
	<g>
		<polygon fill="#0C5AE5" points="154.088,722 180.602,694.723 203.001,694.723 203.001,722 		"/>
		<polygon fill="#0C5AE5" points="299.938,722 282.779,694.723 260.381,694.723 260.381,722 		"/>
		
			<polygon fill="#FFFFFF" stroke="#0C5AE5" stroke-width="0.607" stroke-linecap="round" stroke-linejoin="round" stroke-miterlimit="10" points="
			313.053,459.551 313.053,701.948 244.35,701.948 244.35,506.702 235.402,506.702 222.804,701.948 154.088,701.948 
			166.686,506.702 169.889,459.551 		"/>
		<polygon fill="#D4E6FC" points="156.547,457.692 326.398,457.692 326.398,356.903 156.547,382.285 		"/>
		<path fill="#D4E6FC" d="M345.789,336.227c0-56.586-43.339-81.827-99.91-83.177c-1.157-0.027-2.327-0.041-3.51-0.041
			c-85.105,0-111.953,61.86-115.986,72.537c-8.979,23.767-34.24,98.298,47.153,132.772c24.494,10.375,41.982-14.785,55.063-21.511
			c22.794-11.73,31.006-14.665,31.006-14.665L345.789,336.227z"/>
		<path fill="#D4E6FC" d="M308.087,364.418c0,0,9.088,41.39,59.84,32.453c50.753-8.935,35.909-108.524,35.909-108.524h-39.261
			l-1.437,57.457c0,0-20.827-53.984-46.909-72.484C300.317,262.038,308.087,364.418,308.087,364.418z"/>
		
			<line fill="none" stroke="#FFFFFF" stroke-width="0.6138" stroke-linecap="round" stroke-linejoin="round" stroke-miterlimit="10" x1="325.792" y1="348.196" x2="325.792" y2="391.154"/>
		<g>
			
				<polygon fill="#FFFFFF" stroke="#0C5AE5" stroke-width="0.6071" stroke-linecap="round" stroke-linejoin="round" stroke-miterlimit="10" points="
				208.177,449.087 222.463,463.458 233.966,477.061 229.129,481.906 233.382,487.5 209.534,506.023 178.543,468.786 			"/>
			
				<line fill="none" stroke="#0C5AE5" stroke-width="0.6138" stroke-linecap="round" stroke-linejoin="round" stroke-miterlimit="10" x1="228.421" y1="491.077" x2="218.167" y2="479.39"/>
			
				<line fill="none" stroke="#0C5AE5" stroke-width="0.6138" stroke-linecap="round" stroke-linejoin="round" stroke-miterlimit="10" x1="221.7" y1="495.679" x2="211.447" y2="483.992"/>
			
				<line fill="none" stroke="#0C5AE5" stroke-width="0.6138" stroke-linecap="round" stroke-linejoin="round" stroke-miterlimit="10" x1="215.384" y1="500.736" x2="205.131" y2="489.047"/>
			
				<line fill="none" stroke="#0C5AE5" stroke-width="0.6138" stroke-linecap="round" stroke-linejoin="round" stroke-miterlimit="10" x1="229.264" y1="482.147" x2="221.7" y2="473.413"/>
		</g>
		
			<path fill="#D4E6FC" stroke="#0C5AE5" stroke-width="0.6218" stroke-linecap="round" stroke-linejoin="round" stroke-miterlimit="10" d="
			M169.946,350.352c-21.546,45.962,44.482,96.596,44.482,96.596l-39.51,29.446c0,0-55.418-44.92-58.145-75.318"/>
		<path fill="#0C5AE5" d="M237.604,227.832c0,0-25.143,6.517-26.647-24.065c-1.505-30.581,47.578-41.598,59.132-28.82
			C281.644,187.725,237.604,227.832,237.604,227.832z"/>
		
			<path fill="#FFFFFF" stroke="#0C5AE5" stroke-width="0.6071" stroke-linecap="round" stroke-linejoin="round" stroke-miterlimit="10" d="
			M239.958,269.615L239.958,269.615c8.569,0,15.514-6.944,15.514-15.513v-50.417h-31.025v50.417
			C224.447,262.671,231.391,269.615,239.958,269.615z"/>
		
			<path fill="#FFFFFF" stroke="#0C5AE5" stroke-width="0.6071" stroke-linecap="round" stroke-linejoin="round" stroke-miterlimit="10" d="
			M213.546,206.21c-0.378,4.741,3.16,8.899,7.902,9.279c0.733,0.059,1.463,0.025,2.152-0.104c0.338,3.162,1.328,6.149,2.838,8.816
			c3.628,6.407,10.272,10.958,18.164,11.59c12.658,1.016,23.731-8.414,24.749-21.07c1.015-12.657-8.414-23.731-21.071-24.747
			c-8.58-0.687-16.438,3.42-20.902,10.094c-1.271-0.989-2.833-1.622-4.553-1.761C218.085,197.928,213.929,201.467,213.546,206.21z"
			/>
		<g>
			<rect x="322.566" y="288.475" fill="#0C5AE5" width="284.733" height="386.824"/>
			<g>
				
					<circle fill="none" stroke="#FFFFFF" stroke-width="0.6218" stroke-linecap="round" stroke-linejoin="round" stroke-miterlimit="10" cx="464.988" cy="413.196" r="69.548"/>
				
					<line fill="none" stroke="#FFFFFF" stroke-width="0.6218" stroke-linecap="round" stroke-linejoin="round" stroke-miterlimit="10" x1="464.988" y1="343.647" x2="464.988" y2="482.743"/>
				
					<line fill="none" stroke="#FFFFFF" stroke-width="0.6218" stroke-linecap="round" stroke-linejoin="round" stroke-miterlimit="10" x1="395.44" y1="413.196" x2="534.536" y2="413.196"/>
				
					<path fill="none" stroke="#FFFFFF" stroke-width="0.6218" stroke-linecap="round" stroke-linejoin="round" stroke-miterlimit="10" d="
					M398.759,391.648c0,0,18.608-17.97,66.229-17.97c47.624,0,66.232,17.97,66.232,17.97"/>
				
					<path fill="none" stroke="#FFFFFF" stroke-width="0.6218" stroke-linecap="round" stroke-linejoin="round" stroke-miterlimit="10" d="
					M531.221,434.579c0,0-18.608,17.972-66.232,17.972c-47.622,0-66.229-17.972-66.229-17.972"/>
				
					<path fill="none" stroke="#FFFFFF" stroke-width="0.6218" stroke-linecap="round" stroke-linejoin="round" stroke-miterlimit="10" d="
					M486.453,346.882c0,0,17.972,18.608,17.972,66.231c0,47.622-17.972,66.229-17.972,66.229"/>
				
					<path fill="none" stroke="#FFFFFF" stroke-width="0.6218" stroke-linecap="round" stroke-linejoin="round" stroke-miterlimit="10" d="
					M443.524,479.343c0,0-17.971-18.607-17.971-66.229c0-47.623,17.971-66.231,17.971-66.231"/>
			</g>
			
				<text transform="matrix(1 0 0 1 366.9033 586.0737)" fill="#FFFFFF" font-family="'Raleway-Light'" font-size="40.6821" letter-spacing="2">PASSPORT</text>
		</g>
		
			<path fill="none" stroke="#0C5AE5" stroke-width="0.6138" stroke-linecap="round" stroke-linejoin="round" stroke-miterlimit="10" d="
			M226.337,210.573c0,0,0.075-4.36-4.239-4.117"/>
		<g>
			
				<polygon fill="#FFFFFF" stroke="#0C5AE5" stroke-width="0.6071" stroke-linecap="round" stroke-linejoin="round" stroke-miterlimit="10" points="
				372.191,272.851 372.452,296.964 402.629,296.806 403.255,273.08 			"/>
			
				<line fill="none" stroke="#0C5AE5" stroke-width="0.6138" stroke-linecap="round" stroke-linejoin="round" stroke-miterlimit="10" x1="378.551" y1="296.539" x2="378.953" y2="280.998"/>
			
				<line fill="none" stroke="#0C5AE5" stroke-width="0.6138" stroke-linecap="round" stroke-linejoin="round" stroke-miterlimit="10" x1="386.661" y1="295.778" x2="387.063" y2="280.234"/>
			
				<line fill="none" stroke="#0C5AE5" stroke-width="0.6138" stroke-linecap="round" stroke-linejoin="round" stroke-miterlimit="10" x1="394.75" y1="295.623" x2="395.153" y2="280.079"/>
		</g>
	</g>
	<g>
		<g>
			
				<polygon fill="#FFFFFF" stroke="#0C5AE5" stroke-width="0.6071" stroke-linecap="round" stroke-linejoin="round" stroke-miterlimit="10" points="
				722.373,382.338 704.133,391.168 693.222,396.293 696.787,403.543 685.871,410.24 702.241,435.615 743.813,410.738 			"/>
			
				<line fill="none" stroke="#0C5AE5" stroke-width="0.6138" stroke-linecap="round" stroke-linejoin="round" stroke-miterlimit="10" x1="689.368" y1="415.257" x2="702.912" y2="407.626"/>
			
				<line fill="none" stroke="#0C5AE5" stroke-width="0.6138" stroke-linecap="round" stroke-linejoin="round" stroke-miterlimit="10" x1="694.188" y1="421.826" x2="707.73" y2="414.193"/>
			
				<line fill="none" stroke="#0C5AE5" stroke-width="0.6138" stroke-linecap="round" stroke-linejoin="round" stroke-miterlimit="10" x1="698.471" y1="428.687" x2="712.015" y2="421.055"/>
			
				<line fill="none" stroke="#0C5AE5" stroke-width="0.6138" stroke-linecap="round" stroke-linejoin="round" stroke-miterlimit="10" x1="691.529" y1="406.553" x2="701.559" y2="400.815"/>
		</g>
		<path fill="#0C5AE5" d="M795.582,320.25c-12.562,37.569-78.494,55.38-78.494,55.38l5.285,6.709l22.248,34.158
			c0,0,55.586-11.975,82.813-46.328L795.582,320.25z"/>
		<polygon fill="#0C5AE5" points="908.144,720.81 934.658,693.533 957.055,693.533 957.055,720.81 		"/>
		<polygon fill="#0C5AE5" points="831.741,720.81 857.52,693.533 879.92,693.533 879.92,720.81 		"/>
		<polygon fill="#D4E6FC" points="827.247,456.001 827.247,700.759 895.949,700.759 895.949,505.512 904.897,505.512 
			907.439,700.759 976.154,700.759 973.614,505.512 973.282,456.001 		"/>
		<polygon fill="#0C5AE5" points="983.752,456.504 820.064,456.504 820.064,355.711 983.752,381.095 		"/>
		<path fill="#0C5AE5" d="M794.51,335.039c0-56.586,43.34-81.828,99.91-83.178c1.157-0.027,2.326-0.041,3.508-0.041
			c43.973,0,90.139,22.551,99.054,68.912c4.466,23.221,6.194,49.804-3.245,72.1c-10.338,24.421-32.687,40.355-56.438,50.414
			c-24.493,10.373-12.518-0.899-25.599-7.631c-22.793-11.727-31.008-14.663-31.008-14.663L794.51,335.039z"/>
		<path fill="#0C5AE5" d="M853.439,186.028c-2.935,10.623,1.815,23.792,10.364,30.271c20.847,15.797,59.483,7.171,51.119-25.28
			c-3.791-14.714-21.08-22.689-35.183-22.597c-8.759,0.056-17.714,3.729-22.969,10.736
			C855.212,181.234,854.121,183.562,853.439,186.028z"/>
		
			<path fill="#FFFFFF" stroke="#0C5AE5" stroke-width="0.6071" stroke-linecap="round" stroke-linejoin="round" stroke-miterlimit="10" d="
			M884.59,267.14L884.59,267.14c-8.567,0-15.511-6.944-15.511-15.511v-50.418h31.024v50.418
			C900.104,260.196,893.159,267.14,884.59,267.14z"/>
		
			<path fill="#FFFFFF" stroke="#0C5AE5" stroke-width="0.6071" stroke-linecap="round" stroke-linejoin="round" stroke-miterlimit="10" d="
			M911.004,203.736c0.379,4.742-3.161,8.9-7.902,9.28c-0.733,0.059-1.463,0.025-2.152-0.104c-0.339,3.161-1.328,6.15-2.838,8.816
			c-3.629,6.407-10.272,10.957-18.164,11.589c-12.658,1.016-23.732-8.414-24.749-21.069c-1.014-12.658,8.414-23.732,21.072-24.747
			c8.578-0.688,16.437,3.419,20.902,10.093c1.27-0.99,2.832-1.624,4.55-1.76C906.465,195.456,910.623,198.995,911.004,203.736z"/>
		
			<path fill="none" stroke="#0C5AE5" stroke-width="0.6138" stroke-linecap="round" stroke-linejoin="round" stroke-miterlimit="10" d="
			M898.213,208.1c0,0-0.075-4.361,4.239-4.118"/>
		<g>
			
				<rect x="614.233" y="418.361" transform="matrix(0.9666 0.2563 -0.2563 0.9666 154.9632 -182.9269)" fill="#FFFFFF" stroke="#0C5AE5" stroke-width="0.6071" stroke-linecap="round" stroke-linejoin="round" stroke-miterlimit="10" width="329.936" height="169.249"/>
			
				<rect x="632.685" y="420.765" transform="matrix(0.9666 0.2563 -0.2563 0.9666 137.7411 -189.9775)" fill="#D4E6FC" stroke="#0C5AE5" stroke-width="0.607" stroke-linecap="round" stroke-linejoin="round" stroke-miterlimit="10" width="329.936" height="25.285"/>
			
				<line fill="#FFFFFF" stroke="#0C5AE5" stroke-width="0.6158" stroke-linecap="round" stroke-linejoin="round" stroke-miterlimit="10" x1="640.883" y1="463.863" x2="718.411" y2="484.421"/>
			
				<line fill="#FFFFFF" stroke="#0C5AE5" stroke-width="0.6158" stroke-linecap="round" stroke-linejoin="round" stroke-miterlimit="10" x1="636.499" y1="480.4" x2="675.261" y2="490.681"/>
			
				<line fill="#FFFFFF" stroke="#0C5AE5" stroke-width="0.6158" stroke-linecap="round" stroke-linejoin="round" stroke-miterlimit="10" x1="730.929" y1="505.443" x2="769.692" y2="515.721"/>
			
				<line fill="#FFFFFF" stroke="#0C5AE5" stroke-width="0.6158" stroke-linecap="round" stroke-linejoin="round" stroke-miterlimit="10" x1="735.314" y1="488.906" x2="812.842" y2="509.464"/>
			
				<line fill="#FFFFFF" stroke="#0C5AE5" stroke-width="0.6158" stroke-linecap="round" stroke-linejoin="round" stroke-miterlimit="10" x1="627.347" y1="514.913" x2="799.302" y2="560.514"/>
			
				<line fill="#FFFFFF" stroke="#0C5AE5" stroke-width="0.6158" stroke-linecap="round" stroke-linejoin="round" stroke-miterlimit="10" x1="623.448" y1="529.616" x2="779.333" y2="570.955"/>
			
				<line fill="none" stroke="#0C5AE5" stroke-width="0.6218" stroke-linecap="round" stroke-linejoin="round" stroke-miterlimit="10" stroke-dasharray="6.2178,3.1089" x1="857.438" y1="436.185" x2="814.055" y2="599.777"/>
			<g>
				
					<rect x="649.008" y="418.897" transform="matrix(0.9666 0.2563 -0.2563 0.9666 132.8388 -152.413)" fill="#0C5AE5" width="4.497" height="29.248"/>
				
					<rect x="668.391" y="424.034" transform="matrix(0.9665 0.2568 -0.2568 0.9665 135.1196 -157.4929)" fill="#0C5AE5" width="4.495" height="29.251"/>
				
					<rect x="695.531" y="431.233" transform="matrix(0.9666 0.2563 -0.2563 0.9666 137.5536 -163.923)" fill="#0C5AE5" width="4.497" height="29.25"/>
				
					<rect x="675.778" y="425.695" transform="matrix(0.9667 0.256 -0.256 0.9667 135.2859 -158.6206)" fill="#0C5AE5" width="2.247" height="29.251"/>
				
					<rect x="680.339" y="426.907" transform="matrix(0.9665 0.2567 -0.2567 0.9665 136.1863 -160.1455)" fill="#0C5AE5" width="2.248" height="29.249"/>
				
					<rect x="684.9" y="428.115" transform="matrix(0.9666 0.2564 -0.2564 0.9666 136.4629 -161.1063)" fill="#0C5AE5" width="2.247" height="29.249"/>
				
					<rect x="689.461" y="429.326" transform="matrix(0.9666 0.2564 -0.2564 0.9666 136.9259 -162.2354)" fill="#0C5AE5" width="2.247" height="29.248"/>
				
					<rect x="656.678" y="420.63" transform="matrix(0.9666 0.2562 -0.2562 0.9666 133.4693 -154.0034)" fill="#0C5AE5" width="2.249" height="29.252"/>
				
					<rect x="703.434" y="433.028" transform="matrix(0.9668 0.2554 -0.2554 0.9668 137.6918 -165.0928)" fill="#0C5AE5" width="2.248" height="29.253"/>
				
					<rect x="661.398" y="421.882" transform="matrix(0.9667 0.2559 -0.2559 0.9667 133.7647 -155.0076)" fill="#0C5AE5" width="2.248" height="29.249"/>
				
					<rect x="708.946" y="434.789" transform="matrix(0.9666 0.2561 -0.2561 0.9666 138.8179 -167.1532)" fill="#0C5AE5" width="4.496" height="29.252"/>
				
					<rect x="728.327" y="439.929" transform="matrix(0.9666 0.2562 -0.2562 0.9666 140.8425 -172.004)" fill="#0C5AE5" width="4.498" height="29.251"/>
				
					<rect x="755.467" y="447.127" transform="matrix(0.9665 0.2567 -0.2567 0.9665 143.897 -179.009)" fill="#0C5AE5" width="4.497" height="29.25"/>
				
					<rect x="735.716" y="441.594" transform="matrix(0.9665 0.2568 -0.2568 0.9665 141.8824 -173.9359)" fill="#0C5AE5" width="2.247" height="29.247"/>
				
					<rect x="740.277" y="442.802" transform="matrix(0.9664 0.257 -0.257 0.9664 142.4704 -175.1847)" fill="#0C5AE5" width="2.249" height="29.249"/>
				
					<rect x="744.839" y="444.01" transform="matrix(0.9665 0.2567 -0.2567 0.9665 142.7385 -176.1305)" fill="#0C5AE5" width="2.248" height="29.248"/>
				
					<rect x="749.4" y="445.22" transform="matrix(0.9667 0.2558 -0.2558 0.9667 142.5965 -176.683)" fill="#0C5AE5" width="2.249" height="29.249"/>
				
					<rect x="716.618" y="436.528" transform="matrix(0.9665 0.2565 -0.2565 0.9665 139.7496 -169.0225)" fill="#0C5AE5" width="2.246" height="29.249"/>
				
					<rect x="763.371" y="448.926" transform="matrix(0.9667 0.256 -0.256 0.9667 144.1523 -180.2714)" fill="#0C5AE5" width="2.247" height="29.25"/>
				
					<rect x="721.335" y="437.775" transform="matrix(0.9666 0.2561 -0.2561 0.9666 139.9664 -169.9459)" fill="#0C5AE5" width="2.246" height="29.252"/>
			</g>
			
				<line fill="#FFFFFF" stroke="#0C5AE5" stroke-width="0.6158" stroke-linecap="round" stroke-linejoin="round" stroke-miterlimit="10" x1="848.946" y1="514.989" x2="891.356" y2="526.233"/>
			
				<line fill="#FFFFFF" stroke="#0C5AE5" stroke-width="0.6158" stroke-linecap="round" stroke-linejoin="round" stroke-miterlimit="10" x1="843.559" y1="535.312" x2="911.693" y2="553.379"/>
			
				<line fill="#FFFFFF" stroke="#0C5AE5" stroke-width="0.6158" stroke-linecap="round" stroke-linejoin="round" stroke-miterlimit="10" x1="834.404" y1="569.825" x2="876.813" y2="581.068"/>
			
				<line fill="#FFFFFF" stroke="#0C5AE5" stroke-width="0.6158" stroke-linecap="round" stroke-linejoin="round" stroke-miterlimit="10" x1="829.016" y1="590.147" x2="897.152" y2="608.215"/>
		</g>
		<path fill="#0C5AE5" d="M888.122,163.386c-1.624,5.887,1.009,13.184,5.745,16.775c11.553,8.754,32.964,3.973,28.329-14.009
			c-2.103-8.153-11.685-12.573-19.497-12.522c-4.853,0.03-9.817,2.066-12.729,5.948C889.107,160.729,888.5,162.019,888.122,163.386z
			"/>
		<g>
			
				<polygon fill="#FFFFFF" stroke="#0C5AE5" stroke-width="0.6071" stroke-linecap="round" stroke-linejoin="round" stroke-miterlimit="10" points="
				869.325,432.447 851.088,441.277 840.176,446.4 843.74,453.654 832.824,460.347 849.193,485.722 890.766,460.846 			"/>
			
				<line fill="none" stroke="#0C5AE5" stroke-width="0.6138" stroke-linecap="round" stroke-linejoin="round" stroke-miterlimit="10" x1="836.321" y1="465.366" x2="849.865" y2="457.731"/>
			
				<line fill="none" stroke="#0C5AE5" stroke-width="0.6138" stroke-linecap="round" stroke-linejoin="round" stroke-miterlimit="10" x1="841.14" y1="471.933" x2="854.682" y2="464.301"/>
			
				<line fill="none" stroke="#0C5AE5" stroke-width="0.6138" stroke-linecap="round" stroke-linejoin="round" stroke-miterlimit="10" x1="845.425" y1="478.793" x2="858.969" y2="471.162"/>
			
				<line fill="none" stroke="#0C5AE5" stroke-width="0.6138" stroke-linecap="round" stroke-linejoin="round" stroke-miterlimit="10" x1="838.48" y1="456.66" x2="848.511" y2="450.921"/>
		</g>
		<path fill="#0C5AE5" d="M942.443,355.711c5.113,50.506-78.401,70.025-78.401,70.025l5.283,6.71l22.248,34.159
			c0,0,55.585-11.976,82.812-46.331"/>
		
			<path fill="#0C5AE5" stroke="#FFFFFF" stroke-width="0.6138" stroke-linecap="round" stroke-linejoin="round" stroke-miterlimit="10" d="
			M891.573,466.606c0,0,55.585-11.976,82.812-46.331"/>
		
			<path fill="#0C5AE5" stroke="#FFFFFF" stroke-width="0.6138" stroke-linecap="round" stroke-linejoin="round" stroke-miterlimit="10" d="
			M942.443,355.711c3.462,34.217-33.746,54.209-58.111,63.549"/>
	</g>
	<g>
		
			<polyline fill="#FFFFFF" stroke="#0C5AE5" stroke-width="0.6218" stroke-linecap="round" stroke-linejoin="round" stroke-miterlimit="10" points="
			359.838,175.078 353.659,167.714 367.482,167.334 		"/>
		
			<polyline fill="#FFFFFF" stroke="#0C5AE5" stroke-width="0.6218" stroke-linecap="round" stroke-linejoin="round" stroke-miterlimit="10" points="
			370.171,169.975 367.306,183.976 360.867,176.303 		"/>
		<g>
			
				<path fill="#FFFFFF" stroke="#0C5AE5" stroke-width="0.6218" stroke-linecap="round" stroke-linejoin="round" stroke-miterlimit="10" d="
				M395.518,140.244l-33.602-23.409l5.719-4.799l41.15,16.513C404.318,132.395,399.896,136.293,395.518,140.244z"/>
			
				<path fill="#FFFFFF" stroke="#0C5AE5" stroke-width="0.6218" stroke-linecap="round" stroke-linejoin="round" stroke-miterlimit="10" d="
				M424.64,179.972l-5.72,4.799l-17.289-37.308c4.667-3.601,9.296-7.25,13.88-10.957L424.64,179.972z"/>
		</g>
		
			<path fill="#FFFFFF" stroke="#0C5AE5" stroke-width="0.6218" stroke-linecap="round" stroke-linejoin="round" stroke-miterlimit="10" d="
			M395.518,140.244c-11.775,10.619-19.475,18.399-30.61,29.69l-10.704,10.86l9.079-6.123c14.362-9.679,24.641-16.632,38.349-27.209"
			/>
		
			<path fill="#FFFFFF" stroke="#0C5AE5" stroke-width="0.6218" stroke-linecap="round" stroke-linejoin="round" stroke-miterlimit="10" d="
			M408.786,128.549c2.831-2.452,5.685-4.881,8.553-7.289l3.196-2.681c2.172-1.823,7.489-3.487,9.45-1.44
			c0.042,0.041,0.08,0.086,0.122,0.136c1.941,2.313-0.284,7.422-2.583,9.351c-3.972,3.332-7.973,6.627-12.013,9.88"/>
		
			<line fill="#FFFFFF" stroke="#0C5AE5" stroke-width="0.6218" stroke-linecap="round" stroke-linejoin="round" stroke-miterlimit="10" x1="420.535" y1="118.58" x2="427.385" y2="126.744"/>
		
			<line fill="#FFFFFF" stroke="#0C5AE5" stroke-width="0.6218" stroke-linecap="round" stroke-linejoin="round" stroke-miterlimit="10" x1="417.341" y1="121.259" x2="424.183" y2="129.414"/>
		
			<line fill="#FFFFFF" stroke="#0C5AE5" stroke-width="0.6218" stroke-linecap="round" stroke-linejoin="round" stroke-miterlimit="10" x1="384.326" y1="118.735" x2="375.199" y2="126.393"/>
		
			<line fill="#FFFFFF" stroke="#0C5AE5" stroke-width="0.6218" stroke-linecap="round" stroke-linejoin="round" stroke-miterlimit="10" x1="420.942" y1="162.373" x2="412.012" y2="169.865"/>
		
			<line fill="#FFFFFF" stroke="#0C5AE5" stroke-width="0.6218" stroke-linecap="round" stroke-linejoin="round" stroke-miterlimit="10" x1="388.437" y1="120.384" x2="378.718" y2="128.54"/>
		
			<line fill="#FFFFFF" stroke="#0C5AE5" stroke-width="0.6218" stroke-linecap="round" stroke-linejoin="round" stroke-miterlimit="10" x1="420.012" y1="157.946" x2="410.518" y2="165.913"/>
	</g>
</g>
</svg>
