<?xml version="1.0" encoding="utf-8"?>
<!-- Generator: Adobe Illustrator 16.0.0, SVG Export Plug-In . SVG Version: 6.00 Build 0)  -->
<!DOCTYPE svg PUBLIC "-//W3C//DTD SVG 1.1//EN" "http://www.w3.org/Graphics/SVG/1.1/DTD/svg11.dtd">
<svg version="1.1" id="Layer_1" xmlns="http://www.w3.org/2000/svg" xmlns:xlink="http://www.w3.org/1999/xlink" x="0px" y="0px"
	 width="200px" height="200px" viewBox="0 0 200 200" enable-background="new 0 0 200 200" xml:space="preserve">
<g>
	<g>
		<g>
			<path fill="#D4E6FC" d="M77.841,172.826l22.754,13.226c0.138,0.077,0.28,0.154,0.423,0.22c2.27,1.112,5.508,1.216,7.959,0.308
				c0.406-0.146,0.793-0.327,1.142-0.527l39.111-22.587c1.329-0.767,1.992-1.775,1.992-2.775c0-0.047-0.01-0.085-0.01-0.131v-7.506
				l-5.836,2.637l-18.859-10.962c-2.62-1.521-6.884-1.521-9.524,0l-17.84,10.301L77.88,167.315
				C75.235,168.843,75.221,171.306,77.841,172.826z"/>
			<path fill="#0C5AE5" d="M105.366,188.428c-1.74,0.003-3.476-0.351-4.892-1.044c-0.145-0.065-0.316-0.16-0.486-0.254
				L77.22,173.897c-1.661-0.965-2.572-2.318-2.572-3.813c0.002-1.505,0.931-2.869,2.613-3.841l39.114-22.587
				c3.026-1.746,7.754-1.746,10.761,0l18.31,10.644l5.26-2.377c0.382-0.169,0.827-0.138,1.18,0.09
				c0.353,0.227,0.565,0.618,0.565,1.039v7.506c0.011,1.617-0.942,3.019-2.602,3.977l-39.111,22.588
				c-0.416,0.239-0.865,0.452-1.349,0.62C108.156,188.203,106.759,188.428,105.366,188.428z M121.76,144.824
				c-1.508,0-3.021,0.327-4.147,0.977l-39.113,22.585c-0.873,0.506-1.375,1.127-1.375,1.702c0,0.565,0.488,1.175,1.339,1.667l0,0
				l22.754,13.227c0.093,0.053,0.204,0.112,0.316,0.163c1.981,0.97,4.848,1.073,7.015,0.273c0.353-0.125,0.666-0.275,0.956-0.439
				l39.108-22.585c0.869-0.503,1.372-1.124,1.372-1.704l-0.005-5.72l-4.094,1.849c-0.363,0.16-0.783,0.141-1.132-0.057
				l-18.859-10.963C124.776,145.151,123.269,144.824,121.76,144.824z"/>
		</g>
		<g>
			<path fill="#FFFFFF" d="M100.596,176.557v9.495c0.138,0.077,0.28,0.154,0.423,0.22c2.27,1.112,5.508,1.216,7.959,0.308v-9.503
				l-5.617-2.137L100.596,176.557z"/>
			<path fill="#0C5AE5" d="M105.361,188.428c-1.74,0-3.471-0.354-4.887-1.044c-0.145-0.065-0.316-0.16-0.486-0.254
				c-0.389-0.218-0.631-0.631-0.631-1.078v-9.495c0-0.44,0.232-0.847,0.611-1.068l2.762-1.617c0.328-0.187,0.715-0.221,1.068-0.09
				l5.618,2.137c0.478,0.184,0.797,0.644,0.797,1.158v9.503c0,0.517-0.324,0.98-0.807,1.159
				C108.161,188.201,106.759,188.428,105.361,188.428z M101.832,185.283c1.717,0.734,3.994,0.867,5.908,0.384v-7.737l-4.269-1.622
				l-1.64,0.959V185.283z"/>
		</g>
		<g>
			<path fill="#FFFFFF" d="M77.841,172.828l22.754,13.224c0.135,0.08,0.278,0.157,0.423,0.222v-9.502l6.518-21.086l-8.383-0.657
				L77.88,167.315C75.233,168.843,75.221,171.308,77.841,172.828z"/>
			<path fill="#0C5AE5" d="M101.019,187.512c-0.171,0-0.346-0.037-0.507-0.109c-0.187-0.084-0.371-0.184-0.545-0.285L77.22,173.899
				c-1.661-0.965-2.575-2.317-2.572-3.814c0.002-1.505,0.931-2.869,2.613-3.841l21.272-12.287c0.215-0.124,0.464-0.184,0.715-0.162
				l8.385,0.658c0.377,0.028,0.715,0.227,0.928,0.536c0.213,0.312,0.271,0.703,0.16,1.062l-6.464,20.907v9.315
				c0,0.421-0.213,0.813-0.566,1.04C101.488,187.444,101.252,187.512,101.019,187.512z M99.438,156.293l-20.938,12.093
				c-0.873,0.506-1.375,1.124-1.375,1.702c0,0.567,0.488,1.177,1.339,1.67l0,0l21.318,12.389v-7.375
				c0-0.123,0.019-0.247,0.056-0.365l6.062-19.609L99.438,156.293z"/>
		</g>
		<g>
			<g enable-background="new    ">
				<g>
					<g>
						<path fill="#D4E6FC" d="M77.875,160.29l39.118-22.585c2.635-1.522,6.904-1.525,9.52-0.002l22.757,13.225
							c2.621,1.521,2.601,3.991-0.034,5.515l-39.116,22.585c-2.64,1.522-6.904,1.522-9.523,0.002l-22.754-13.226
							C75.221,164.283,75.235,161.813,77.875,160.29L77.875,160.29z"/>
						<path fill="#0C5AE5" d="M105.347,181.408c-1.934,0-3.867-0.435-5.373-1.308L77.22,166.875
							c-1.661-0.967-2.575-2.323-2.572-3.822c0.002-1.503,0.931-2.866,2.608-3.833l39.119-22.585
							c3.026-1.75,7.754-1.748,10.761-0.003l22.758,13.226c1.657,0.961,2.567,2.318,2.567,3.814c0,1.506-0.929,2.872-2.606,3.841
							l-39.117,22.585C109.225,180.974,107.285,181.408,105.347,181.408z M121.765,137.799c-1.513,0-3.021,0.327-4.152,0.978
							l-39.118,22.585l0,0c-0.87,0.503-1.368,1.121-1.371,1.696c0,0.571,0.488,1.18,1.339,1.676l22.754,13.226
							c2.239,1.298,6.034,1.298,8.282-0.003l39.117-22.585c0.87-0.503,1.368-1.124,1.368-1.701c0-0.569-0.487-1.178-1.334-1.672
							l-22.756-13.225C124.776,138.124,123.273,137.799,121.765,137.799z M77.875,160.29h0.024H77.875z"/>
					</g>
				</g>
			</g>
		</g>
	</g>
	<g>
		<g>
			<path fill="#FFFFFF" d="M44.304,92.751l0.196,85.403c0.007,2.674,0.953,4.554,2.476,5.439l-8.463-4.835
				c-1.523-0.885-2.468-2.766-2.475-5.438l-0.196-85.403L44.304,92.751z"/>
			<path fill="#0C5AE5" d="M46.975,184.83c-0.21,0-0.421-0.053-0.615-0.162l-8.463-4.834c-1.991-1.158-3.092-3.469-3.099-6.512
				l-0.196-85.403c0-0.442,0.234-0.851,0.616-1.073c0.38-0.222,0.851-0.222,1.235-0.005l8.461,4.834
				c0.384,0.221,0.623,0.631,0.623,1.073l0.199,85.402c0.005,2.125,0.667,3.68,1.858,4.37c0.59,0.344,0.791,1.099,0.453,1.69
				C47.818,184.608,47.403,184.83,46.975,184.83z M37.083,90.051l0.19,83.266c0.005,2.125,0.667,3.679,1.859,4.37l4.308,2.461
				c-0.116-0.621-0.176-1.286-0.179-1.992l-0.196-84.684L37.083,90.051z"/>
		</g>
		<g>
			<path fill="#FFFFFF" d="M146.987,13.981c2.359-1.361,4.496-1.489,6.038-0.593l8.461,4.835c-1.542-0.896-3.679-0.769-6.033,0.592
				L52.765,78.103l-8.463-4.834L146.987,13.981z"/>
			<path fill="#0C5AE5" d="M52.765,79.34c-0.213,0-0.423-0.053-0.614-0.162l-8.463-4.834c-0.385-0.22-0.624-0.628-0.624-1.073
				c0-0.442,0.234-0.854,0.619-1.073l102.686-59.287l0,0c2.688-1.55,5.27-1.763,7.281-0.592l8.393,4.798
				c0.024,0.012,0.044,0.024,0.067,0.036c0.591,0.343,0.788,1.097,0.45,1.689c-0.344,0.59-1.103,0.786-1.687,0.457l-0.049-0.029
				c-1.203-0.671-2.892-0.454-4.753,0.617L53.383,79.174C53.192,79.285,52.977,79.34,52.765,79.34z M46.786,73.264l5.976,3.413
				l102.072-58.932c0.614-0.355,1.223-0.641,1.823-0.856l-4.245-2.424c-1.214-0.708-2.921-0.498-4.806,0.59L46.786,73.264z"/>
		</g>
		<g>
			<path fill="#D4E6FC" d="M44.301,92.754l0.174,75.414l0.026,9.986c0.015,5.384,3.83,7.554,8.512,4.849l102.686-59.284
				c4.689-2.713,8.48-9.266,8.461-14.648l-0.029-9.99l-0.169-75.415c-0.01-5.381-3.829-7.554-8.509-4.849L52.767,78.101
				C48.077,80.805,44.29,87.366,44.301,92.754z"/>
			<path fill="#0C5AE5" d="M49.206,185.411c-1.022,0-1.977-0.245-2.831-0.735c-1.999-1.15-3.104-3.464-3.111-6.52l-0.201-85.399
				c-0.017-5.872,3.974-12.78,9.084-15.729l102.686-59.282c2.668-1.547,5.251-1.762,7.257-0.599
				c1.997,1.148,3.104,3.463,3.109,6.517l0.197,85.405c0.02,5.859-3.965,12.767-9.079,15.723L53.632,184.074
				C52.095,184.964,50.589,185.411,49.206,185.411z M159.253,18.886c-0.947,0-2.03,0.336-3.182,1L53.385,79.171
				c-4.339,2.504-7.861,8.596-7.847,13.58l0,0l0.201,85.4c0.004,2.133,0.669,3.688,1.868,4.378c1.211,0.698,2.911,0.486,4.787-0.597
				l102.687-59.284c4.341-2.513,7.855-8.602,7.841-13.573l-0.198-85.408c-0.005-2.132-0.667-3.687-1.866-4.378
				C160.389,19.021,159.848,18.886,159.253,18.886z"/>
		</g>
		<g>
			<path fill="#FFFFFF" d="M50.932,79.394c-0.114,0.095-0.225,0.196-0.336,0.295c-0.179,0.157-0.357,0.317-0.531,0.486
				c-0.114,0.111-0.228,0.225-0.338,0.338c-0.167,0.169-0.332,0.343-0.494,0.522c-0.102,0.111-0.203,0.227-0.302,0.341
				c-0.244,0.285-0.481,0.578-0.71,0.88c-0.051,0.065-0.104,0.128-0.152,0.193c-0.273,0.368-0.532,0.747-0.781,1.134
				c-0.065,0.101-0.126,0.205-0.191,0.31c-0.184,0.297-0.363,0.602-0.532,0.909c-0.068,0.124-0.136,0.247-0.201,0.373
				c-0.187,0.353-0.36,0.712-0.525,1.076c-0.029,0.063-0.06,0.121-0.087,0.184c-0.024,0.053-0.043,0.108-0.067,0.164
				c-0.111,0.261-0.218,0.522-0.317,0.786c-0.039,0.1-0.075,0.201-0.111,0.3c-0.083,0.234-0.162,0.469-0.234,0.704
				c-0.029,0.091-0.059,0.184-0.087,0.276c-0.094,0.316-0.181,0.635-0.254,0.955c-0.01,0.034-0.014,0.067-0.022,0.102
				c-0.065,0.285-0.118,0.568-0.167,0.851c-0.017,0.099-0.029,0.196-0.044,0.293c-0.033,0.229-0.06,0.458-0.082,0.686
				c-0.01,0.094-0.02,0.189-0.027,0.281c-0.024,0.312-0.039,0.619-0.036,0.923l-8.463-4.834c-0.002-0.304,0.014-0.611,0.036-0.923
				c0.007-0.092,0.017-0.186,0.027-0.28c0.021-0.227,0.048-0.457,0.082-0.687c0.015-0.097,0.029-0.193,0.044-0.29
				c0.048-0.285,0.104-0.568,0.167-0.854c0.01-0.034,0.015-0.067,0.022-0.101c0.075-0.319,0.162-0.636,0.253-0.955
				c0.029-0.092,0.059-0.184,0.087-0.275c0.075-0.235,0.152-0.469,0.237-0.704c0.034-0.099,0.07-0.199,0.109-0.3
				c0.099-0.264,0.206-0.525,0.316-0.786c0.024-0.056,0.044-0.111,0.068-0.164c0.007-0.015,0.012-0.029,0.019-0.044
				c0.02-0.046,0.046-0.092,0.068-0.138c0.165-0.365,0.341-0.725,0.527-1.081c0.065-0.124,0.131-0.247,0.199-0.367
				c0.171-0.31,0.348-0.614,0.534-0.911c0.063-0.104,0.124-0.208,0.189-0.31c0.249-0.386,0.51-0.766,0.781-1.133
				c0.05-0.065,0.101-0.128,0.152-0.194c0.229-0.302,0.466-0.594,0.713-0.879c0.041-0.049,0.08-0.104,0.124-0.153
				c0.058-0.065,0.119-0.123,0.176-0.188c0.162-0.179,0.326-0.351,0.493-0.522c0.111-0.114,0.225-0.228,0.338-0.339
				c0.174-0.169,0.353-0.329,0.532-0.486c0.111-0.099,0.222-0.201,0.336-0.295c0.198-0.165,0.401-0.319,0.604-0.469
				c0.099-0.075,0.198-0.155,0.297-0.225c0.307-0.215,0.617-0.416,0.931-0.597l8.463,4.834c-0.314,0.182-0.627,0.382-0.931,0.598
				c-0.099,0.07-0.198,0.149-0.297,0.225C51.333,79.075,51.13,79.229,50.932,79.394z"/>
			<path fill="#0C5AE5" d="M44.301,93.99c-0.213,0-0.423-0.053-0.614-0.162l-8.461-4.835c-0.382-0.22-0.621-0.626-0.624-1.065
				c-0.002-0.334,0.015-0.675,0.039-1.021l0.032-0.319c0.021-0.24,0.051-0.491,0.087-0.743l0.045-0.292
				c0.056-0.329,0.114-0.631,0.182-0.936c0.104-0.457,0.198-0.793,0.295-1.134l0.097-0.305c0.08-0.254,0.162-0.503,0.251-0.752
				l1.274,0.121l-1.158-0.436c0.104-0.28,0.217-0.558,0.336-0.836c0.009-0.021,0.086-0.21,0.099-0.232
				c0.242-0.525,0.428-0.907,0.624-1.284l0.215-0.396c0.182-0.324,0.368-0.647,0.566-0.964l0.196-0.322
				c0.263-0.409,0.539-0.81,0.827-1.199c0.005-0.008,0.165-0.21,0.171-0.218c0.24-0.312,0.491-0.626,0.755-0.931
				c0.014-0.017,0.239-0.278,0.253-0.295c0.237-0.256,0.411-0.439,0.587-0.622l0.36-0.36c0.19-0.186,0.386-0.36,0.58-0.532
				l0.363-0.316c0.217-0.179,0.438-0.349,0.659-0.513l0.317-0.239c0.343-0.24,0.682-0.459,1.028-0.658
				c0.382-0.222,0.851-0.222,1.233-0.004l8.463,4.834c0.384,0.22,0.624,0.63,0.624,1.073c0,0.442-0.234,0.854-0.619,1.073
				c-0.283,0.164-0.563,0.343-0.836,0.537c-0.002,0.002-0.261,0.198-0.263,0.2c-0.196,0.145-0.382,0.286-0.561,0.436l-0.232,0.203
				c-0.242,0.212-0.403,0.357-0.563,0.513l-0.317,0.316c-0.157,0.16-0.309,0.322-0.459,0.489l-0.288,0.324
				c-0.222,0.256-0.442,0.532-0.658,0.814c-0.401,0.527-0.645,0.885-0.877,1.248l-1.232-0.36l1.054,0.65
				c-0.174,0.281-0.343,0.568-0.503,0.856l-0.186,0.346c-0.177,0.338-0.341,0.677-0.496,1.015l-1.25-0.237l1.104,0.568
				c-0.102,0.237-0.2,0.481-0.294,0.728l-1.248-0.199l1.141,0.489c-0.072,0.203-0.148,0.422-0.215,0.643l-0.089,0.282
				c-0.08,0.271-0.16,0.563-0.227,0.856c-0.083,0.368-0.13,0.629-0.174,0.887l-1.265,0.085l1.226,0.181
				c-0.032,0.208-0.056,0.416-0.075,0.624l-0.027,0.258c-0.02,0.278-0.034,0.554-0.034,0.827c0,0.443-0.234,0.849-0.616,1.071
				C44.731,93.934,44.516,93.99,44.301,93.99z M37.103,87.214l6.118,3.495c0-0.009,0.002-0.019,0.002-0.029l0.048-0.319
				c0.053-0.307,0.111-0.612,0.181-0.919c0.099-0.444,0.194-0.791,0.295-1.134l0.095-0.295c0.075-0.242,0.159-0.491,0.246-0.74
				l0.125-0.341c0.1-0.266,0.213-0.543,0.332-0.822l0.147-0.336c0.193-0.423,0.377-0.805,0.575-1.18l0.21-0.389
				c0.181-0.329,0.37-0.651,0.563-0.965l0.203-0.329c0.266-0.411,0.539-0.812,0.829-1.201c0.005-0.007,0.165-0.208,0.169-0.215
				c0.234-0.312,0.488-0.621,0.747-0.926l0.329-0.37c0.169-0.188,0.346-0.375,0.524-0.556l0.355-0.355
				c0.191-0.187,0.387-0.36,0.581-0.532l0.362-0.316l0,0c0.099-0.082,0.198-0.162,0.3-0.239l-6.113-3.493
				c-0.083,0.056-0.165,0.111-0.247,0.169l-1.008-0.788l0.735,0.996c-0.184,0.135-0.37,0.275-0.549,0.425l-0.232,0.204
				c-0.242,0.213-0.404,0.357-0.563,0.512l-0.776,0.805l-1.095-0.643l0.92,0.83c-0.338,0.399-0.561,0.674-0.775,0.955
				c0,0.002-0.155,0.198-0.157,0.201c-0.234,0.321-0.481,0.679-0.716,1.044c-0.002,0.002-0.169,0.278-0.171,0.28
				c-0.184,0.295-0.351,0.58-0.51,0.87l-0.188,0.349c-0.172,0.329-0.338,0.667-0.494,1.008c-0.004,0.015-0.099,0.213-0.106,0.227
				c-0.14,0.341-0.239,0.585-0.333,0.832l-1.267-0.135l1.166,0.42c-0.08,0.22-0.153,0.44-0.223,0.66l-0.087,0.271
				c-0.077,0.269-0.157,0.566-0.229,0.866c-0.075,0.35-0.128,0.614-0.171,0.88l-0.041,0.266c-0.029,0.205-0.053,0.413-0.072,0.621
				L37.11,87.09C37.107,87.131,37.105,87.172,37.103,87.214z"/>
		</g>
		<g>
			<path fill="#5F98ED" d="M44.475,168.168l0.026,9.986c0.015,5.384,3.83,7.554,8.512,4.849l102.686-59.284
				c4.689-2.713,8.48-9.266,8.461-14.648l-0.029-9.99L44.475,168.168z"/>
			<path fill="#0C5AE5" d="M49.206,185.411c-1.022,0-1.977-0.245-2.831-0.735c-1.999-1.15-3.104-3.464-3.111-6.52l-0.026-9.985
				c0-0.442,0.234-0.854,0.619-1.073l119.655-69.088c0.382-0.222,0.855-0.22,1.238-0.002c0.382,0.22,0.618,0.628,0.618,1.071
				l0.029,9.99c0.02,5.859-3.965,12.767-9.079,15.723L53.632,184.074C52.095,184.964,50.589,185.411,49.206,185.411z
				 M45.715,168.882l0.024,9.27c0.004,2.133,0.669,3.688,1.868,4.378c1.211,0.698,2.911,0.486,4.787-0.597l102.687-59.284
				c4.341-2.513,7.855-8.602,7.841-13.573l-0.024-7.856L45.715,168.882z"/>
		</g>
		<g>
			<path fill="#FFFFFF" d="M53.151,92.732c-0.004-2.248,2.072-5.828,4.04-6.964l97.934-56.541l0.146,64.75l-101.98,58.88
				L53.151,92.732z"/>
			<path fill="#0C5AE5" d="M53.289,154.095c-0.213,0-0.426-0.056-0.617-0.164c-0.384-0.221-0.621-0.629-0.621-1.07l-0.138-60.125
				l0,0c-0.005-2.695,2.301-6.677,4.658-8.038l97.935-56.541c0.381-0.222,0.85-0.22,1.236-0.002c0.383,0.223,0.62,0.628,0.62,1.071
				l0.145,64.75c0,0.442-0.237,0.854-0.619,1.073l-101.98,58.879C53.717,154.039,53.501,154.095,53.289,154.095z M54.389,92.73
				l0.133,57.985l99.505-57.451l-0.135-61.895L57.81,86.839C56.238,87.745,54.386,90.939,54.389,92.73L54.389,92.73z"/>
		</g>
	</g>
	<path fill="#0C5AE5" d="M83.834,116.228c-0.317,0-0.634-0.121-0.877-0.362c-0.481-0.486-0.481-1.27,0.002-1.753l43.312-43.199
		c0.484-0.479,1.268-0.481,1.755,0.002c0.479,0.486,0.479,1.269-0.004,1.752l-43.313,43.199
		C84.467,116.106,84.151,116.228,83.834,116.228z"/>
	<path fill="#0C5AE5" d="M128.017,81.845c-0.087,0-0.179-0.009-0.271-0.029c-0.667-0.15-1.083-0.813-0.938-1.479l2.368-10.59
		l-11.052,2.282c-0.657,0.154-1.324-0.288-1.464-0.96c-0.141-0.669,0.295-1.324,0.961-1.462l12.929-2.671
		c0.421-0.099,0.841,0.043,1.137,0.343c0.294,0.3,0.415,0.728,0.323,1.139l-2.784,12.461
		C129.095,81.454,128.587,81.845,128.017,81.845z"/>
</g>
</svg>
