<?xml version="1.0" encoding="utf-8"?>
<!-- Generator: Adobe Illustrator 16.0.0, SVG Export Plug-In . SVG Version: 6.00 Build 0)  -->
<!DOCTYPE svg PUBLIC "-//W3C//DTD SVG 1.1//EN" "http://www.w3.org/Graphics/SVG/1.1/DTD/svg11.dtd">
<svg version="1.1" id="Layer_1" xmlns="http://www.w3.org/2000/svg" xmlns:xlink="http://www.w3.org/1999/xlink" x="0px" y="0px"
	 width="200px" height="200px" viewBox="0 0 200 200" enable-background="new 0 0 200 200" xml:space="preserve">
<g>
	<g>
		<path fill="#0C5AE5" d="M171.813,162.938L171.813,162.938c12.096-6.688,12.412-23.965,0.566-31.089l-2.418-1.454
			c-28.054-16.873-62.861-17.955-91.91-2.854l-32.032,16.65L77,162.068C106.266,178.96,142.241,179.289,171.813,162.938z"/>
		<path fill="#0C5AE5" d="M125.189,176.19c-16.921,0-33.83-4.337-48.836-13.001l-30.98-17.878c-0.41-0.235-0.658-0.675-0.647-1.148
			c0.01-0.472,0.278-0.902,0.698-1.12l32.032-16.65c29.235-15.199,64.936-14.092,93.174,2.893l2.417,1.455
			c5.964,3.588,9.449,9.883,9.322,16.84c-0.126,6.957-3.839,13.123-9.929,16.492l0,0C157.817,172.157,141.498,176.19,125.189,176.19
			z M48.711,144.249l28.937,16.699c28.699,16.563,64.541,16.889,93.539,0.857c5.271-2.916,8.481-8.249,8.593-14.273
			c0.111-6.021-2.906-11.47-8.067-14.572l-2.418-1.454c-27.47-16.523-62.204-17.599-90.645-2.817L48.711,144.249z M171.813,162.938
			h0.025H171.813z"/>
	</g>
	<g>
		<g>
			<polygon fill="#D4E6FC" points="128.391,52.139 128.277,129.088 81.604,129.088 81.72,52.142 			"/>
			<path fill="#0C5AE5" d="M128.277,130.383H81.604c-0.344,0-0.673-0.137-0.916-0.379c-0.243-0.243-0.379-0.574-0.379-0.918
				l0.116-76.947c0.003-0.713,0.582-1.292,1.295-1.292l46.671-0.002c0.344,0,0.675,0.137,0.918,0.379s0.377,0.574,0.377,0.918
				l-0.114,76.949C129.568,129.805,128.992,130.383,128.277,130.383z M82.903,127.794h44.082l0.111-74.36l-44.082,0.002
				L82.903,127.794z"/>
		</g>
		<g>
			<path fill="#FFFFFF" d="M114.618,33.022c8.472,4.894,13.734,11.654,13.772,19.116L81.72,52.142l0.146,27.035
				c-12.89,0-24.577-3.024-33.051-7.918C40.34,66.367,35.08,59.607,35.037,52.142C34.958,37.21,55.782,25.104,81.563,25.104
				C94.45,25.104,106.139,28.131,114.618,33.022z"/>
			<path fill="#0C5AE5" d="M81.866,80.471c-12.696,0-24.663-2.873-33.699-8.093c-9.258-5.344-14.382-12.528-14.425-20.229
				c-0.028-5.113,2.243-10.113,6.568-14.458c8.518-8.563,24.324-13.881,41.253-13.881c12.69,0,24.658,2.873,33.703,8.092l0,0
				c9.258,5.347,14.379,12.532,14.42,20.229c0.002,0.346-0.132,0.675-0.375,0.921c-0.242,0.245-0.573,0.382-0.92,0.382
				l-45.366,0.002l0.136,25.732c0,0.346-0.134,0.675-0.376,0.92S82.21,80.471,81.866,80.471z M81.563,26.399
				c-16.264,0-31.37,5.028-39.417,13.118c-3.826,3.846-5.837,8.209-5.814,12.617c0.038,6.745,4.701,13.138,13.13,18.004
				c8.343,4.815,19.344,7.546,31.101,7.733l-0.139-25.722c0-0.346,0.137-0.675,0.379-0.92c0.243-0.245,0.572-0.382,0.916-0.382
				l45.313-0.002c-0.589-6.259-5.177-12.146-13.062-16.702l0,0C105.314,29.15,93.803,26.399,81.563,26.399z"/>
		</g>
		<g>
			<defs>
				<path id="SVGID_1_" d="M81.866,79.176l-0.116,76.949c-12.891,0-24.577-3.023-33.049-7.918
					c-8.475-4.894-13.737-11.65-13.778-19.119l0.114-76.946c0.043,7.466,5.303,14.225,13.778,19.117
					C57.29,76.152,68.976,79.176,81.866,79.176z"/>
			</defs>
			<defs>
				<path id="SVGID_2_" d="M81.75,157.42c-12.688,0-24.658-2.872-33.696-8.092c-9.261-5.347-14.385-12.532-14.425-20.232
					l0.114-76.957c0.002-0.713,0.579-1.29,1.292-1.292c0,0,0,0,0.002,0c0.711,0,1.292,0.574,1.295,1.287
					c0.038,6.745,4.701,13.138,13.13,18.004c8.649,4.992,20.159,7.744,32.404,7.744c0.344,0,0.673,0.137,0.916,0.379
					s0.379,0.574,0.379,0.918l-0.116,76.949C83.044,156.842,82.465,157.42,81.75,157.42z M36.319,61.314l-0.101,67.776
					c0.035,6.732,4.699,13.128,13.13,17.996c8.345,4.817,19.352,7.547,31.111,7.733l0.109-74.359
					c-12.21-0.189-23.674-3.042-32.401-8.083C42.725,69.237,38.712,65.459,36.319,61.314z"/>
			</defs>
			<use xlink:href="#SVGID_1_"  overflow="visible" fill="#FFFFFF"/>
			<use xlink:href="#SVGID_2_"  overflow="visible" fill="#0C5AE5"/>
			<clipPath id="SVGID_3_">
				<use xlink:href="#SVGID_1_"  overflow="visible"/>
			</clipPath>
			<clipPath id="SVGID_4_" clip-path="url(#SVGID_3_)">
				<use xlink:href="#SVGID_2_"  overflow="visible"/>
			</clipPath>
		</g>
		<g>
			<path fill="#5F98ED" d="M145.851,66.334c0.081,14.926-20.753,27.033-46.527,27.038l-0.152-27.042L145.851,66.334z"/>
			<path fill="#0C5AE5" d="M99.324,94.667c-0.71,0-1.292-0.574-1.295-1.287l-0.152-27.043c-0.002-0.344,0.134-0.675,0.377-0.92
				c0.243-0.245,0.572-0.382,0.918-0.382l0,0l46.679,0.005c0.711,0,1.29,0.577,1.295,1.287c0.027,5.108-2.241,10.104-6.556,14.445
				C132.069,89.338,116.26,94.664,99.324,94.667z M100.474,67.624l0.137,24.442c15.776-0.26,30.304-5.238,38.141-13.12
				c3.447-3.47,5.419-7.357,5.753-11.317L100.474,67.624z"/>
		</g>
		<g enable-background="new    ">
			<defs>
				<path id="SVGID_5_" enable-background="new    " d="M145.851,66.334l-0.116,76.947c0.084,14.926-20.751,27.034-46.524,27.037
					l0.114-76.947C125.098,93.367,145.932,81.26,145.851,66.334z"/>
			</defs>
			<defs>
				<path id="SVGID_6_" enable-background="new    " d="M99.21,171.613c-0.344,0-0.673-0.137-0.918-0.38
					c-0.243-0.242-0.377-0.574-0.377-0.918l0.114-76.946c0.002-0.713,0.58-1.292,1.295-1.292c16.27-0.002,31.378-5.035,39.428-13.13
					c3.761-3.784,5.764-8.065,5.804-12.397v-0.217c0-0.713,0.576-1.29,1.29-1.292c0.003,0,0.003,0,0.003,0
					c0.713,0,1.292,0.574,1.297,1.287c0,0.078,0,0.157,0,0.235l-0.116,76.722c0.03,5.099-2.241,10.093-6.558,14.438
					C131.951,166.287,116.143,171.61,99.21,171.613z M100.615,94.656l-0.111,74.356c15.772-0.26,30.295-5.237,38.132-13.117
					c3.821-3.844,5.829-8.204,5.804-12.607l0.102-67.602c-1.027,1.765-2.347,3.47-3.951,5.085
					C132.287,89.12,117.061,94.388,100.615,94.656z"/>
			</defs>
			<use xlink:href="#SVGID_5_"  overflow="visible" fill="#D4E6FC"/>
			<use xlink:href="#SVGID_6_"  overflow="visible" fill="#0C5AE5"/>
			<clipPath id="SVGID_7_">
				<use xlink:href="#SVGID_5_"  overflow="visible"/>
			</clipPath>
			<clipPath id="SVGID_8_" clip-path="url(#SVGID_7_)">
				<use xlink:href="#SVGID_6_"  overflow="visible"/>
			</clipPath>
		</g>
	</g>
</g>
</svg>
