<?xml version="1.0" encoding="utf-8"?>
<!-- Generator: Adobe Illustrator 16.0.0, SVG Export Plug-In . SVG Version: 6.00 Build 0)  -->
<!DOCTYPE svg PUBLIC "-//W3C//DTD SVG 1.1//EN" "http://www.w3.org/Graphics/SVG/1.1/DTD/svg11.dtd">
<svg version="1.1" id="Layer_1" xmlns="http://www.w3.org/2000/svg" xmlns:xlink="http://www.w3.org/1999/xlink" x="0px" y="0px"
	 width="200px" height="200px" viewBox="0 0 200 200" enable-background="new 0 0 200 200" xml:space="preserve">
<g>
	<g>
		<g enable-background="new    ">
			<g>
				<g>
					<path fill="#0C5AE5" d="M133.365,163.949c-9.097-5.252-23.803-5.252-32.842,0c-9.033,5.25-18.055,7.001-8.958,12.254
						c9.093,5.25,32.868,12.018,41.904,6.765C142.508,177.718,142.459,169.199,133.365,163.949L133.365,163.949z"/>
					<path fill="#0C5AE5" d="M124.128,186.32c-11.276,0-26.31-4.807-33.299-8.844c-2.142-1.236-4.591-2.955-4.52-5.278
						c0.086-2.709,3.335-4.321,7.832-6.556c1.74-0.865,3.712-1.843,5.644-2.967c9.43-5.479,24.829-5.479,34.317,0
						c4.887,2.82,7.581,6.661,7.587,10.813c0.006,4.125-2.65,7.943-7.48,10.752C131.681,185.711,128.142,186.32,124.128,186.32z
						 M116.923,161.466c-5.679,0-11.351,1.253-15.66,3.758c-2.013,1.17-4.031,2.173-5.813,3.056
						c-2.602,1.294-6.167,3.064-6.199,4.011c0,0.034,0.008,0.883,3.05,2.64c8.941,5.163,32.163,11.58,40.429,6.765
						c3.885-2.257,6.021-5.169,6.015-8.202c-0.003-3.057-2.176-5.995-6.115-8.269l0,0
						C128.291,162.719,122.604,161.466,116.923,161.466z"/>
				</g>
			</g>
		</g>
	</g>
	<path fill="#0C5AE5" d="M133.587,72.051c-0.423,0-0.84-0.181-1.133-0.532c-0.518-0.624-0.435-1.553,0.192-2.073
		c13.323-11.075,18.501-42.669,19.754-51.895l-16.813,7.475c-0.745,0.328-1.613-0.002-1.943-0.748
		c-0.331-0.742,0.005-1.613,0.747-1.943l19.193-8.533c0.483-0.204,1.035-0.155,1.464,0.155c0.426,0.308,0.652,0.819,0.598,1.343
		c-0.178,1.736-4.603,42.68-21.12,56.411C134.254,71.939,133.92,72.051,133.587,72.051z"/>
	<g>
		<path fill="#FFFFFF" d="M144.46,40.645l-1.849,18.133c-2.427,23.791-13.729,45.794-31.651,61.627l-5.865,5.181l0,0
			C83.75,109.576,70.111,85.334,67.509,58.78l-1.777-18.136H144.46z"/>
		<path fill="#0C5AE5" d="M105.095,127.057c-0.311,0-0.621-0.098-0.883-0.293c-21.62-16.216-35.533-40.944-38.169-67.84
			l-1.777-18.136c-0.04-0.414,0.098-0.825,0.376-1.133c0.279-0.308,0.676-0.483,1.09-0.483h78.728c0.417,0,0.813,0.175,1.093,0.486
			c0.278,0.308,0.414,0.722,0.371,1.136l-1.85,18.133c-2.469,24.228-13.883,46.455-32.14,62.581l-5.865,5.181
			C105.793,126.934,105.442,127.057,105.095,127.057z M67.357,42.116l1.619,16.52c2.516,25.68,15.634,49.319,36.05,65.045
			l4.96-4.382c17.698-15.635,28.765-37.18,31.163-60.672l1.682-16.512H67.357z"/>
	</g>
	<g>
		<g>
			<g>
				<path fill="#FFFFFF" d="M77.209,22.08c15.508-8.953,40.573-8.953,55.98,0.003c15.402,8.947,15.318,23.466-0.189,32.422
					c-15.499,8.947-40.564,8.947-55.966-0.003C61.627,45.549,61.71,31.03,77.209,22.08L77.209,22.08z"/>
				<path fill="#0C5AE5" d="M104.982,62.656c-10.402,0-20.792-2.294-28.687-6.88c-7.901-4.592-12.245-10.782-12.236-17.432
					c0.009-6.693,4.419-12.92,12.415-17.538l0,0c15.894-9.18,41.671-9.171,57.455,0.003c7.895,4.585,12.239,10.772,12.23,17.423
					c-0.009,6.696-4.422,12.926-12.423,17.546C125.795,60.364,115.382,62.656,104.982,62.656z M77.946,23.354
					c-7.05,4.071-10.934,9.396-10.942,14.993c-0.006,5.558,3.818,10.842,10.77,14.881c14.973,8.706,39.42,8.703,54.49,0.003
					c7.056-4.074,10.942-9.401,10.951-15.002c0.006-5.555-3.814-10.836-10.764-14.873C117.472,14.651,93.022,14.654,77.946,23.354
					L77.946,23.354z"/>
			</g>
		</g>
	</g>
	<g>
		<g enable-background="new    ">
			<g>
				<g>
					<path fill="#FFFFFF" d="M128.319,164.97c0.158,3.571-2.125,7.177-6.849,9.905c-9.094,5.25-23.796,5.25-32.833-0.003
						c-4.517-2.625-6.765-6.066-6.748-9.508v-5.851h46.438L128.319,164.97z"/>
					<path fill="#0C5AE5" d="M105.037,180.257c-6.216,0-12.42-1.371-17.135-4.111c-4.847-2.814-7.504-6.647-7.483-10.79v-5.842
						c0-0.814,0.658-1.473,1.472-1.473h46.438c0.391,0,0.765,0.155,1.041,0.432c0.275,0.276,0.431,0.652,0.431,1.044l-0.009,5.425
						c0.173,4.24-2.59,8.323-7.584,11.207C117.463,178.889,111.247,180.257,105.037,180.257z M83.362,160.985v4.379
						c-0.015,3.05,2.122,5.972,6.018,8.234c8.619,5.011,22.684,5.011,31.355,0.002c4.082-2.36,6.253-5.401,6.115-8.564
						c-0.003-0.022-0.003-0.046-0.003-0.069l0.006-3.981H83.362z"/>
				</g>
			</g>
		</g>
	</g>
	<g>
		<g enable-background="new    ">
			<g>
				<g>
					<path fill="#FFFFFF" d="M88.742,147.062c9.099-5.253,23.802-5.253,32.841,0c9.033,5.25,8.987,13.766-0.112,19.019
						c-9.094,5.25-23.796,5.25-32.833,0C79.602,160.827,79.648,152.312,88.742,147.062L88.742,147.062z"/>
					<path fill="#0C5AE5" d="M105.034,171.462c-6.213,0-12.417-1.368-17.132-4.108c-4.83-2.809-7.489-6.627-7.483-10.756
						c0.005-4.151,2.7-7.989,7.587-10.81l0,0c9.491-5.48,24.889-5.48,34.317,0c4.827,2.806,7.483,6.624,7.478,10.75
						c-0.006,4.154-2.702,7.995-7.593,10.815C117.463,170.094,111.244,171.462,105.034,171.462z M89.478,148.335
						c-3.939,2.274-6.109,5.21-6.115,8.266c-0.003,3.036,2.133,5.949,6.018,8.206c8.619,5.011,22.684,5.008,31.355,0
						c3.941-2.277,6.115-5.216,6.121-8.271c0.003-3.033-2.131-5.946-6.012-8.2C112.225,143.327,98.154,143.33,89.478,148.335
						L89.478,148.335z"/>
				</g>
			</g>
		</g>
	</g>
	<g>
		<path fill="#FFFFFF" d="M105.095,125.585v30.984V125.585z"/>
		<path fill="#0C5AE5" d="M105.095,158.041c-0.813,0-1.472-0.658-1.472-1.472v-30.984c0-0.813,0.658-1.472,1.472-1.472
			s1.472,0.658,1.472,1.472v30.984C106.566,157.383,105.908,158.041,105.095,158.041z"/>
	</g>
	<path fill="#0C5AE5" d="M84.018,108.36c-0.075,0-0.152-0.006-0.227-0.018c-29.739-4.597-39.293-35.86-39.385-36.176
		c-0.195-0.662,0.095-1.372,0.699-1.705L76.5,53.093c0.716-0.391,1.607-0.135,2.001,0.575c0.394,0.713,0.135,1.607-0.575,2.001
		l-30.32,16.773c1.96,5.445,11.871,29.162,36.634,32.991c0.805,0.124,1.354,0.877,1.23,1.679
		C85.357,107.84,84.731,108.36,84.018,108.36z"/>
</g>
</svg>
