<?xml version="1.0" encoding="utf-8"?>
<!-- Generator: Adobe Illustrator 16.0.0, SVG Export Plug-In . SVG Version: 6.00 Build 0)  -->
<!DOCTYPE svg PUBLIC "-//W3C//DTD SVG 1.1//EN" "http://www.w3.org/Graphics/SVG/1.1/DTD/svg11.dtd">
<svg version="1.1" id="Layer_1" xmlns="http://www.w3.org/2000/svg" xmlns:xlink="http://www.w3.org/1999/xlink" x="0px" y="0px"
	 width="200px" height="200px" viewBox="0 0 200 200" enable-background="new 0 0 200 200" xml:space="preserve">
<g>
	<g>
		<polygon fill="#0C5AE5" points="138.665,188.747 43.888,134.415 61,123.891 157.268,178.053 		"/>
		<path fill="#0C5AE5" d="M138.665,190.149c-0.24,0-0.481-0.061-0.698-0.187L43.189,135.63c-0.427-0.244-0.696-0.698-0.704-1.193
			c-0.008-0.496,0.247-0.957,0.668-1.216l17.115-10.523c0.433-0.263,0.978-0.274,1.421-0.028l96.264,54.163
			c0.441,0.246,0.713,0.709,0.717,1.212c0.002,0.504-0.267,0.973-0.704,1.225l-18.603,10.693
			C139.148,190.088,138.906,190.149,138.665,190.149z M46.634,134.374l92.031,52.758l15.766-9.064l-93.395-52.549L46.634,134.374z"
			/>
	</g>
	<g>
		<g>
			<polygon fill="#FFFFFF" points="81.867,124.189 98.899,114.291 76.857,131.03 59.825,140.929 			"/>
			<path fill="#0C5AE5" d="M59.825,142.331c-0.455,0-0.898-0.219-1.167-0.623c-0.411-0.616-0.271-1.446,0.317-1.896l22.042-16.736
				c0.047-0.039,0.095-0.069,0.145-0.1l17.032-9.896c0.63-0.372,1.463-0.186,1.871,0.434c0.411,0.616,0.271,1.444-0.318,1.895
				l-22.041,16.737l-17.178,9.995C60.31,142.271,60.066,142.331,59.825,142.331z"/>
		</g>
		<g>
			<path fill="#FFFFFF" d="M165.584,87.154l-0.044,19.409l-0.09,29.741c-0.022,4.494-1.597,7.659-4.157,9.143l-17.024,9.931
				c2.561-1.508,4.133-4.675,4.153-9.17l0.091-32.725l0.044-16.424c0-3.412-0.92-7.141-2.448-10.668
				c-1.416-3.144-3.303-6.156-5.526-8.692c-1.887-2.114-3.975-3.932-6.222-5.214L48.847,23.115
				c-3.954-2.292-7.547-2.517-10.132-0.989l17.027-9.906c2.582-1.506,6.178-1.28,10.153,0.989l85.493,49.375
				c2.244,1.279,4.356,3.1,6.243,5.23c2.224,2.541,4.11,5.526,5.504,8.672C164.686,80.035,165.605,83.718,165.584,87.154z"/>
			<path fill="#0C5AE5" d="M144.269,156.779c-0.479,0-0.95-0.249-1.21-0.695c-0.393-0.667-0.168-1.522,0.498-1.918
				c2.216-1.303,3.444-4.129,3.465-7.962l0.134-49.146c0-3.092-0.808-6.586-2.333-10.107c-1.381-3.067-3.215-5.954-5.293-8.325
				c-1.898-2.128-3.876-3.784-5.863-4.921l-85.52-49.375c-3.354-1.944-6.425-2.311-8.651-1.035l-0.077,0.044
				c-0.663,0.386-1.52,0.166-1.914-0.503c-0.389-0.667-0.167-1.522,0.496-1.917c0.033-0.018,0.063-0.036,0.096-0.054l16.942-9.857
				c3.13-1.832,7.24-1.479,11.554,0.983l85.497,49.376c2.289,1.303,4.511,3.163,6.594,5.521c2.295,2.618,4.278,5.739,5.735,9.031
				c1.702,3.897,2.591,7.783,2.568,11.239l-0.134,49.149c-0.025,4.88-1.751,8.555-4.859,10.351l-17.019,9.931
				C144.753,156.715,144.51,156.779,144.269,156.779z M45.063,20.056c1.446,0.341,2.955,0.958,4.488,1.846l85.512,49.371
				c2.245,1.281,4.458,3.13,6.565,5.493c2.269,2.588,4.256,5.716,5.76,9.051c1.685,3.888,2.572,7.771,2.572,11.243l-0.136,49.155
				c-0.008,1.714-0.227,3.28-0.644,4.672l11.406-6.651c2.215-1.279,3.442-4.101,3.461-7.939l0.134-49.143c0-0.002,0-0.006,0-0.006
				c0.02-3.072-0.785-6.562-2.33-10.099c-1.342-3.028-3.165-5.903-5.273-8.308c-1.876-2.12-3.856-3.785-5.885-4.94L65.195,14.423
				c-3.404-1.944-6.509-2.296-8.747-0.991L45.063,20.056z"/>
		</g>
		<g>
			<path fill="#FFFFFF" d="M134.364,72.48c7.867,4.545,14.22,15.549,14.195,24.591l-0.14,49.132
				c-0.024,9.042-6.419,12.706-14.288,8.16l-52.265-30.175l-22.042,16.74l-2.897-31.136l-8.316-4.803
				c-7.87-4.544-14.223-15.565-14.196-24.608l0.139-49.133c0.025-9.043,6.419-12.688,14.289-8.143L134.364,72.48z"/>
			<path fill="#0C5AE5" d="M140.519,157.727c-2.204,0-4.615-0.721-7.089-2.147l-51.457-29.711l-21.299,16.178
				c-0.408,0.307-0.948,0.367-1.413,0.165c-0.466-0.204-0.786-0.646-0.832-1.15L55.6,110.643l-7.689-4.437
				c-8.24-4.76-14.921-16.344-14.896-25.829l0.14-49.132c0.013-4.88,1.747-8.561,4.879-10.364c3.157-1.812,7.241-1.452,11.513,1.011
				l85.519,49.375l0,0c8.24,4.757,14.922,16.335,14.896,25.806l-0.139,49.135c-0.014,4.887-1.75,8.572-4.888,10.377
				C143.609,157.349,142.12,157.727,140.519,157.727z M81.867,122.788c0.241,0,0.481,0.063,0.7,0.188l52.265,30.175
				c3.365,1.941,6.458,2.298,8.703,1.005c2.237-1.288,3.472-4.112,3.482-7.955l0.14-49.136c0.024-8.577-6.03-19.059-13.495-23.369
				l-85.52-49.375c-3.365-1.945-6.462-2.301-8.71-1.009c-2.232,1.283-3.464,4.103-3.475,7.941l-0.14,49.135
				c-0.025,8.587,6.03,19.078,13.495,23.385l8.316,4.804c0.394,0.228,0.651,0.63,0.695,1.085l2.662,28.624l20.032-15.211
				C81.267,122.883,81.565,122.788,81.867,122.788z"/>
		</g>
		<g>
			<path fill="#D4E6FC" d="M165.584,87.154l-0.134,49.15c-0.022,4.494-1.597,7.659-4.157,9.143l-17.024,9.931
				c2.561-1.508,4.133-4.675,4.153-9.17l0.135-49.148L165.584,87.154z"/>
			<path fill="#0C5AE5" d="M144.269,156.779c-0.479,0-0.95-0.249-1.21-0.695c-0.393-0.667-0.168-1.522,0.498-1.918
				c2.216-1.303,3.444-4.129,3.465-7.962l0.134-49.146c0-0.496,0.265-0.956,0.697-1.208l17.027-9.907
				c0.431-0.252,0.97-0.252,1.405,0c0.436,0.249,0.703,0.714,0.701,1.216l-0.134,49.149c-0.025,4.88-1.751,8.555-4.859,10.351
				l-17.019,9.931C144.753,156.715,144.51,156.779,144.269,156.779z M149.956,97.87l-0.132,48.344
				c-0.008,1.714-0.227,3.28-0.644,4.672l11.406-6.651c2.215-1.282,3.442-4.101,3.461-7.939l0.129-46.701L149.956,97.87z"/>
		</g>
		<path fill="#0C5AE5" d="M64.732,72.499l0.926,0.534L64.732,72.499L64.732,72.499z M65.682,64.095
			c-4.305-2.484-7.788-0.499-7.818,4.438c0.003,4.957,3.464,10.951,7.769,13.438c4.289,2.475,7.788,0.498,7.802-4.448
			C73.449,72.576,69.974,66.573,65.682,64.095L65.682,64.095z"/>
		<path fill="#0C5AE5" d="M89.884,87.021l0.925,0.534L89.884,87.021L89.884,87.021z M90.837,78.619
			c-4.291-2.478-7.791-0.503-7.805,4.447c-0.013,4.946,3.461,10.949,7.753,13.424c4.305,2.487,7.788,0.504,7.818-4.436
			C98.604,87.098,95.143,81.106,90.837,78.619L90.837,78.619z"/>
		<path fill="#0C5AE5" d="M114.021,100.953l0.909,0.526L114.021,100.953L114.021,100.953z M114.954,92.542
			c-4.288-2.475-7.771-0.49-7.802,4.447c0,4.956,3.461,10.951,7.753,13.43c4.305,2.485,7.788,0.498,7.818-4.44
			C122.72,101.025,119.259,95.027,114.954,92.542L114.954,92.542z"/>
		<g>
			<g>
				<path fill="#D4E6FC" d="M157.632,67.814l-17.05,9.885c2.224,2.536,4.11,5.548,5.526,8.692c1.528,3.527,2.448,7.256,2.448,10.668
					l17.027-9.905c0.021-3.436-0.898-7.119-2.448-10.668C161.742,73.34,159.855,70.354,157.632,67.814z"/>
				<path fill="#0C5AE5" d="M148.557,98.461c-0.24,0-0.481-0.061-0.698-0.186c-0.436-0.25-0.703-0.712-0.703-1.216
					c0-3.094-0.808-6.588-2.333-10.109c-1.381-3.067-3.215-5.954-5.293-8.325c-0.277-0.318-0.398-0.74-0.33-1.153
					c0.069-0.414,0.317-0.775,0.68-0.986l17.049-9.883c0.574-0.337,1.315-0.219,1.759,0.288c2.291,2.615,4.274,5.736,5.731,9.028
					c1.702,3.9,2.591,7.785,2.568,11.244c-0.003,0.5-0.27,0.953-0.698,1.206l-17.028,9.904
					C149.045,98.401,148.801,98.461,148.557,98.461z M142.721,78.08c1.813,2.301,3.41,4.942,4.667,7.737
					c1.312,3.028,2.139,6.051,2.442,8.883l14.339-8.344c-0.109-2.872-0.904-6.07-2.317-9.308c-1.183-2.667-2.737-5.213-4.535-7.429
					L142.721,78.08z"/>
			</g>
		</g>
	</g>
</g>
</svg>
