<?xml version="1.0" encoding="utf-8"?>
<!-- Generator: Adobe Illustrator 16.0.0, SVG Export Plug-In . SVG Version: 6.00 Build 0)  -->
<!DOCTYPE svg PUBLIC "-//W3C//DTD SVG 1.1//EN" "http://www.w3.org/Graphics/SVG/1.1/DTD/svg11.dtd">
<svg version="1.1" id="Layer_1" xmlns="http://www.w3.org/2000/svg" xmlns:xlink="http://www.w3.org/1999/xlink" x="0px" y="0px"
	 width="200px" height="200px" viewBox="0 0 200 200" enable-background="new 0 0 200 200" xml:space="preserve">
<g>
	<g>
		<polygon fill="#0C5AE5" points="74.326,184.759 176.147,126.388 152.827,112.651 49.404,170.837 		"/>
		<path fill="#0C5AE5" d="M74.326,186.121c-0.229,0-0.458-0.056-0.662-0.173l-24.922-13.921c-0.431-0.239-0.697-0.694-0.699-1.187
			c0-0.494,0.266-0.946,0.694-1.188l103.421-58.188c0.426-0.233,0.941-0.233,1.361,0.017l23.321,13.734
			c0.417,0.245,0.673,0.697,0.67,1.182c-0.003,0.483-0.264,0.931-0.687,1.173L75.004,185.94
			C74.794,186.059,74.56,186.121,74.326,186.121z M52.189,170.835l22.129,12.356l99.12-56.819l-20.626-12.146L52.189,170.835z"/>
	</g>
	<g>
		<g>
			<polygon fill="#FFFFFF" points="63.096,152.818 45.625,142.664 48.542,169.192 66.014,179.346 			"/>
			<path fill="#0C5AE5" d="M66.014,180.708c-0.234,0-0.471-0.064-0.684-0.187l-17.472-10.155c-0.373-0.218-0.62-0.598-0.667-1.026
				l-2.92-26.528c-0.056-0.511,0.181-1.011,0.611-1.29c0.434-0.279,0.981-0.295,1.428-0.034l17.472,10.152
				c0.372,0.215,0.62,0.599,0.667,1.029l2.92,26.528c0.053,0.511-0.181,1.008-0.612,1.287
				C66.533,180.633,66.275,180.708,66.014,180.708z M49.822,168.356l14.546,8.456l-2.548-23.164l-14.546-8.452L49.822,168.356z"/>
		</g>
		<g>
			<path fill="#FFFFFF" d="M23.852,92.442l0.125,47.03c0.021,4.303,1.527,7.312,3.987,8.731l17.464,10.174
				c-2.439-1.421-3.963-4.474-3.963-8.756l-0.128-46.987v-0.063c-0.042-8.644,6.019-19.158,13.565-23.501v-0.021h0.019
				l89.651-51.758c3.771-2.204,7.229-2.394,9.708-0.975l-17.484-10.129c-2.479-1.463-5.916-1.251-9.688,0.932L37.436,68.872
				C29.914,73.239,23.831,83.772,23.852,92.442z"/>
			<path fill="#0C5AE5" d="M45.425,159.739c-0.231,0-0.468-0.062-0.684-0.187l0,0l-17.464-10.17
				c-2.981-1.724-4.639-5.243-4.663-9.905L22.49,92.445l0,0c-0.024-9.07,6.375-20.174,14.262-24.749l89.675-51.758
				c4.109-2.379,8.038-2.708,11.06-0.927l17.475,10.125c0.651,0.376,0.872,1.208,0.5,1.858c-0.375,0.65-1.202,0.875-1.856,0.503
				c-2.146-1.23-5.189-0.875-8.347,0.968L55.7,80.17c-0.04,0.027-0.08,0.053-0.12,0.077c-7.144,4.115-12.921,14.126-12.881,22.318
				l0.125,47.056c0,3.601,1.2,6.361,3.288,7.577l0,0c0.651,0.381,0.87,1.213,0.492,1.862
				C46.351,159.494,45.896,159.739,45.425,159.739z M25.214,92.437l0.125,47.029c0.019,3.654,1.191,6.336,3.303,7.559l12.062,7.024
				c-0.396-1.329-0.604-2.816-0.604-4.426l-0.125-46.983c-0.045-9.067,6.263-20.06,14.091-24.664
				c0.088-0.066,0.181-0.125,0.282-0.173l89.542-51.693c1.444-0.843,2.892-1.43,4.293-1.754l-12.07-6.994
				c-2.148-1.265-5.104-0.932-8.324,0.934L38.116,70.053C30.983,74.191,25.192,84.234,25.214,92.437L25.214,92.437z"/>
		</g>
		<g>
			<path fill="#D4E6FC" d="M54.91,79.043c-7.535,4.349-13.615,14.878-13.588,23.533l0.133,47.046
				c0.024,8.646,6.144,12.144,13.676,7.795l7.966-4.599l2.918,26.528l20.951-40.311l57.825-33.385
				c7.532-4.349,13.623-14.895,13.599-23.542l-0.136-47.044c-0.021-8.657-6.151-12.139-13.687-7.789L54.91,79.043z"/>
			<path fill="#0C5AE5" d="M66.014,180.708c-0.08,0-0.165-0.011-0.25-0.024c-0.588-0.109-1.038-0.593-1.101-1.188l-2.692-24.456
				l-6.16,3.556c-4.088,2.361-8.009,2.713-11.035,0.966c-3.008-1.731-4.671-5.259-4.684-9.935l-0.133-47.045
				c-0.027-9.072,6.375-20.161,14.27-24.72l0,0l89.657-51.765c4.099-2.365,8.024-2.707,11.048-0.968
				c3.006,1.73,4.671,5.258,4.682,9.933l0.136,47.045c0.023,9.069-6.381,20.163-14.28,24.725l-57.482,33.186l-20.765,39.957
				C66.987,180.431,66.517,180.708,66.014,180.708z M63.096,151.457c0.21,0,0.423,0.048,0.617,0.144
				c0.41,0.21,0.686,0.611,0.737,1.069l2.428,22.064l18.876-36.326c0.123-0.229,0.303-0.42,0.529-0.551l57.825-33.385
				c7.145-4.125,12.942-14.157,12.919-22.36l-0.136-47.042c-0.011-3.663-1.187-6.355-3.314-7.581
				c-2.148-1.238-5.106-0.892-8.33,0.967L55.591,80.221c-7.142,4.123-12.932,14.152-12.908,22.353l0.133,47.045
				c0.011,3.662,1.189,6.356,3.319,7.583c2.146,1.234,5.096,0.894,8.314-0.963l7.966-4.602
				C62.625,151.515,62.862,151.457,63.096,151.457z"/>
		</g>
		<g>
			<path fill="#FFFFFF" d="M23.852,92.442l0.125,47.03c0.021,4.303,1.527,7.312,3.987,8.731l17.464,10.174
				c-2.439-1.421-3.963-4.474-3.963-8.756l-0.128-46.987l-0.021-0.063L23.852,92.442z"/>
			<path fill="#0C5AE5" d="M45.425,159.739c-0.231,0-0.468-0.062-0.684-0.187l0,0l-17.464-10.17
				c-2.981-1.724-4.639-5.243-4.663-9.905L22.49,92.445c-0.002-0.487,0.258-0.939,0.681-1.184c0.42-0.242,0.941-0.245,1.364,0
				L42,101.395c0.287,0.165,0.502,0.431,0.606,0.745c0.048,0.139,0.093,0.346,0.093,0.493l0.125,46.989
				c0,3.601,1.2,6.361,3.288,7.577l0,0c0.651,0.381,0.87,1.213,0.492,1.862C46.351,159.494,45.896,159.739,45.425,159.739z
				 M25.219,94.81l0.12,44.657c0.019,3.654,1.191,6.336,3.303,7.559l12.062,7.024c-0.396-1.329-0.604-2.816-0.604-4.426
				l-0.125-46.255L25.219,94.81z"/>
		</g>
		<g>
			<path fill="#FFFFFF" d="M41.337,102.634v-0.063c-0.042-8.644,6.019-19.158,13.565-23.501v-0.021L37.436,68.872
				c-7.522,4.367-13.604,14.9-13.583,23.57L41.337,102.634z"/>
			<path fill="#0C5AE5" d="M41.289,103.983c-0.221,0-0.441-0.056-0.638-0.17L23.166,93.618c-0.418-0.245-0.676-0.691-0.676-1.173
				c-0.024-9.07,6.375-20.174,14.262-24.749c0.423-0.245,0.947-0.247,1.37,0L55.585,77.87c0.417,0.245,0.675,0.694,0.675,1.179
				c0,0.484-0.261,0.958-0.681,1.199c-7.144,4.115-12.921,14.126-12.881,22.318c0.003,0.489-0.258,0.973-0.681,1.218
				C41.792,103.912,41.542,103.983,41.289,103.983z M25.227,91.666l14.86,8.665c0.812-7.814,5.854-16.554,12.237-21.208
				l-14.873-8.666C30.845,74.681,25.543,83.878,25.227,91.666z"/>
		</g>
		<g>
			<g enable-background="new    ">
				<defs>
					<polygon id="SVGID_1_" enable-background="new    " points="63.658,104.201 63.644,99.746 135.667,58.161 135.683,62.616 					
						"/>
				</defs>
				<clipPath id="SVGID_2_">
					<use xlink:href="#SVGID_1_"  overflow="visible"/>
				</clipPath>
				<g clip-path="url(#SVGID_2_)">
					<path fill="#0C5AE5" d="M133.738,59.276L65.572,98.629c-1.058,0.615-1.925,2.117-1.923,3.335
						c0.005,1.239,0.878,1.734,1.937,1.122l68.166-39.353c1.059-0.614,1.926-2.117,1.923-3.354
						C135.672,59.159,134.8,58.664,133.738,59.276L133.738,59.276z"/>
				</g>
			</g>
		</g>
		<g>
			<g enable-background="new    ">
				<defs>
					<polygon id="SVGID_3_" enable-background="new    " points="63.37,124.694 63.357,120.258 101.665,98.14 101.676,102.576 					
						"/>
				</defs>
				<clipPath id="SVGID_4_">
					<use xlink:href="#SVGID_3_"  overflow="visible"/>
				</clipPath>
				<g clip-path="url(#SVGID_4_)">
					<path fill="#0C5AE5" d="M99.734,99.257l-34.449,19.886c-1.059,0.612-1.926,2.115-1.923,3.333
						c0.005,1.239,0.875,1.716,1.936,1.102l34.446-19.887c1.064-0.615,1.928-2.094,1.925-3.333
						C101.665,99.14,100.792,98.642,99.734,99.257L99.734,99.257z"/>
				</g>
			</g>
		</g>
	</g>
</g>
</svg>
