<?xml version="1.0" encoding="utf-8"?>
<!-- Generator: Adobe Illustrator 16.0.0, SVG Export Plug-In . SVG Version: 6.00 Build 0)  -->
<!DOCTYPE svg PUBLIC "-//W3C//DTD SVG 1.1//EN" "http://www.w3.org/Graphics/SVG/1.1/DTD/svg11.dtd">
<svg version="1.1" id="Layer_1" xmlns="http://www.w3.org/2000/svg" xmlns:xlink="http://www.w3.org/1999/xlink" x="0px" y="0px"
	 width="200px" height="200px" viewBox="0 0 200 200" enable-background="new 0 0 200 200" xml:space="preserve">
<g>
	<g>
		<path fill="#0C5AE5" d="M69.629,185.488c0,0,24.159,10.391,40.608,1.288c16.445-9.099,67.958-37.597,67.958-37.597l-39.07-23.367
			L69.629,185.488z"/>
		<path fill="#0C5AE5" d="M93.901,192.143c-12.659,0-24.209-4.877-24.906-5.178c-0.509-0.221-0.871-0.687-0.956-1.233
			c-0.082-0.552,0.123-1.104,0.543-1.464l69.491-59.679c0.528-0.449,1.283-0.515,1.876-0.156l39.071,23.364
			c0.493,0.294,0.791,0.832,0.782,1.407c-0.009,0.578-0.327,1.103-0.829,1.383l-67.958,37.596
			C105.699,191.125,99.686,192.143,93.901,192.143z M72.733,184.944c6.445,2.266,24.149,7.387,36.725,0.425l65.51-36.245
			l-35.674-21.335L72.733,184.944z"/>
	</g>
	<g>
		<g>
			<path fill="#FFFFFF" d="M127.869,100.522l-49.832,28.768c-6.947,4.009-13.253,4.38-17.809,1.728l26.565,15.44
				c4.552,2.645,10.861,2.281,17.809-1.731l49.828-28.771L127.869,100.522z"/>
			<path fill="#0C5AE5" d="M93.39,149.776c-2.69,0-5.19-0.641-7.404-1.929l-26.549-15.428c-0.006,0-0.013-0.006-0.015-0.006
				c-0.77-0.446-1.028-1.434-0.582-2.199c0.446-0.771,1.433-1.028,2.199-0.585l0,0c4.235,2.467,9.992,1.848,16.194-1.734
				l49.831-28.768c0.497-0.289,1.113-0.289,1.612,0.004l26.565,15.436c0.497,0.289,0.802,0.817,0.798,1.392
				c0,0.575-0.308,1.104-0.804,1.393l-49.829,28.768C101.2,148.55,97.109,149.776,93.39,149.776z M68.923,134.21l18.678,10.858
				c4.239,2.464,9.993,1.848,16.198-1.734l47.425-27.382l-23.357-13.573l-49.024,28.303
				C75.414,132.663,72.062,133.842,68.923,134.21z"/>
		</g>
		<g>
			<path fill="#D4E6FC" d="M154.432,115.956l-3.87,2.236l-45.958,26.535c-13.809,7.971-25.077,1.549-25.121-14.318
				c-0.044-15.86,11.147-35.249,24.957-43.221l49.829-28.769l-0.095-33.516L102.396,54.8c-14.475,8.358-28.069,22.691-38.275,40.365
				c-10.204,17.674-15.799,36.574-15.753,53.21c0.098,34.349,24.497,48.245,54.383,30.989l51.774-29.893L154.432,115.956z"/>
			<path fill="#0C5AE5" d="M78.477,188.411c-5.458,0-10.513-1.276-14.987-3.854c-10.739-6.176-16.681-19.027-16.729-36.179
				c-0.048-16.913,5.625-36.099,15.969-54.018c10.34-17.913,24.144-32.457,38.863-40.957L153.37,23.51
				c0.496-0.284,1.108-0.29,1.608-0.001c0.496,0.288,0.804,0.816,0.804,1.39l0.095,33.515c0.003,0.577-0.302,1.109-0.804,1.397
				l-49.83,28.771c-13.362,7.711-24.196,26.475-24.152,41.824c0.019,7.051,2.344,12.264,6.548,14.683
				c4.235,2.438,9.973,1.813,16.16-1.754l49.828-28.771c0.497-0.286,1.113-0.289,1.609-0.004c0.496,0.289,0.804,0.817,0.804,1.393
				l0.095,33.515c0.003,0.576-0.301,1.106-0.805,1.396l-51.774,29.893C94.746,185.843,86.209,188.411,78.477,188.411z
				 M152.572,27.687l-49.371,28.505c-14.239,8.223-27.621,22.35-37.685,39.777c-10.067,17.436-15.586,36.043-15.539,52.4
				c0.045,15.955,5.414,27.819,15.118,33.403c9.778,5.627,22.861,4.278,36.852-3.8l50.971-29.427l-0.086-29.807l-47.425,27.38
				c-7.221,4.166-14.098,4.792-19.37,1.76c-5.241-3.017-8.141-9.219-8.163-17.463c-0.047-16.376,11.512-36.394,25.761-44.623
				L152.66,57.49L152.572,27.687z"/>
		</g>
		<g>
			<path fill="#FFFFFF" d="M127.611,9.467L75.832,39.36C61.356,47.719,47.763,62.051,37.56,79.728
				c-10.206,17.678-15.801,36.574-15.755,53.208c0.049,17.063,6.095,29.081,15.83,34.736L64.2,183.112
				c-9.737-5.661-15.782-17.676-15.832-34.737c-0.046-16.636,5.549-35.536,15.753-53.21c10.206-17.674,23.8-32.007,38.275-40.365
				l51.777-29.897L127.611,9.467z"/>
			<path fill="#0C5AE5" d="M64.197,184.722c-0.273,0-0.553-0.072-0.807-0.221l-26.564-15.44
				c-10.674-6.201-16.58-19.027-16.629-36.12c-0.048-16.916,5.625-36.098,15.97-54.018c10.34-17.909,24.141-32.457,38.861-40.957
				l51.779-29.894c0.497-0.285,1.113-0.289,1.613,0.004l26.563,15.436c0.495,0.288,0.8,0.819,0.8,1.393s-0.308,1.104-0.804,1.392
				l-51.777,29.894c-14.239,8.223-27.621,22.35-37.685,39.777c-10.067,17.436-15.584,36.043-15.539,52.4
				c0.045,15.898,5.382,27.743,15.03,33.352c0.77,0.447,1.027,1.43,0.581,2.2C65.291,184.433,64.753,184.722,64.197,184.722z
				 M127.606,11.325L76.636,40.753c-14.239,8.223-27.621,22.348-37.684,39.78c-10.067,17.435-15.584,36.044-15.538,52.399
				c0.045,15.902,5.382,27.746,15.028,33.353l15.167,8.81c-4.442-6.799-6.816-15.904-6.848-26.716
				c-0.047-16.913,5.625-36.099,15.969-54.018c10.34-17.913,24.144-32.457,38.863-40.957l49.371-28.505L127.606,11.325z"/>
		</g>
		<g>
			<polygon fill="#5F98ED" points="118.878,78.227 118.878,45.523 92.15,30.446 127.611,9.467 154.174,24.903 154.269,58.419 			"/>
			<path fill="#0C5AE5" d="M118.878,79.835c-0.28,0-0.561-0.076-0.812-0.221c-0.494-0.29-0.799-0.816-0.799-1.388V46.463
				L91.362,31.847c-0.5-0.283-0.813-0.811-0.82-1.384c-0.005-0.575,0.296-1.109,0.792-1.401l35.457-20.979
				c0.501-0.3,1.123-0.302,1.629-0.007l26.563,15.436c0.492,0.287,0.8,0.815,0.8,1.386l0.095,33.515
				c0.003,0.583-0.312,1.124-0.822,1.407l-35.393,19.81C119.42,79.766,119.146,79.835,118.878,79.835z M95.369,30.413l24.3,13.708
				c0.506,0.286,0.817,0.823,0.817,1.402V75.48l32.174-18.004l-0.092-31.646l-24.95-14.499L95.369,30.413z"/>
		</g>
		<g>
			<polygon fill="#5F98ED" points="118.878,170.055 118.878,137.352 154.432,115.956 154.526,149.471 			"/>
			<path fill="#0C5AE5" d="M118.878,171.664c-0.277,0-0.554-0.075-0.805-0.217c-0.497-0.287-0.806-0.82-0.806-1.392V137.35
				c0-0.563,0.296-1.089,0.779-1.38l35.556-21.391c0.497-0.302,1.118-0.309,1.621-0.024c0.502,0.285,0.816,0.815,0.816,1.397
				l0.095,33.515c0.003,0.576-0.301,1.106-0.805,1.396l-35.648,20.584C119.437,171.588,119.156,171.664,118.878,171.664z
				 M120.486,138.258v29.007l32.432-18.72l-0.086-29.75L120.486,138.258z"/>
		</g>
		<g>
			<path fill="#5F98ED" d="M118.878,45.523l35.296-20.62L118.878,45.523z"/>
			<path fill="#0C5AE5" d="M118.88,47.132c-0.553,0-1.091-0.287-1.392-0.796c-0.446-0.769-0.189-1.753,0.578-2.201l35.297-20.619
				c0.77-0.445,1.753-0.188,2.2,0.576c0.445,0.769,0.188,1.753-0.579,2.201l-35.293,20.62
				C119.437,47.061,119.153,47.132,118.88,47.132z"/>
		</g>
		<g>
			<polygon fill="#5F98ED" points="118.878,137.352 91.032,121.788 127.869,100.522 154.432,115.956 			"/>
			<path fill="#0C5AE5" d="M118.878,138.958c-0.271,0-0.542-0.065-0.786-0.205l-27.844-15.563c-0.503-0.282-0.817-0.813-0.824-1.392
				c-0.007-0.578,0.302-1.118,0.804-1.407l36.836-21.265c0.497-0.289,1.113-0.289,1.612,0.004l26.565,15.436
				c0.49,0.286,0.795,0.811,0.798,1.376c0.007,0.572-0.289,1.1-0.779,1.393l-35.554,21.393
				C119.456,138.879,119.167,138.958,118.878,138.958z M94.288,121.765l24.561,13.724l32.423-19.508l-23.405-13.602L94.288,121.765z
				"/>
		</g>
	</g>
</g>
</svg>
