<?xml version="1.0" encoding="utf-8"?>
<!-- Generator: Adobe Illustrator 16.0.0, SVG Export Plug-In . SVG Version: 6.00 Build 0)  -->
<!DOCTYPE svg PUBLIC "-//W3C//DTD SVG 1.1//EN" "http://www.w3.org/Graphics/SVG/1.1/DTD/svg11.dtd">
<svg version="1.1" id="Layer_1" xmlns="http://www.w3.org/2000/svg" xmlns:xlink="http://www.w3.org/1999/xlink" x="0px" y="0px"
	 width="200px" height="200px" viewBox="0 0 200 200" enable-background="new 0 0 200 200" xml:space="preserve">
<g>
	<g>
		<path fill="#0C5AE5" d="M118.025,108.982c0,0,31.277,6.472,40.559-3.075c4.828,10.941-20.279,26.091-20.279,26.091
			L118.025,108.982z"/>
		<path fill="#0C5AE5" d="M138.305,133.164c-0.323,0-0.647-0.136-0.874-0.393l-20.281-23.02c-0.332-0.379-0.385-0.923-0.132-1.358
			c0.251-0.433,0.752-0.656,1.243-0.556c0.309,0.063,30.759,6.236,39.489-2.746c0.269-0.276,0.661-0.407,1.041-0.334
			c0.38,0.068,0.704,0.322,0.861,0.678c5.181,11.747-19.684,26.923-20.745,27.563C138.722,133.11,138.514,133.164,138.305,133.164z
			 M121.12,110.725l17.412,19.765c6.701-4.214,20.483-14.717,19.437-22.511C149.13,114.511,129.099,112.042,121.12,110.725z"/>
	</g>
	<g>
		<path fill="#0C5AE5" d="M110.024,157.622c0,0,24.28,15.255,38.203,7.562c13.921-7.694,30.605-16.914,30.605-16.914l-40.852-24.251
			L110.024,157.622z"/>
		<path fill="#0C5AE5" d="M138.799,168.527c-13.417,0-28.593-9.414-29.397-9.917c-0.281-0.181-0.478-0.475-0.527-0.807
			c-0.055-0.33,0.038-0.669,0.255-0.929l27.955-33.604c0.363-0.442,0.997-0.552,1.491-0.259l40.854,24.253
			c0.359,0.214,0.578,0.604,0.571,1.022c-0.008,0.417-0.234,0.799-0.604,1.002l-30.606,16.913
			C145.784,167.863,142.354,168.527,138.799,168.527z M111.794,157.315c4.915,2.832,24.381,13.195,35.872,6.848l28.822-15.93
			l-38.248-22.708L111.794,157.315z"/>
	</g>
	<g>
		<polygon fill="#B1B1B1" points="54.714,116.848 73.317,106.039 73.288,116.417 54.685,127.228 		"/>
		<polygon fill="#B1B1B1" points="54.847,70.044 73.45,59.234 73.317,106.039 54.714,116.848 		"/>
		<g>
			<polygon fill="#5F98ED" points="21.348,43.451 39.952,32.639 73.471,51.991 54.868,62.803 			"/>
			<path fill="#0C5AE5" d="M54.868,63.969c-0.202,0-0.403-0.052-0.583-0.156L20.765,44.461c-0.36-0.209-0.582-0.592-0.583-1.009
				c-0.001-0.416,0.22-0.801,0.581-1.009l18.603-10.811c0.36-0.213,0.806-0.21,1.168-0.002l33.52,19.352
				c0.36,0.208,0.582,0.592,0.583,1.009c0.001,0.416-0.221,0.801-0.58,1.009L55.454,63.811
				C55.271,63.917,55.07,63.969,54.868,63.969z M23.675,43.447l31.19,18.009l16.279-9.461l-31.19-18.008L23.675,43.447z"/>
		</g>
		<g>
			<polygon fill="#5F98ED" points="54.868,62.803 54.847,70.044 54.714,116.848 54.685,127.228 21.166,107.876 21.348,43.451 			"/>
			<path fill="#0C5AE5" d="M54.685,128.395c-0.201,0-0.403-0.055-0.583-0.157l-33.52-19.353c-0.362-0.209-0.584-0.594-0.583-1.011
				l0.183-64.428c0.001-0.416,0.224-0.799,0.584-1.007c0.359-0.208,0.805-0.207,1.165,0.001l33.52,19.353
				c0.362,0.209,0.584,0.595,0.583,1.013l-0.183,64.426c-0.001,0.416-0.224,0.799-0.584,1.009
				C55.087,128.34,54.886,128.395,54.685,128.395z M22.334,107.204l31.19,18.008l0.174-61.736l-31.19-18.008L22.334,107.204z"/>
		</g>
		<g>
			<polygon fill="#0C5AE5" points="54.868,62.803 73.471,51.991 73.45,59.234 54.847,70.044 			"/>
			<path fill="#0C5AE5" d="M54.847,71.21c-0.202,0-0.403-0.052-0.583-0.156c-0.362-0.209-0.584-0.596-0.583-1.013l0.021-7.242
				c0.001-0.415,0.222-0.797,0.58-1.005l18.603-10.811c0.361-0.212,0.809-0.212,1.169-0.002c0.362,0.209,0.584,0.595,0.583,1.014
				l-0.021,7.242c-0.001,0.415-0.222,0.797-0.581,1.005L55.433,71.053C55.251,71.158,55.05,71.21,54.847,71.21z M56.031,63.475
				l-0.013,4.541l16.268-9.453l0.012-4.542L56.031,63.475z"/>
		</g>
		<g>
			<defs>
				<path id="SVGID_1_" d="M56.39,68.825l18.604-10.812c2.046-1.187,6.16-2.313,12.635,1.425c4.822,2.784,11.207,1.882,16.57-1.235
					L85.594,69.014c-5.363,3.117-11.747,4.02-16.569,1.235C62.55,66.511,58.436,67.636,56.39,68.825z"/>
			</defs>
			<defs>
				<path id="SVGID_2_" d="M75.627,73.097c-2.603,0-5.058-0.608-7.186-1.837c-6.063-3.502-9.775-2.404-11.454-1.434l-0.011,0.007
					c-0.557,0.322-1.271,0.135-1.594-0.422c-0.325-0.557-0.136-1.27,0.421-1.594c0.003-0.002,0.007-0.003,0.01-0.005l18.593-10.806
					c2.112-1.226,6.712-2.672,13.805,1.422c4.103,2.369,9.994,1.903,15.378-1.22l0.023-0.012c0.551-0.324,1.268-0.137,1.593,0.421
					c0.324,0.557,0.135,1.271-0.423,1.594c-0.004,0.003-0.012,0.007-0.019,0.01l-18.585,10.8
					C82.67,72.063,79.022,73.097,75.627,73.097z M62.473,66.639c2.002,0.256,4.381,1.011,7.135,2.601
					c4.11,2.373,10.011,1.9,15.399-1.233l9.866-5.733c-2.861,0.104-5.526-0.498-7.829-1.825c-6.076-3.507-9.793-2.4-11.466-1.426
					L62.473,66.639z"/>
			</defs>
			<use xlink:href="#SVGID_1_"  overflow="visible" fill="#FFFFFF"/>
			<use xlink:href="#SVGID_2_"  overflow="visible" fill="#0C5AE5"/>
			<clipPath id="SVGID_3_">
				<use xlink:href="#SVGID_1_"  overflow="visible"/>
			</clipPath>
			<clipPath id="SVGID_4_" clip-path="url(#SVGID_3_)">
				<use xlink:href="#SVGID_2_"  overflow="visible"/>
			</clipPath>
			<g clip-path="url(#SVGID_4_)">
				<path fill="#FFFFFF" d="M56.39,68.825l18.604-10.812c2.046-1.187,6.16-2.313,12.635,1.425c4.822,2.784,11.207,1.882,16.57-1.235
					L85.594,69.014c-5.363,3.117-11.747,4.02-16.569,1.235C62.55,66.511,58.436,67.636,56.39,68.825L56.39,68.825z"/>
				<path fill="#0C5AE5" d="M75.627,73.097c-2.603,0-5.058-0.608-7.186-1.837c-6.063-3.502-9.775-2.404-11.454-1.434l-0.011,0.007
					c-0.557,0.322-1.271,0.135-1.594-0.422c-0.325-0.557-0.136-1.27,0.421-1.594c0.003-0.002,0.007-0.003,0.01-0.005l18.593-10.806
					c2.112-1.226,6.712-2.672,13.805,1.422c4.103,2.369,9.994,1.903,15.378-1.22l0.023-0.012c0.551-0.324,1.268-0.137,1.593,0.421
					c0.324,0.557,0.135,1.271-0.423,1.594c-0.004,0.003-0.012,0.007-0.019,0.01l-18.585,10.8
					C82.67,72.063,79.022,73.097,75.627,73.097z M62.473,66.639c2.002,0.256,4.381,1.011,7.135,2.601
					c4.11,2.373,10.011,1.9,15.399-1.233l9.866-5.733c-2.861,0.104-5.526-0.498-7.829-1.825c-6.076-3.507-9.793-2.4-11.466-1.426
					L62.473,66.639z"/>
			</g>
		</g>
		<g>
			<defs>
				<path id="SVGID_5_" d="M136.624,149.363l-18.604,10.809c1.066-0.619,2.053-2.1,2.929-4.209c0.477-1.12-0.816-3.43-0.416-4.876
					c0.612-2.197,2.881-3.729,3.309-6.468c0.396-2.487-1.028-6.151-0.816-8.89c0.192-2.451,2.038-3.956,2.069-6.469
					c0.033-2.503-1.765-6.013-1.918-8.438c-0.095-1.664,1.483-2.295,1.285-3.873c-0.264-2.124-0.612-4.146-1.061-6.019
					c-1.097-4.609-7.002-9.084-13.01-12.55c-5.521-3.188-11.125-5.524-13.148-6.333l18.603-10.811
					c2.024,0.809,7.627,3.145,13.147,6.332c6.007,3.468,11.912,7.942,13.008,12.553c0.45,1.87,0.8,3.895,1.063,6.016
					c0.198,1.578-1.383,2.208-1.284,3.873c0.152,2.429,1.949,5.936,1.917,8.441c-0.033,2.51-1.876,4.017-2.07,6.463
					c-0.212,2.743,1.215,6.405,0.818,8.893c-0.429,2.739-2.696,4.271-3.31,6.468c-0.401,1.449,0.894,3.754,0.417,4.877
					C138.676,147.258,137.689,148.744,136.624,149.363z"/>
			</defs>
			<defs>
				<path id="SVGID_6_" d="M118.02,161.338c-0.4,0-0.792-0.205-1.008-0.579c-0.326-0.556-0.135-1.271,0.421-1.594
					c0.455-0.264,1.376-1.089,2.441-3.648c0.082-0.246-0.117-1.095-0.238-1.6c-0.239-0.997-0.509-2.13-0.226-3.144
					c0.322-1.165,0.997-2.118,1.648-3.038c0.738-1.047,1.436-2.035,1.631-3.298c0.177-1.106-0.104-2.669-0.373-4.177
					c-0.278-1.558-0.565-3.166-0.457-4.624c0.11-1.396,0.66-2.516,1.148-3.507c0.487-0.986,0.907-1.838,0.921-2.884
					c0.013-1.161-0.473-2.715-0.943-4.221c-0.438-1.409-0.893-2.866-0.976-4.129c-0.067-1.207,0.465-2.045,0.853-2.655
					c0.354-0.556,0.484-0.802,0.441-1.147c-0.269-2.161-0.619-4.141-1.039-5.891c-0.832-3.508-5.14-7.591-12.457-11.813
					c-5.404-3.122-10.889-5.417-12.997-6.26c-0.415-0.166-0.698-0.553-0.73-0.997c-0.033-0.446,0.191-0.87,0.576-1.093
					l18.604-10.811c0.313-0.182,0.687-0.208,1.017-0.075c2.154,0.86,7.765,3.207,13.299,6.404
					c7.999,4.619,12.564,9.091,13.56,13.294c0.438,1.826,0.806,3.895,1.086,6.14c0.152,1.211-0.392,2.068-0.788,2.692
					c-0.34,0.532-0.515,0.828-0.492,1.259c0.064,0.979,0.457,2.239,0.874,3.579c0.524,1.676,1.066,3.411,1.049,4.942
					c-0.023,1.573-0.627,2.801-1.16,3.885c-0.431,0.88-0.841,1.709-0.913,2.656c-0.091,1.159,0.171,2.619,0.424,4.031
					c0.305,1.698,0.619,3.457,0.383,4.953c-0.283,1.797-1.211,3.114-2.031,4.278c-0.562,0.794-1.092,1.546-1.308,2.32
					c-0.119,0.433,0.077,1.252,0.248,1.977c0.248,1.048,0.508,2.128,0.12,3.041c-1.024,2.462-2.145,4.022-3.418,4.762l0,0
					l-18.604,10.812C118.421,161.288,118.22,161.338,118.02,161.338z M99.865,91.872c2.745,1.172,6.949,3.095,11.108,5.498
					c8.002,4.618,12.563,9.089,13.558,13.292c0.44,1.828,0.807,3.896,1.086,6.141c0.153,1.214-0.391,2.068-0.787,2.691
					c-0.339,0.534-0.515,0.831-0.493,1.263c0.065,0.975,0.46,2.236,0.876,3.575c0.523,1.677,1.066,3.412,1.047,4.942
					c-0.021,1.576-0.626,2.802-1.158,3.886c-0.43,0.879-0.84,1.711-0.914,2.661c-0.091,1.156,0.171,2.614,0.424,4.025
					c0.305,1.701,0.62,3.46,0.382,4.956c-0.281,1.796-1.211,3.114-2.031,4.278c-0.56,0.792-1.09,1.543-1.308,2.32
					c-0.117,0.431,0.078,1.253,0.25,1.978c0.248,1.044,0.507,2.126,0.119,3.041c-0.015,0.035-0.03,0.067-0.045,0.104l14.058-8.169
					c0.455-0.265,1.375-1.089,2.441-3.651c0.082-0.243-0.119-1.089-0.239-1.595c-0.24-0.997-0.508-2.132-0.226-3.143
					c0.324-1.166,0.998-2.118,1.646-3.043c0.741-1.046,1.437-2.033,1.633-3.296c0.178-1.108-0.102-2.666-0.373-4.179
					c-0.278-1.554-0.565-3.166-0.455-4.622c0.109-1.396,0.66-2.517,1.147-3.505c0.488-0.985,0.906-1.84,0.92-2.885
					c0.014-1.16-0.471-2.716-0.942-4.222c-0.438-1.407-0.893-2.866-0.975-4.129c-0.069-1.207,0.465-2.043,0.851-2.653
					c0.356-0.561,0.486-0.802,0.442-1.148c-0.268-2.161-0.619-4.142-1.038-5.889c-0.834-3.506-5.141-7.591-12.459-11.816
					c-5.001-2.889-10.074-5.07-12.472-6.047L99.865,91.872z M136.624,149.363h0.022H136.624z"/>
			</defs>
			<use xlink:href="#SVGID_5_"  overflow="visible" fill="#D4E6FC"/>
			<use xlink:href="#SVGID_6_"  overflow="visible" fill="#0C5AE5"/>
			<clipPath id="SVGID_7_">
				<use xlink:href="#SVGID_5_"  overflow="visible"/>
			</clipPath>
			<clipPath id="SVGID_8_" clip-path="url(#SVGID_7_)">
				<use xlink:href="#SVGID_6_"  overflow="visible"/>
			</clipPath>
			<g clip-path="url(#SVGID_8_)">
				<path fill="#D4E6FC" d="M97.243,92.047l18.603-10.811c2.024,0.809,7.627,3.145,13.147,6.332
					c6.007,3.468,11.912,7.942,13.008,12.553c0.45,1.87,0.8,3.895,1.063,6.016c0.198,1.578-1.383,2.208-1.284,3.873
					c0.152,2.429,1.949,5.936,1.917,8.441c-0.033,2.51-1.876,4.017-2.07,6.463c-0.212,2.743,1.215,6.405,0.818,8.893
					c-0.429,2.739-2.696,4.271-3.31,6.468c-0.401,1.449,0.894,3.754,0.417,4.877c-0.877,2.106-1.863,3.592-2.929,4.211
					l-18.604,10.809c1.066-0.619,2.053-2.1,2.929-4.209c0.477-1.12-0.816-3.43-0.416-4.876c0.612-2.197,2.881-3.729,3.309-6.468
					c0.396-2.487-1.028-6.151-0.816-8.89c0.192-2.451,2.038-3.956,2.069-6.469c0.033-2.503-1.765-6.013-1.918-8.438
					c-0.095-1.664,1.483-2.295,1.285-3.873c-0.264-2.124-0.612-4.146-1.061-6.019c-1.097-4.609-7.002-9.084-13.01-12.55
					C104.87,95.192,99.266,92.856,97.243,92.047L97.243,92.047z"/>
				<path fill="#0C5AE5" d="M118.02,161.338c-0.4,0-0.792-0.205-1.008-0.579c-0.326-0.556-0.135-1.271,0.421-1.594
					c0.455-0.264,1.376-1.089,2.441-3.648c0.082-0.246-0.117-1.095-0.238-1.6c-0.239-0.997-0.509-2.13-0.226-3.144
					c0.322-1.165,0.997-2.118,1.648-3.038c0.738-1.047,1.436-2.035,1.631-3.298c0.177-1.106-0.104-2.669-0.373-4.177
					c-0.278-1.558-0.565-3.166-0.457-4.624c0.11-1.396,0.66-2.516,1.148-3.507c0.487-0.986,0.907-1.838,0.921-2.884
					c0.013-1.161-0.473-2.715-0.943-4.221c-0.438-1.409-0.893-2.866-0.976-4.129c-0.067-1.207,0.465-2.045,0.853-2.655
					c0.354-0.556,0.484-0.802,0.441-1.147c-0.269-2.161-0.619-4.141-1.039-5.891c-0.832-3.508-5.14-7.591-12.457-11.813
					c-5.404-3.122-10.889-5.417-12.997-6.26c-0.415-0.166-0.698-0.553-0.73-0.997c-0.033-0.446,0.191-0.87,0.576-1.093
					l18.604-10.811c0.313-0.182,0.687-0.208,1.017-0.075c2.154,0.86,7.765,3.207,13.299,6.404
					c7.999,4.619,12.564,9.091,13.56,13.294c0.438,1.826,0.806,3.895,1.086,6.14c0.152,1.211-0.392,2.068-0.788,2.692
					c-0.34,0.532-0.515,0.828-0.492,1.259c0.064,0.979,0.457,2.239,0.874,3.579c0.524,1.676,1.066,3.411,1.049,4.942
					c-0.023,1.573-0.627,2.801-1.16,3.885c-0.431,0.88-0.841,1.709-0.913,2.656c-0.091,1.159,0.171,2.619,0.424,4.031
					c0.305,1.698,0.619,3.457,0.383,4.953c-0.283,1.797-1.211,3.114-2.031,4.278c-0.562,0.794-1.092,1.546-1.308,2.32
					c-0.119,0.433,0.077,1.252,0.248,1.977c0.248,1.048,0.508,2.128,0.12,3.041c-1.024,2.462-2.145,4.022-3.418,4.762
					l-18.604,10.812C118.421,161.288,118.22,161.338,118.02,161.338z M99.865,91.872c2.745,1.172,6.949,3.095,11.108,5.498
					c8.002,4.618,12.563,9.089,13.558,13.292c0.44,1.828,0.807,3.896,1.086,6.141c0.153,1.214-0.391,2.068-0.787,2.691
					c-0.339,0.534-0.515,0.831-0.493,1.263c0.065,0.975,0.46,2.236,0.876,3.575c0.523,1.677,1.066,3.412,1.047,4.942
					c-0.021,1.576-0.626,2.802-1.158,3.886c-0.43,0.879-0.84,1.711-0.914,2.661c-0.091,1.156,0.171,2.614,0.424,4.025
					c0.305,1.701,0.62,3.46,0.382,4.956c-0.281,1.796-1.211,3.114-2.031,4.278c-0.56,0.792-1.09,1.543-1.308,2.32
					c-0.117,0.431,0.078,1.253,0.25,1.978c0.248,1.044,0.507,2.126,0.119,3.041c-0.015,0.035-0.03,0.067-0.045,0.104l14.058-8.169
					c0.455-0.265,1.375-1.089,2.441-3.651c0.082-0.243-0.119-1.089-0.239-1.595c-0.24-0.997-0.508-2.132-0.226-3.143
					c0.324-1.166,0.998-2.118,1.646-3.043c0.741-1.046,1.437-2.033,1.633-3.296c0.178-1.108-0.102-2.666-0.373-4.179
					c-0.278-1.554-0.565-3.166-0.455-4.622c0.109-1.396,0.66-2.517,1.147-3.505c0.488-0.985,0.906-1.84,0.92-2.885
					c0.014-1.16-0.471-2.716-0.942-4.222c-0.438-1.407-0.893-2.866-0.975-4.129c-0.069-1.207,0.465-2.043,0.851-2.653
					c0.356-0.561,0.486-0.802,0.442-1.148c-0.268-2.161-0.619-4.142-1.038-5.889c-0.834-3.506-5.141-7.591-12.459-11.816
					c-5.001-2.889-10.074-5.07-12.472-6.047L99.865,91.872z"/>
			</g>
		</g>
		<g enable-background="new    ">
			<defs>
				<path id="SVGID_9_" enable-background="new    " d="M97.537,51.515l18.602-10.81c0.554-0.321,1.198-0.25,1.887,0.146
					L99.422,51.662C98.736,51.266,98.089,51.195,97.537,51.515z"/>
			</defs>
			<clipPath id="SVGID_10_">
				<use xlink:href="#SVGID_9_"  overflow="visible"/>
			</clipPath>
			<path clip-path="url(#SVGID_10_)" fill="#E6E6E6" d="M97.537,51.515l18.602-10.81c0.554-0.321,1.198-0.25,1.887,0.146
				L99.422,51.662C98.736,51.266,98.089,51.195,97.537,51.515L97.537,51.515z"/>
		</g>
		<g>
			<defs>
				<path id="SVGID_11_" d="M116.339,81.043L97.737,91.854c1.209-0.703,3.364-3.47,6.854-12.544
					c4.413-11.468-1.091-25.294-5.168-27.648l18.603-10.811c4.075,2.354,9.581,16.181,5.17,27.648
					C119.705,77.574,117.549,80.342,116.339,81.043z"/>
			</defs>
			<defs>
				<path id="SVGID_12_" d="M97.738,93.02c-0.401,0-0.792-0.207-1.008-0.581c-0.323-0.557-0.134-1.27,0.421-1.593l0.001-0.002
					c0.679-0.394,2.657-2.348,6.35-11.952c4.201-10.92-1.161-24.2-4.663-26.22c-0.36-0.208-0.582-0.592-0.583-1.007
					c-0.002-0.417,0.221-0.802,0.58-1.01l18.602-10.812c0.36-0.212,0.81-0.21,1.17-0.002c4.603,2.658,10.285,17.094,5.675,29.077
					c-2.953,7.678-5.361,11.973-7.355,13.134L98.326,92.86c-0.001,0.001-0.002,0.001-0.003,0.002
					C98.138,92.968,97.937,93.02,97.738,93.02z M101.449,51.833c4.22,4.424,8.367,17.145,4.231,27.896
					c-1.316,3.422-2.525,6.173-3.636,8.273l13.712-7.967v-0.001c0.678-0.394,2.655-2.347,6.349-11.954
					c3.995-10.386-0.665-22.91-4.141-25.846L101.449,51.833z"/>
			</defs>
			<use xlink:href="#SVGID_11_"  overflow="visible" fill="#D4E6FC"/>
			<use xlink:href="#SVGID_12_"  overflow="visible" fill="#0C5AE5"/>
			<clipPath id="SVGID_13_">
				<use xlink:href="#SVGID_11_"  overflow="visible"/>
			</clipPath>
			<clipPath id="SVGID_14_" clip-path="url(#SVGID_13_)">
				<use xlink:href="#SVGID_12_"  overflow="visible"/>
			</clipPath>
			<g clip-path="url(#SVGID_14_)">
				<path fill="#D4E6FC" d="M99.422,51.662l18.603-10.811c4.075,2.354,9.581,16.181,5.17,27.648
					c-3.49,9.074-5.646,11.842-6.856,12.544L97.737,91.854c1.209-0.703,3.364-3.47,6.854-12.544
					C109.004,67.842,103.5,54.016,99.422,51.662L99.422,51.662z"/>
				<path fill="#0C5AE5" d="M97.738,93.02c-0.401,0-0.792-0.207-1.008-0.581c-0.323-0.557-0.134-1.27,0.421-1.593l0.001-0.002
					c0.679-0.394,2.657-2.348,6.35-11.952c4.201-10.92-1.161-24.2-4.663-26.22c-0.36-0.208-0.582-0.592-0.583-1.007
					c-0.002-0.417,0.221-0.802,0.58-1.01l18.602-10.812c0.36-0.212,0.81-0.21,1.17-0.002c4.603,2.658,10.285,17.094,5.675,29.077
					c-2.953,7.678-5.361,11.973-7.355,13.134L98.326,92.86c-0.001,0.001-0.002,0.001-0.003,0.002
					C98.138,92.968,97.937,93.02,97.738,93.02z M101.449,51.833c4.22,4.424,8.367,17.145,4.231,27.896
					c-1.316,3.422-2.525,6.173-3.636,8.273l13.712-7.967c0.678-0.395,2.655-2.348,6.349-11.955
					c3.995-10.386-0.665-22.91-4.141-25.846L101.449,51.833z"/>
			</g>
		</g>
		<g>
			<path fill="#FFFFFF" d="M99.422,51.662c4.078,2.354,9.582,16.18,5.168,27.648c-4.031,10.48-6.281,12.548-7.348,12.737
				c2.023,0.809,7.627,3.145,13.148,6.333c6.008,3.466,11.913,7.94,13.01,12.55c0.448,1.872,0.797,3.895,1.061,6.019
				c0.198,1.578-1.38,2.209-1.285,3.873c0.153,2.426,1.951,5.936,1.918,8.438c-0.031,2.513-1.877,4.018-2.069,6.469
				c-0.212,2.738,1.213,6.402,0.816,8.89c-0.428,2.739-2.696,4.271-3.309,6.468c-0.4,1.446,0.893,3.756,0.416,4.876
				c-1.402,3.371-3.085,5.143-4.923,4.345c-3.344-1.449-16.81-7.369-30.296-15.153c-14.47-8.355-28.962-18.858-31.015-28.306
				l0.133-46.804c0.232-0.264,4.648-5.297,14.178,0.205c9.538,5.506,25.186-3.41,26.958-15.353
				C96.476,51.56,97.842,50.75,99.422,51.662z"/>
			<path fill="#0C5AE5" d="M116.895,161.661c-0.446,0-0.897-0.096-1.334-0.286c-4.901-2.123-17.678-7.858-30.415-15.212
				C65.983,135.1,55.362,125.32,53.574,117.096c-0.017-0.082-0.026-0.166-0.026-0.251l0.133-46.804
				c0.001-0.283,0.105-0.555,0.291-0.768c0.541-0.615,5.576-5.843,15.637-0.034c3.71,2.142,8.905,1.977,13.896-0.434
				c6.044-2.92,10.49-8.446,11.326-14.08c0.338-2.288,1.112-3.74,2.302-4.315c0.611-0.297,1.599-0.492,2.873,0.241l0,0
				c4.602,2.657,10.285,17.091,5.675,29.077c-2.713,7.05-4.658,10.417-6.081,12.029c2.735,1.161,7.076,3.13,11.374,5.612
				c8.002,4.618,12.563,9.089,13.558,13.292c0.44,1.828,0.807,3.896,1.086,6.141c0.153,1.214-0.391,2.068-0.787,2.691
				c-0.339,0.534-0.515,0.831-0.493,1.263c0.065,0.975,0.46,2.236,0.876,3.575c0.523,1.677,1.066,3.412,1.047,4.942
				c-0.021,1.576-0.626,2.802-1.158,3.886c-0.43,0.879-0.84,1.711-0.914,2.661c-0.091,1.156,0.171,2.614,0.424,4.025
				c0.305,1.701,0.62,3.46,0.382,4.956c-0.281,1.796-1.211,3.114-2.031,4.278c-0.56,0.792-1.09,1.543-1.308,2.32
				c-0.117,0.431,0.078,1.253,0.25,1.978c0.248,1.044,0.507,2.126,0.119,3.041c-1.151,2.769-2.432,4.403-3.905,5.001
				C117.72,161.58,117.31,161.661,116.895,161.661z M55.88,116.72c1.706,7.432,12.223,16.909,30.432,27.422
				c12.632,7.293,25.313,12.987,30.177,15.094c0.271,0.121,0.496,0.126,0.757,0.021c0.387-0.155,1.416-0.834,2.628-3.739
				c0.082-0.246-0.117-1.095-0.238-1.6c-0.239-0.997-0.509-2.13-0.226-3.144c0.322-1.165,0.997-2.118,1.648-3.038
				c0.738-1.047,1.436-2.035,1.631-3.298c0.177-1.106-0.104-2.669-0.373-4.177c-0.278-1.558-0.565-3.166-0.457-4.624
				c0.11-1.396,0.66-2.516,1.148-3.507c0.487-0.986,0.907-1.838,0.921-2.884c0.013-1.161-0.473-2.715-0.943-4.221
				c-0.438-1.409-0.893-2.866-0.976-4.129c-0.067-1.207,0.465-2.045,0.853-2.655c0.354-0.556,0.484-0.802,0.441-1.147
				c-0.269-2.161-0.619-4.141-1.039-5.891c-0.832-3.508-5.14-7.591-12.457-11.813c-5.404-3.122-10.889-5.417-12.997-6.26
				c-0.484-0.193-0.78-0.684-0.728-1.202c0.054-0.518,0.444-0.938,0.957-1.028c0.08-0.02,2.078-0.607,6.462-12.009
				c4.201-10.918-1.161-24.198-4.663-26.218c-0.175-0.102-0.497-0.259-0.691-0.163c-0.314,0.153-0.769,0.914-1.011,2.558
				c-0.959,6.475-5.794,12.543-12.619,15.839c-5.775,2.792-11.634,2.917-16.076,0.354c-7.458-4.309-11.338-1.722-12.43-0.735
				L55.88,116.72z"/>
		</g>
	</g>
</g>
</svg>
