<?xml version="1.0" encoding="utf-8"?>
<!-- Generator: Adobe Illustrator 16.0.0, SVG Export Plug-In . SVG Version: 6.00 Build 0)  -->
<!DOCTYPE svg PUBLIC "-//W3C//DTD SVG 1.1//EN" "http://www.w3.org/Graphics/SVG/1.1/DTD/svg11.dtd">
<svg version="1.1" id="Layer_1" xmlns="http://www.w3.org/2000/svg" xmlns:xlink="http://www.w3.org/1999/xlink" x="0px" y="0px"
	 width="200px" height="200px" viewBox="0 0 200 200" enable-background="new 0 0 200 200" xml:space="preserve">
<g>
	<g>
		<path fill="#0C5AE5" d="M100.316,161.044c0,0,29.835,20.854,52.387,8.373c8.838-4.891,16.059-8.97,21.573-12.127
			c5.873-3.36,5.945-11.788,0.143-15.261l-40.711-24.345L100.316,161.044z"/>
		<path fill="#0C5AE5" d="M136.315,174.71c-18.395,0-35.78-11.96-36.73-12.624c-0.283-0.199-0.475-0.505-0.527-0.851
			c-0.055-0.343,0.037-0.694,0.249-0.97l33.392-43.359c0.394-0.51,1.109-0.646,1.662-0.313l40.71,24.345
			c3.122,1.868,4.965,5.151,4.93,8.783c-0.034,3.63-1.939,6.871-5.089,8.677c-6.696,3.83-13.96,7.912-21.592,12.134
			C147.864,173.551,142.041,174.71,136.315,174.71z M102.162,160.731c5.567,3.537,30.738,18.188,49.924,7.572
			c7.622-4.214,14.875-8.294,21.557-12.119c2.358-1.349,3.783-3.773,3.811-6.487c0.025-2.717-1.354-5.174-3.691-6.572
			l-39.735-23.766L102.162,160.731z"/>
	</g>
	<g>
		<g>
			<path fill="#FFFFFF" d="M106.802,81.373c8.893,5.134,16.081,17.589,16.054,27.807l-0.132,46.263
				c-0.029,10.219-7.266,14.343-16.158,9.208l-69.237-39.974c-8.893-5.134-16.084-17.591-16.055-27.81l0.132-46.26
				c0.028-10.219,7.266-14.343,16.159-9.208L106.802,81.373z"/>
			<path fill="#0C5AE5" d="M113.791,168.139c-2.44,0-5.114-0.799-7.862-2.386L36.692,125.78C27.458,120.449,19.97,107.479,20,96.865
				l0.132-46.261c0.015-5.397,1.92-9.463,5.366-11.446c3.464-1.995,7.976-1.593,12.704,1.138l69.238,39.975
				c9.233,5.328,16.721,18.301,16.69,28.914l-0.132,46.26c-0.015,5.398-1.92,9.465-5.365,11.445
				C117.182,167.726,115.548,168.139,113.791,168.139z M30.345,40.459c-1.317,0-2.523,0.301-3.577,0.907
				c-2.624,1.511-4.077,4.794-4.089,9.246l-0.132,46.261c-0.027,9.798,6.889,21.775,15.418,26.7l69.237,39.974
				c3.905,2.254,7.515,2.657,10.158,1.137c2.625-1.51,4.077-4.793,4.09-9.245l0.132-46.263c0.027-9.798-6.888-21.775-15.417-26.7
				L36.927,42.502C34.578,41.146,32.335,40.459,30.345,40.459z"/>
		</g>
		<g>
			<path fill="#FFFFFF" d="M144.566,96.564l-0.127,46.255c-0.025,5.094-1.809,8.659-4.711,10.34l-21.704,12.612
				c2.903-1.682,4.687-5.249,4.687-10.318l0.152-46.282c0.027-10.214-7.182-22.671-16.072-27.79L37.56,41.391
				c-4.484-2.573-8.533-2.802-11.462-1.121L47.8,27.661c2.929-1.707,7.005-1.452,11.462,1.121l69.233,39.992
				C137.41,73.893,144.594,86.348,144.566,96.564z"/>
			<path fill="#0C5AE5" d="M118.027,167.044c-0.44,0-0.868-0.229-1.104-0.637c-0.354-0.607-0.145-1.386,0.463-1.739v-0.002
				c0.002,0,0.005,0,0.005,0l0.005-0.005c2.607-1.516,4.042-4.786,4.042-9.209l0.152-46.287c0.024-9.796-6.898-21.766-15.433-26.681
				L36.923,42.494c-3.914-2.249-7.536-2.644-10.191-1.119c-0.61,0.348-1.387,0.143-1.737-0.468
				c-0.351-0.608-0.145-1.385,0.464-1.737L47.161,26.56c3.463-2.02,7.988-1.623,12.738,1.118l69.233,39.991
				c9.238,5.306,16.735,18.268,16.708,28.895l0,0l-0.127,46.257c-0.027,5.398-1.925,9.463-5.348,11.442l-21.681,12.597
				c-0.006,0.003-0.011,0.005-0.018,0.01h-0.003l0,0C118.463,166.99,118.241,167.044,118.027,167.044z M32.382,38.091
				c1.858,0.316,3.816,1.05,5.812,2.195l69.234,39.99c9.24,5.323,16.737,18.288,16.708,28.899l-0.151,46.282
				c0,2.214-0.321,4.209-0.94,5.923l16.041-9.32c2.607-1.513,4.058-4.796,4.08-9.249l0.127-46.252
				c0.024-9.811-6.898-21.78-15.436-26.681L58.625,29.885c-3.925-2.265-7.542-2.667-10.185-1.123L32.382,38.091z M144.566,96.562
				h0.024H144.566z"/>
		</g>
		<g>
			<g>
				<g>
					<polygon fill="#0C5AE5" points="59.097,76.244 58.983,116.079 88.966,113.439 59.097,76.244 					"/>
					<path fill="#0C5AE5" d="M58.983,117.352c-0.317,0-0.625-0.119-0.862-0.336c-0.264-0.241-0.413-0.582-0.412-0.94l0.113-39.834
						c0.001-0.542,0.343-1.02,0.853-1.199c0.502-0.179,1.076-0.02,1.413,0.403l29.87,37.198c0.293,0.363,0.363,0.863,0.179,1.296
						c-0.184,0.431-0.592,0.729-1.06,0.769l-29.983,2.64C59.058,117.349,59.021,117.352,58.983,117.352z M60.36,79.851l-0.1,34.837
						l26.221-2.309L60.36,79.851z"/>
				</g>
			</g>
		</g>
		<g>
			<path fill="#D4E6FC" d="M144.566,96.564l-21.703,12.606c0.027-10.214-7.182-22.671-16.072-27.79l21.704-12.606
				C137.41,73.893,144.594,86.348,144.566,96.564z"/>
			<path fill="#0C5AE5" d="M122.863,110.444c-0.219,0-0.438-0.057-0.637-0.169c-0.394-0.229-0.637-0.651-0.637-1.109
				c0.024-9.796-6.898-21.766-15.433-26.681c-0.396-0.229-0.637-0.646-0.64-1.102c-0.002-0.455,0.241-0.875,0.635-1.102l21.7-12.609
				c0.394-0.231,0.881-0.231,1.274-0.002c9.243,5.306,16.74,18.268,16.713,28.895c-0.003,0.453-0.241,0.871-0.635,1.1l-21.7,12.606
				C123.306,110.387,123.087,110.444,122.863,110.444z M109.236,81.43c7.791,5.452,13.979,16.148,14.806,25.581l19.241-11.176
				c-0.297-9.425-6.759-20.599-14.799-25.584L109.236,81.43z M144.566,96.562h0.024H144.566z"/>
		</g>
		<g>
			<path fill="#D4E6FC" d="M144.566,96.564l-0.127,46.255c-0.025,5.094-1.809,8.659-4.711,10.34l-21.704,12.612
				c2.903-1.682,4.687-5.249,4.687-10.318l0.152-46.282L144.566,96.564z"/>
			<path fill="#0C5AE5" d="M118.027,167.044c-0.44,0-0.868-0.229-1.104-0.637c-0.354-0.607-0.145-1.386,0.463-1.739l0.024-0.015
				c2.598-1.52,4.027-4.783,4.027-9.201l0.152-46.287c0.002-0.453,0.243-0.87,0.637-1.095l21.7-12.611
				c0.394-0.229,0.881-0.229,1.276,0s0.64,0.649,0.637,1.104l-0.127,46.257c-0.027,5.398-1.925,9.463-5.348,11.442l-21.681,12.597
				c-0.006,0.003-0.011,0.005-0.018,0.01h-0.003l0,0C118.463,166.99,118.241,167.044,118.027,167.044z M124.137,109.905
				l-0.151,45.553c0,2.214-0.321,4.209-0.94,5.923l16.041-9.32c2.607-1.513,4.058-4.796,4.08-9.249l0.119-44.033L124.137,109.905z"
				/>
		</g>
	</g>
</g>
</svg>
