<?xml version="1.0" encoding="utf-8"?>
<!-- Generator: Adobe Illustrator 16.0.0, SVG Export Plug-In . SVG Version: 6.00 Build 0)  -->
<!DOCTYPE svg PUBLIC "-//W3C//DTD SVG 1.1//EN" "http://www.w3.org/Graphics/SVG/1.1/DTD/svg11.dtd">
<svg version="1.1" id="Layer_1" xmlns="http://www.w3.org/2000/svg" xmlns:xlink="http://www.w3.org/1999/xlink" x="0px" y="0px"
	 width="200px" height="200px" viewBox="0 0 200 200" enable-background="new 0 0 200 200" xml:space="preserve">
<g>
	<g>
		<path fill="#0C5AE5" d="M76.43,151.386c0,0,13.063,13.743,38.195-0.161c9.849-5.449,17.896-9.998,24.04-13.516
			c6.541-3.741,6.625-13.132,0.155-17.001L93.457,93.577l-9.408,31.937L76.43,151.386z"/>
		<path fill="#0C5AE5" d="M93.344,158.917c-11.52,0-17.568-6.159-17.942-6.55c-0.35-0.369-0.477-0.896-0.333-1.381l17.027-57.809
			c0.125-0.422,0.435-0.759,0.845-0.92c0.407-0.158,0.865-0.122,1.245,0.102l45.363,27.128c3.477,2.079,5.529,5.737,5.491,9.787
			c-0.038,4.044-2.159,7.658-5.671,9.668c-7.421,4.244-15.514,8.795-24.057,13.523C106.576,157.301,99.242,158.917,93.344,158.917z
			 M78.038,150.949c2.722,2.344,14.712,10.755,35.901-0.965c8.531-4.724,16.613-9.264,24.023-13.505
			c2.627-1.502,4.212-4.207,4.24-7.23c0.029-3.03-1.509-5.767-4.111-7.32L94.299,95.736L78.038,150.949z"/>
	</g>
	<g>
		<g>
			<path fill="#5F98ED" d="M97.357,63.681c12.41,7.162,22.398,24.502,22.358,38.764c-0.012,4.102-0.842,7.466-2.323,10.042
				c-9.21,20.614-41.103,36.466-42.783,37.303c-1.558-2.639-31.141-52.77-41.419-83.844c-2.084-5.124-3.284-10.414-3.271-15.343
				c0.042-14.263,10.129-20.01,22.538-12.845c9.039,5.218,16.775,18.768,20.331,25.721c0.538,1.064,1.297,1.882,2.06,2.32
				c0.762,0.438,1.525,0.504,2.068,0.061C80.497,63.029,88.318,58.461,97.357,63.681z"/>
			<path fill="#0C5AE5" d="M74.611,151.208c-0.487,0-0.962-0.252-1.225-0.698c-3.193-5.41-31.493-53.734-41.544-84.119
				c-2.189-5.373-3.356-10.865-3.343-15.793c0.022-7.402,2.617-12.964,7.304-15.662c4.72-2.715,10.881-2.148,17.362,1.592
				c9.175,5.297,17.025,18.754,20.886,26.304c0.388,0.771,0.951,1.417,1.505,1.735c0.283,0.167,0.46,0.183,0.502,0.172
				c4.075-3.233,12.39-7.841,22.005-2.29l0,0c12.765,7.367,23.11,25.312,23.07,39.998c-0.012,4.258-0.856,7.872-2.512,10.746
				c-9.081,20.343-39.895,36.131-43.375,37.865C75.042,151.159,74.825,151.208,74.611,151.208z M42.381,36.086
				c-1.898,0-3.64,0.434-5.161,1.311c-3.775,2.17-5.862,6.861-5.882,13.209c-0.014,4.563,1.081,9.682,3.166,14.804
				c9.479,28.652,35.324,73.415,40.651,82.511c6.55-3.393,32.845-17.9,40.942-36.017c1.47-2.566,2.187-5.71,2.199-9.463
				c0.038-13.781-9.671-30.617-21.651-37.533l0,0C88.482,60.2,81.33,64.18,77.796,66.974c-0.973,0.787-2.342,0.814-3.659,0.055
				c-1.042-0.604-1.974-1.636-2.616-2.91c-3.717-7.265-11.232-20.2-19.774-25.132C48.41,37.061,45.219,36.086,42.381,36.086z"/>
		</g>
		<g>
			<path fill="#FFFFFF" d="M145.306,87.973c0,4.085-0.822,7.464-2.327,10.048c-6.67,14.987-14.816,20.918-25.147,26.937
				l-34.117,19.81c10.588-6.386,27.419-18.222,33.664-32.269c1.503-2.584,2.325-5.963,2.325-10.051
				c0.031-1.589-0.142-3.263-0.396-4.909c-0.028-0.286-0.056-0.541-0.086-0.824c-0.282-1.618-0.651-3.265-1.133-4.883
				c-0.115-0.366-0.229-0.738-0.342-1.104c-0.482-1.536-1.051-3.096-1.704-4.601c-0.056-0.139-0.084-0.283-0.169-0.424
				c-0.711-1.619-1.533-3.207-2.385-4.771c-0.227-0.366-0.454-0.765-0.681-1.164c-0.824-1.361-1.702-2.722-2.64-4.03
				c-0.113-0.169-0.227-0.338-0.368-0.51c-1.051-1.447-2.215-2.811-3.407-4.113c-0.228-0.228-0.426-0.455-0.653-0.682
				c-1.164-1.22-2.384-2.384-3.662-3.438c-0.197-0.138-0.368-0.283-0.565-0.423c-1.336-1.079-2.725-2.071-4.144-2.897
				c-0.709-0.394-1.419-0.709-2.101-1.02c-0.399-0.141-0.768-0.283-1.136-0.425c-0.455-0.143-0.91-0.284-1.361-0.397
				c-0.369-0.114-0.74-0.199-1.078-0.255c-0.455-0.086-0.881-0.143-1.336-0.17l-1.02-0.086c-0.427,0-0.854,0-1.25,0.029
				c-0.34,0.028-0.651,0.028-0.964,0.057c-0.427,0.057-0.824,0.114-1.22,0.198c-0.286,0.057-0.568,0.113-0.854,0.17
				c-0.424,0.114-0.823,0.228-1.191,0.341c-0.255,0.084-0.51,0.141-0.738,0.227c-0.169,0.057-0.283,0.14-0.427,0.171l-5.79,3.348
				v0.03l-0.169,0.083c-0.228,0.144-0.54,0.199-0.823,0.172c-0.114,0-0.199-0.059-0.313-0.086c-0.169-0.031-0.338-0.059-0.51-0.142
				c-0.086-0.028-0.169-0.086-0.228-0.116c-0.396-0.228-0.795-0.566-1.134-0.965c-0.03,0-0.03,0-0.03-0.028
				c-0.341-0.368-0.652-0.82-0.907-1.333c-0.54-1.022-1.192-2.27-1.901-3.548c-0.199-0.341-0.427-0.739-0.626-1.135
				c-0.596-1.023-1.248-2.129-1.93-3.236c-0.254-0.426-0.482-0.823-0.737-1.249c-0.964-1.476-1.959-3.009-3.038-4.513
				c-0.142-0.2-0.313-0.398-0.455-0.597c-0.937-1.276-1.929-2.525-2.952-3.717c-0.624-0.739-1.278-1.477-1.929-2.158
				c-0.114-0.141-0.228-0.284-0.369-0.397c-0.881-0.936-1.818-1.788-2.752-2.554c-0.227-0.198-0.455-0.369-0.654-0.54
				c-0.993-0.766-1.987-1.503-2.98-2.071c-0.737-0.426-1.477-0.794-2.187-1.135c-1.192-0.568-2.384-0.965-3.518-1.278
				c-0.199-0.057-0.372-0.114-0.568-0.17c-1.078-0.255-2.157-0.426-3.179-0.453c-0.172-0.029-0.369-0.029-0.541-0.029
				c-1.02,0-2.015,0.086-2.921,0.312c-0.145,0.029-0.258,0.057-0.369,0.114c-0.967,0.256-1.874,0.596-2.697,1.08l25.573-14.476
				c0.851-0.482,1.76-0.823,2.724-1.079c0.114-0.057,0.228-0.085,0.369-0.113c0.909-0.228,1.902-0.313,2.925-0.313
				c0.168,0,0.368,0,0.538,0.029c1.023,0.028,2.101,0.198,3.179,0.455c0.199,0.057,0.369,0.112,0.568,0.168
				c1.137,0.313,2.328,0.71,3.52,1.278c0.028,0.029,0.056,0.029,0.086,0.029c0.679,0.34,1.389,0.709,2.098,1.106
				c0.996,0.568,1.988,1.306,2.983,2.072c0.196,0.17,0.424,0.341,0.651,0.539c0.937,0.767,1.874,1.619,2.752,2.556
				c0.144,0.114,0.255,0.255,0.369,0.396c0.485,0.482,0.937,0.966,1.391,1.505c0.2,0.198,0.341,0.426,0.541,0.653
				c1.02,1.192,2.016,2.441,2.952,3.719c0.141,0.198,0.311,0.396,0.455,0.596c1.078,1.504,2.07,3.037,3.035,4.512
				c0.255,0.426,0.483,0.824,0.738,1.249c0.682,1.135,1.336,2.214,1.932,3.264c0.227,0.37,0.423,0.739,0.623,1.137
				c0.71,1.276,1.364,2.497,1.902,3.519c0.255,0.512,0.595,0.994,0.937,1.362c0.341,0.398,0.738,0.739,1.137,0.965
				c0.255,0.143,0.482,0.199,0.737,0.256c0.085,0.028,0.199,0.085,0.313,0.085c0,0,0.028,0,0.056,0l3.776-2.213
				c0.51-0.284,1.021-0.568,1.586-0.823c0.173-0.086,0.372-0.171,0.569-0.255c0.399-0.171,0.796-0.341,1.192-0.484
				c0.255-0.114,0.512-0.169,0.768-0.255c0.369-0.114,0.765-0.228,1.191-0.341c0.282-0.057,0.568-0.114,0.852-0.171
				c0.396-0.057,0.794-0.141,1.219-0.198c0.313-0.028,0.626-0.028,0.969-0.057c0.396-0.028,0.82-0.028,1.246-0.028
				c0.34,0.028,0.683,0.057,1.022,0.085c0.454,0.029,0.878,0.086,1.334,0.17c0.341,0.057,0.709,0.142,1.077,0.255
				c0.455,0.113,0.909,0.256,1.365,0.397c0.368,0.142,0.736,0.284,1.133,0.426c0.199,0.114,0.399,0.17,0.627,0.256
				c0.481,0.226,0.965,0.482,1.475,0.765c1.419,0.823,2.811,1.817,4.144,2.895c0.199,0.143,0.369,0.284,0.567,0.427
				c1.278,1.049,2.498,2.213,3.663,3.435c0.227,0.227,0.424,0.453,0.65,0.68c0.255,0.284,0.514,0.539,0.769,0.823
				c0.906,1.05,1.787,2.158,2.638,3.293c0.142,0.17,0.255,0.341,0.37,0.51c0.936,1.308,1.816,2.669,2.641,4.031
				c0.224,0.399,0.452,0.795,0.68,1.164c0.854,1.533,1.646,3.066,2.328,4.629c0.026,0.056,0.054,0.111,0.054,0.139
				c0.088,0.144,0.114,0.285,0.173,0.427c0.651,1.505,1.219,3.065,1.702,4.598c0.113,0.369,0.228,0.737,0.341,1.106
				c0.481,1.619,0.852,3.265,1.136,4.884c0.028,0.283,0.057,0.538,0.086,0.82c0.111,0.768,0.255,1.508,0.311,2.245
				C145.279,86.213,145.306,87.091,145.306,87.973z"/>
			<path fill="#0C5AE5" d="M83.714,146.187c-0.485,0-0.957-0.25-1.222-0.693c-0.397-0.671-0.178-1.535,0.49-1.94
				c9.713-5.86,26.931-17.762,33.098-31.632c1.486-2.572,2.203-5.713,2.203-9.474c0.026-1.354-0.1-2.878-0.379-4.691l-0.085-0.804
				c-0.29-1.668-0.658-3.259-1.093-4.718l-0.335-1.092c-0.496-1.574-1.055-3.074-1.65-4.451c-0.01-0.017-0.111-0.302-0.116-0.322
				c-0.647-1.46-1.369-2.899-2.383-4.756c-0.197-0.316-0.434-0.729-0.669-1.142c-0.871-1.441-1.712-2.728-2.559-3.905
				c-0.114-0.169-0.196-0.299-0.304-0.427c-0.953-1.311-2.004-2.581-3.366-4.072l-0.608-0.632c-1.249-1.308-2.406-2.395-3.56-3.342
				l-0.499-0.372c-1.438-1.159-2.772-2.093-4.022-2.816c-0.565-0.316-1.147-0.582-1.713-0.837l-0.266-0.122
				c-0.257-0.086-0.604-0.219-0.948-0.353c-0.451-0.147-0.878-0.279-1.306-0.385c-0.376-0.116-0.687-0.186-0.967-0.232
				c-0.421-0.081-0.792-0.13-1.186-0.155l-1.053-0.089c-0.271,0.005-0.663,0.005-1.028,0.033l-0.937,0.056
				c-0.333,0.044-0.693,0.094-1.053,0.172l-0.873,0.172c-0.316,0.088-0.699,0.199-1.05,0.308L83.62,63.67
				c-0.119,0.056-0.233,0.108-0.358,0.152l-5.444,3.152c-0.086,0.072-0.18,0.136-0.283,0.188c-0.538,0.322-1.172,0.46-1.766,0.396
				c-0.122-0.014-0.438-0.086-0.551-0.13c-0.089-0.006-0.413-0.061-0.768-0.238c-0.025-0.014-0.274-0.139-0.299-0.155
				c-0.523-0.299-1.028-0.721-1.466-1.225c-0.011-0.011-0.022-0.022-0.033-0.033l0,0c-0.438-0.474-0.818-1.031-1.134-1.663
				l-0.288-0.546c-0.472-0.89-1.009-1.91-1.585-2.946c-0.197-0.338-0.438-0.764-0.652-1.187c-0.549-0.938-1.194-2.033-1.871-3.13
				l-0.896-1.49c-0.898-1.375-1.824-2.795-2.825-4.191l-0.46-0.602c-0.9-1.228-1.871-2.449-2.872-3.613
				c-0.61-0.725-1.245-1.44-1.876-2.103l-0.235-0.276c-0.909-0.947-1.791-1.763-2.761-2.558l-0.677-0.558
				c-0.856-0.659-1.827-1.384-2.76-1.919c-0.71-0.411-1.419-0.763-2.098-1.088c-0.968-0.461-2.013-0.84-3.279-1.189l-0.338-0.101
				c-1.247-0.309-2.22-0.449-3.071-0.472c-0.291-0.036-0.402-0.032-0.502-0.029c-0.992,0-1.86,0.09-2.578,0.271
				c-0.091,0.046-0.25,0.082-0.349,0.108c-0.832,0.221-1.536,0.489-2.14,0.817l-0.222,0.125c-0.668,0.381-1.539,0.151-1.93-0.525
				c-0.388-0.677-0.161-1.539,0.513-1.934c0.086-0.051,0.175-0.101,0.263-0.149L61.36,20.492c0.873-0.495,1.837-0.884,2.946-1.185
				c0.21-0.087,0.405-0.131,0.571-0.165c1.062-0.267,2.476-0.548,3.978-0.289c0.84,0.008,2.007,0.173,3.265,0.469l0.375,0.111
				c1.641,0.459,2.816,0.882,3.914,1.399c0.067,0.021,0.133,0.048,0.197,0.08c0.696,0.351,1.425,0.729,2.154,1.138
				c1.131,0.646,2.223,1.466,3.154,2.186l0.718,0.593c1.029,0.84,2.001,1.744,2.855,2.655c0.105,0.059,0.289,0.286,0.421,0.452
				c0.43,0.42,0.907,0.933,1.389,1.505c0.078,0.068,0.213,0.239,0.352,0.417c0.003,0.004,0.18,0.223,0.183,0.228
				c1.042,1.22,2.059,2.496,3.019,3.803l0.46,0.603c1.006,1.403,1.934,2.823,2.836,4.204l1.252,2.076
				c0.599,0.994,1.172,1.947,1.699,2.876c0.224,0.363,0.441,0.767,0.66,1.202c0.687,1.233,1.344,2.464,1.887,3.494
				c0.197,0.394,0.455,0.771,0.724,1.06c0.277,0.32,0.546,0.552,0.792,0.693c0.044,0.025,0.091,0.043,0.178,0.065l3.287-1.927
				c0.571-0.318,1.121-0.621,1.725-0.892c0.113-0.06,0.299-0.142,0.487-0.223c0.599-0.255,0.988-0.418,1.375-0.557
				c0.131-0.064,0.36-0.136,0.594-0.204c0.62-0.191,1.033-0.31,1.48-0.429l1.521-0.287c0.235-0.042,0.479-0.083,0.726-0.116
				l1.035-0.063c0.452-0.032,0.91-0.034,1.369-0.034l1.137,0.089c0.488,0.031,0.967,0.094,1.483,0.191
				c0.368,0.061,0.801,0.159,1.232,0.292c0.386,0.094,0.847,0.237,1.306,0.38l1.25,0.464l-0.007,1.534l0.469-1.339
				c0.046,0.017,0.25,0.091,0.292,0.112c0.51,0.24,1.021,0.51,1.559,0.808c1.411,0.819,2.865,1.835,4.349,3.034l0.501,0.375
				c1.319,1.08,2.559,2.241,3.864,3.609l1.447,1.536c0.944,1.096,1.849,2.229,2.718,3.39c0.126,0.148,0.264,0.351,0.4,0.553
				c0.885,1.23,1.768,2.579,2.688,4.106c0.236,0.416,0.456,0.798,0.674,1.153c1.027,1.838,1.786,3.349,2.42,4.801
				c0.014,0.031,0.028,0.066,0.042,0.105c0.093,0.174,0.145,0.333,0.178,0.432c0.651,1.514,1.239,3.104,1.764,4.773l0.344,1.114
				c0.464,1.563,0.86,3.26,1.176,5.051l0.197,1.53c0.09,0.565,0.175,1.12,0.221,1.677c0.059,0.957,0.087,1.866,0.087,2.774
				c0,4.269-0.849,7.891-2.522,10.76c-6.927,15.595-15.721,21.665-25.655,27.452l-34.12,19.813
				C84.202,146.125,83.958,146.187,83.714,146.187z M89.335,59.902l1.139,0.091c0.483,0.029,0.964,0.093,1.48,0.19
				c0.368,0.061,0.801,0.161,1.233,0.292c0.405,0.101,0.887,0.25,1.367,0.4l1.563,0.607c0.635,0.29,1.288,0.589,1.943,0.956
				c1.394,0.81,2.85,1.824,4.342,3.027l0.503,0.377c1.316,1.081,2.556,2.24,3.858,3.609l0.632,0.66
				c1.479,1.616,2.594,2.963,3.55,4.286c0.117,0.133,0.261,0.343,0.402,0.554c0.862,1.197,1.743,2.55,2.672,4.085
				c0.239,0.413,0.458,0.798,0.678,1.153c1.091,1.999,1.843,3.504,2.475,4.945c0.055,0.067,0.124,0.277,0.168,0.416
				c0.641,1.48,1.23,3.071,1.758,4.751l0.344,1.114c0.472,1.575,0.864,3.271,1.175,5.056l0.104,0.931
				c0.297,1.896,0.429,3.582,0.401,5.073c0,4.24-0.849,7.861-2.518,10.735c-2.782,6.267-7.602,12.11-13.181,17.311l11.695-6.792
				c9.838-5.731,17.896-11.306,24.561-26.285c1.489-2.569,2.207-5.71,2.207-9.472c0-0.848-0.026-1.702-0.082-2.578
				c-0.037-0.463-0.114-0.942-0.192-1.43l-0.202-1.588c-0.283-1.577-0.651-3.168-1.084-4.612l-0.336-1.095
				c-0.492-1.563-1.047-3.065-1.647-4.452c-0.007-0.017-0.111-0.305-0.117-0.321c-0.064-0.105-0.106-0.202-0.133-0.302
				c-0.621-1.402-1.324-2.796-2.243-4.446c-0.204-0.33-0.439-0.74-0.674-1.153c-0.85-1.405-1.721-2.73-2.561-3.904
				c-0.118-0.177-0.202-0.305-0.307-0.431c-0.877-1.164-1.735-2.247-2.622-3.272l-1.346-1.425c-1.25-1.311-2.406-2.396-3.562-3.344
				l-0.494-0.369c-1.435-1.159-2.769-2.091-4.028-2.821c-0.458-0.254-0.913-0.496-1.367-0.711c-0.272-0.088-0.496-0.176-0.725-0.305
				l-0.825-0.29c-0.5-0.161-0.906-0.288-1.313-0.391c-0.381-0.114-0.687-0.185-0.97-0.232c-0.424-0.08-0.792-0.13-1.185-0.153
				l-1.051-0.086c-0.279,0.004-0.671,0.002-1.033,0.029l-2.858,0.4c-0.322,0.089-0.701,0.197-1.054,0.306
				c-0.383,0.115-0.496,0.144-0.609,0.194c-0.435,0.161-0.773,0.307-1.114,0.451l-0.588,0.262c-0.579,0.262-1.056,0.528-1.532,0.794
				l-3.748,2.197c-0.565,0.327-1.306,0.124-1.519,0.044c-0.213-0.043-0.579-0.136-0.998-0.37c-0.54-0.307-1.064-0.749-1.521-1.28
				c-0.413-0.445-0.827-1.047-1.128-1.652c-0.519-0.985-1.17-2.196-1.871-3.462c-0.211-0.414-0.388-0.749-0.594-1.083
				c-0.543-0.953-1.103-1.885-1.688-2.858l-1.2-1.986c-0.879-1.345-1.782-2.734-2.761-4.097l-0.458-0.599
				c-0.904-1.234-1.876-2.456-2.875-3.62c-0.091-0.105-0.186-0.224-0.274-0.341c-0.061-0.079-0.116-0.158-0.188-0.227
				c-0.51-0.599-0.937-1.054-1.392-1.506l-0.252-0.294c-0.92-0.959-1.802-1.777-2.767-2.565l-0.682-0.565
				c-1.003-0.769-1.89-1.417-2.758-1.913c-0.652-0.366-1.314-0.709-1.949-1.029c-0.047-0.019-0.094-0.039-0.141-0.061v0.004
				c-0.968-0.46-2.012-0.838-3.288-1.19l-0.324-0.097c-1.261-0.313-2.234-0.453-3.085-0.475c-0.299-0.035-0.404-0.029-0.499-0.029
				c-1.007,0-1.852,0.089-2.581,0.271c-0.085,0.044-0.255,0.084-0.349,0.109c-0.917,0.243-1.699,0.55-2.389,0.941l-18.441,10.44
				c0.66,0.076,1.414,0.21,2.204,0.396c0.03,0.008,0.327,0.097,0.358,0.105c1.674,0.467,2.899,0.914,4.01,1.444
				c0.746,0.358,1.516,0.743,2.287,1.187c1.081,0.618,2.145,1.412,3.138,2.178l0.718,0.592c1.031,0.846,2.004,1.746,2.855,2.651
				c0.113,0.075,0.299,0.305,0.432,0.473c0.599,0.62,1.272,1.379,1.916,2.14c1.04,1.211,2.054,2.488,3.013,3.793l0.465,0.612
				c1.023,1.427,1.974,2.881,2.891,4.289l0.945,1.569c0.679,1.102,1.336,2.219,1.938,3.25c0.227,0.446,0.44,0.816,0.626,1.134
				c0.602,1.082,1.15,2.122,1.63,3.029l0.302,0.572c0.2,0.399,0.424,0.738,0.666,1.004c0.033,0.033,0.066,0.066,0.097,0.103
				c0.23,0.269,0.507,0.507,0.759,0.651l0.272,0.089c0.036,0.005,0.091,0.022,0.149,0.039c0.05-0.017,0.114-0.03,0.169-0.044
				c0.012-0.008,0.022-0.017,0.037-0.022l5.79-3.348c0.133-0.078,0.277-0.133,0.429-0.164c0.008-0.028,0.123-0.081,0.255-0.125
				c0.117-0.044,0.294-0.098,0.474-0.148c0.011-0.003,0.288-0.086,0.296-0.09c0.385-0.118,0.801-0.237,1.242-0.355l0.945-0.191
				c0.413-0.089,0.845-0.151,1.309-0.213l1.039-0.065C88.41,59.903,88.872,59.902,89.335,59.902z M101.326,51.26l-0.059,0.351
				l0.106-0.269L101.326,51.26z M101.512,50.251l0.028,0.68l0.255-0.639C101.775,50.286,101.671,50.251,101.512,50.251z"/>
		</g>
		<g>
			<path fill="#D4E6FC" d="M145.306,87.973c0,4.085-0.822,7.464-2.327,10.048c-6.67,14.987-14.816,20.918-25.147,26.937
				l-34.117,19.81c10.588-6.386,27.419-18.222,33.664-32.269c1.503-2.584,2.325-5.963,2.325-10.051
				c0.031-1.589-0.142-3.263-0.396-4.909c-0.028-0.286-0.056-0.541-0.086-0.824c-0.282-1.618-0.651-3.265-1.133-4.883
				c-0.115-0.366-0.229-0.738-0.342-1.104c-0.482-1.536-1.051-3.096-1.704-4.601c-0.056-0.139-0.084-0.283-0.169-0.424
				c-0.711-1.619-1.533-3.207-2.385-4.771c-0.227-0.366-0.454-0.765-0.681-1.164c-0.824-1.361-1.702-2.722-2.64-4.03
				c-0.113-0.169-0.227-0.338-0.368-0.51c-1.051-1.447-2.215-2.811-3.407-4.113c-0.228-0.228-0.426-0.455-0.653-0.682
				c-1.164-1.22-2.384-2.384-3.662-3.438c-0.197-0.138-0.368-0.283-0.565-0.423c-1.336-1.079-2.725-2.071-4.144-2.897
				c-0.709-0.394-1.419-0.709-2.101-1.02c-0.399-0.141-0.768-0.283-1.136-0.425c-0.455-0.143-0.91-0.284-1.361-0.397
				c-0.369-0.114-0.74-0.199-1.078-0.255c-0.455-0.086-0.881-0.143-1.336-0.17l-1.02-0.086c-0.427,0-0.854,0-1.25,0.029
				c-0.34,0.028-0.651,0.028-0.964,0.057c-0.427,0.057-0.824,0.114-1.22,0.198c-0.286,0.057-0.568,0.113-0.854,0.17
				c-0.424,0.114-0.823,0.228-1.191,0.341c-0.255,0.084-0.51,0.141-0.738,0.227c-0.169,0.057-0.283,0.14-0.427,0.171l18.876-10.843
				l3.776-2.213c0.51-0.284,1.021-0.568,1.586-0.823c0.173-0.086,0.372-0.171,0.569-0.255c0.399-0.171,0.796-0.341,1.192-0.484
				c0.255-0.114,0.512-0.169,0.768-0.255c0.369-0.114,0.765-0.228,1.191-0.341c0.282-0.057,0.568-0.114,0.852-0.171
				c0.396-0.057,0.794-0.141,1.219-0.198c0.313-0.028,0.626-0.028,0.969-0.057c0.396-0.028,0.82-0.028,1.246-0.028
				c0.34,0.028,0.683,0.057,1.022,0.085c0.454,0.029,0.878,0.086,1.334,0.17c0.341,0.057,0.709,0.142,1.077,0.255
				c0.455,0.113,0.909,0.256,1.365,0.397c0.368,0.142,0.736,0.284,1.133,0.426c0.199,0.114,0.399,0.17,0.627,0.256
				c0.481,0.226,0.965,0.482,1.475,0.765c1.419,0.823,2.811,1.817,4.144,2.895c0.199,0.143,0.369,0.284,0.567,0.427
				c1.278,1.049,2.498,2.213,3.663,3.435c0.227,0.227,0.424,0.453,0.65,0.68c0.255,0.284,0.514,0.539,0.769,0.823
				c0.906,1.05,1.787,2.158,2.638,3.293c0.142,0.17,0.255,0.341,0.37,0.51c0.936,1.308,1.816,2.669,2.641,4.031
				c0.224,0.399,0.452,0.795,0.68,1.164c0.854,1.533,1.646,3.066,2.328,4.629c0.026,0.056,0.054,0.111,0.054,0.139
				c0.088,0.144,0.114,0.285,0.173,0.427c0.651,1.505,1.219,3.065,1.702,4.598c0.113,0.369,0.228,0.737,0.341,1.106
				c0.481,1.619,0.852,3.265,1.136,4.884c0.028,0.283,0.057,0.538,0.086,0.82c0.111,0.768,0.255,1.508,0.311,2.245
				C145.279,86.213,145.306,87.091,145.306,87.973z"/>
			<path fill="#0C5AE5" d="M83.714,146.187c-0.485,0-0.957-0.25-1.222-0.693c-0.397-0.671-0.178-1.535,0.49-1.94
				c9.713-5.86,26.931-17.762,33.098-31.632c1.486-2.572,2.203-5.713,2.203-9.474c0.026-1.354-0.1-2.878-0.379-4.691l-0.085-0.804
				c-0.29-1.668-0.658-3.259-1.093-4.718l-0.335-1.092c-0.496-1.574-1.055-3.074-1.653-4.451c-0.007-0.017-0.108-0.302-0.113-0.322
				c-0.647-1.46-1.369-2.899-2.383-4.756c-0.197-0.316-0.434-0.729-0.669-1.142c-0.871-1.441-1.712-2.728-2.559-3.905
				c-0.114-0.169-0.196-0.299-0.304-0.427c-0.953-1.311-2.004-2.581-3.366-4.072l-0.608-0.632c-1.249-1.308-2.406-2.395-3.56-3.342
				l-0.499-0.372c-1.438-1.159-2.772-2.093-4.022-2.816c-0.565-0.316-1.147-0.582-1.713-0.837l-0.266-0.122
				c-0.257-0.086-0.604-0.219-0.948-0.353c-0.451-0.147-0.878-0.279-1.306-0.385c-0.376-0.116-0.687-0.186-0.967-0.232
				c-0.421-0.081-0.792-0.13-1.186-0.155l-1.053-0.089c-0.271,0.005-0.663,0.005-1.028,0.033l-0.937,0.056
				c-0.333,0.044-0.693,0.094-1.053,0.172l-0.873,0.172c-0.316,0.088-0.699,0.199-1.05,0.308L83.62,63.67
				c-0.203,0.094-0.396,0.183-0.649,0.235c-0.698,0.13-1.363-0.241-1.607-0.89c-0.247-0.654,0.017-1.386,0.621-1.732l22.64-13.05
				c0.571-0.318,1.121-0.621,1.725-0.892c0.113-0.06,0.299-0.142,0.487-0.223c0.599-0.255,0.988-0.418,1.375-0.557
				c0.131-0.064,0.36-0.136,0.594-0.204c0.62-0.191,1.033-0.31,1.48-0.429l1.521-0.287c0.235-0.042,0.479-0.083,0.726-0.116
				l1.035-0.063c0.452-0.032,0.91-0.034,1.369-0.034l1.137,0.089c0.488,0.031,0.967,0.094,1.483,0.191
				c0.368,0.061,0.801,0.159,1.232,0.292c0.386,0.094,0.847,0.237,1.306,0.38l1.25,0.464l-0.007,1.534l0.469-1.339
				c0.046,0.017,0.25,0.091,0.292,0.112c0.51,0.24,1.021,0.51,1.559,0.808c1.411,0.819,2.865,1.835,4.349,3.034l0.501,0.375
				c1.319,1.08,2.559,2.241,3.864,3.609l1.447,1.536c0.944,1.096,1.849,2.229,2.718,3.39c0.126,0.148,0.264,0.351,0.4,0.553
				c0.885,1.23,1.768,2.579,2.688,4.106c0.236,0.416,0.456,0.798,0.674,1.153c1.027,1.838,1.786,3.349,2.42,4.801
				c0.014,0.031,0.028,0.066,0.042,0.105c0.093,0.174,0.145,0.333,0.178,0.432c0.651,1.514,1.239,3.104,1.764,4.773l0.344,1.114
				c0.464,1.563,0.86,3.26,1.176,5.051l0.197,1.53c0.09,0.565,0.175,1.12,0.221,1.677c0.059,0.957,0.087,1.866,0.087,2.774
				c0,4.269-0.849,7.891-2.522,10.76c-6.927,15.595-15.721,21.665-25.655,27.452l-34.12,19.813
				C84.202,146.125,83.958,146.187,83.714,146.187z M89.996,59.954l0.479,0.039c0.483,0.029,0.964,0.093,1.48,0.19
				c0.368,0.061,0.801,0.161,1.233,0.292c0.405,0.101,0.887,0.25,1.367,0.4l1.563,0.607c0.635,0.29,1.288,0.589,1.943,0.956
				c1.394,0.81,2.85,1.824,4.342,3.027l0.503,0.377c1.316,1.081,2.556,2.24,3.858,3.609l0.632,0.66
				c1.479,1.616,2.594,2.963,3.55,4.286c0.117,0.133,0.261,0.343,0.402,0.554c0.862,1.197,1.743,2.55,2.672,4.085
				c0.239,0.413,0.458,0.798,0.678,1.153c1.091,1.999,1.843,3.504,2.475,4.945c0.055,0.067,0.124,0.277,0.168,0.416
				c0.641,1.48,1.23,3.071,1.758,4.751l0.344,1.114c0.472,1.575,0.864,3.271,1.175,5.056l0.104,0.931
				c0.297,1.896,0.429,3.582,0.401,5.073c0,4.24-0.849,7.861-2.518,10.735c-2.782,6.267-7.602,12.11-13.181,17.311l11.695-6.792
				c9.838-5.731,17.896-11.306,24.561-26.285c1.489-2.569,2.207-5.71,2.207-9.472c0-0.848-0.026-1.702-0.082-2.578
				c-0.037-0.463-0.114-0.942-0.192-1.43l-0.202-1.588c-0.283-1.577-0.651-3.168-1.084-4.612l-0.336-1.095
				c-0.492-1.563-1.047-3.065-1.647-4.452c-0.007-0.017-0.111-0.305-0.117-0.321c-0.064-0.105-0.106-0.202-0.133-0.302
				c-0.621-1.402-1.324-2.796-2.243-4.446c-0.204-0.33-0.439-0.74-0.674-1.153c-0.85-1.405-1.721-2.73-2.561-3.904
				c-0.118-0.177-0.202-0.305-0.307-0.431c-0.877-1.164-1.735-2.247-2.622-3.272l-1.346-1.425c-1.25-1.311-2.406-2.396-3.562-3.344
				l-0.494-0.369c-1.435-1.159-2.769-2.091-4.028-2.821c-0.458-0.254-0.913-0.496-1.367-0.711c-0.272-0.088-0.496-0.176-0.725-0.305
				l-0.825-0.29c-0.5-0.161-0.906-0.288-1.313-0.391c-0.381-0.114-0.687-0.185-0.97-0.232c-0.424-0.08-0.792-0.13-1.185-0.153
				l-1.051-0.086c-0.279,0.004-0.671,0.002-1.033,0.029l-2.858,0.4c-0.322,0.089-0.701,0.197-1.054,0.306
				c-0.383,0.115-0.496,0.144-0.609,0.194c-0.435,0.161-0.773,0.307-1.114,0.451l-0.588,0.262c-0.579,0.262-1.056,0.528-1.532,0.794
				L89.996,59.954z"/>
		</g>
	</g>
	<g>
		<path fill="#0C5AE5" d="M102.889,173.718c0,0,13.064,13.746,38.196-0.163c9.849-5.449,17.894-9.995,24.04-13.513
			c6.541-3.744,6.625-13.135,0.155-17.005l-45.363-27.128l-9.408,31.935L102.889,173.718z"/>
		<path fill="#0C5AE5" d="M119.802,181.25c-11.516,0-17.565-6.159-17.94-6.553c-0.35-0.366-0.477-0.893-0.332-1.38l17.026-57.809
			c0.124-0.422,0.435-0.759,0.845-0.92c0.409-0.155,0.866-0.122,1.245,0.104l45.363,27.128c3.476,2.079,5.529,5.737,5.491,9.788
			c-0.04,4.041-2.159,7.655-5.672,9.668c-7.467,4.271-15.56,8.819-24.056,13.521C133.035,179.63,125.7,181.25,119.802,181.25z
			 M104.497,173.278c2.723,2.351,14.705,10.766,35.899-0.965c8.482-4.692,16.564-9.235,24.023-13.504
			c2.629-1.502,4.214-4.204,4.242-7.229c0.029-3.029-1.509-5.766-4.111-7.323l-43.792-26.188L104.497,173.278z"/>
	</g>
	<g>
		<g>
			<path fill="#FFFFFF" d="M117.798,117.268c8.139,4.698,14.687,16.063,14.662,25.415c-0.009,2.688-0.552,4.895-1.526,6.58
				c-6.036,13.516-26.943,23.909-28.045,24.455c-1.022-1.729-20.417-34.595-27.154-54.968c-1.367-3.355-2.154-6.823-2.143-10.056
				c0.025-9.352,6.638-13.119,14.773-8.421c5.926,3.421,10.998,12.305,13.33,16.864c0.353,0.695,0.85,1.23,1.349,1.519
				c0.5,0.289,0.999,0.33,1.356,0.042C106.748,116.841,111.875,113.845,117.798,117.268z"/>
			<path fill="#0C5AE5" d="M102.889,175.137c-0.485,0-0.958-0.252-1.222-0.695c-2.092-3.539-20.633-35.151-27.28-55.241
				c-1.45-3.554-2.226-7.219-2.215-10.511c0.014-5.034,1.799-8.832,5.031-10.688c3.246-1.869,7.465-1.502,11.872,1.042
				c6.126,3.537,11.328,12.451,13.884,17.446c0.244,0.487,0.557,0.792,0.778,0.929c2.4-1.839,8.188-5.187,14.771-1.378
				c8.501,4.906,15.395,16.857,15.37,26.646c-0.009,2.876-0.585,5.33-1.715,7.287c-6.013,13.481-26.344,23.876-28.644,25.018
				C103.318,175.09,103.104,175.137,102.889,175.137z M81.76,99.664c-1.159,0-2.217,0.266-3.141,0.798
				c-2.317,1.33-3.598,4.258-3.609,8.235c-0.011,2.928,0.696,6.217,2.037,9.521c6.084,18.382,22.76,47.408,26.388,53.626
				c4.853-2.548,21.104-11.744,26.205-23.159c0.942-1.654,1.391-3.631,1.399-6.009c0.024-8.881-6.233-19.727-13.95-24.182l0,0
				c-5.101-2.942-9.591-0.44-11.808,1.314c-0.805,0.648-1.908,0.676-2.946,0.078c-0.769-0.444-1.445-1.192-1.908-2.112
				c-2.409-4.712-7.278-13.1-12.773-16.271C85.544,100.286,83.534,99.664,81.76,99.664z M103.52,117.587
				c-0.004,0.003-0.006,0.005-0.009,0.005C103.514,117.592,103.516,117.59,103.52,117.587z"/>
		</g>
		<g>
			<path fill="#FFFFFF" d="M149.251,133.187c-0.028,2.697-0.569,4.911-1.533,6.585c-4.398,9.821-9.707,13.71-16.489,17.657
				l-22.366,12.969c6.955-4.144,17.968-11.922,22.08-21.146c0.968-1.674,1.505-3.886,1.505-6.585c0-1.021-0.086-2.129-0.255-3.204
				c-0.028-0.172-0.028-0.372-0.056-0.541c-0.171-1.05-0.426-2.129-0.74-3.207c-0.082-0.227-0.142-0.482-0.227-0.709
				c-0.312-1.023-0.68-2.019-1.105-3.038c-0.056-0.083-0.087-0.173-0.113-0.255c-0.483-1.051-0.993-2.102-1.589-3.121
				c-0.145-0.255-0.286-0.513-0.428-0.768c-0.539-0.907-1.136-1.788-1.731-2.642c-0.084-0.111-0.169-0.225-0.255-0.338
				c-0.683-0.965-1.447-1.847-2.215-2.697c-0.142-0.142-0.283-0.313-0.425-0.455c-0.768-0.796-1.59-1.561-2.414-2.242
				c-0.109-0.11-0.255-0.199-0.368-0.282c-0.878-0.71-1.787-1.364-2.725-1.902c-0.481-0.255-0.938-0.454-1.39-0.653
				c-0.227-0.111-0.483-0.2-0.738-0.283c-0.283-0.113-0.597-0.199-0.88-0.282c-0.255-0.059-0.481-0.116-0.709-0.145
				c-0.286-0.056-0.568-0.11-0.881-0.11c-0.197-0.031-0.425-0.059-0.651-0.059c-0.283-0.03-0.569,0-0.824,0
				c-0.227,0.027-0.428,0.027-0.623,0.059c-0.286,0.027-0.541,0.083-0.824,0.11c-0.171,0.055-0.368,0.086-0.567,0.113
				c-0.255,0.059-0.511,0.142-0.768,0.228c-0.169,0.059-0.339,0.114-0.483,0.169c-0.113,0.03-0.195,0.059-0.281,0.117l-3.775,2.155
				v0.028l-0.114,0.055c-0.169,0.117-0.368,0.146-0.568,0.117c-0.056,0-0.113-0.03-0.197-0.059c-0.113-0.03-0.199-0.03-0.313-0.085
				c-0.058-0.028-0.113-0.057-0.17-0.084c-0.256-0.145-0.513-0.371-0.739-0.626c0,0-0.028,0-0.028-0.028
				c-0.199-0.227-0.426-0.537-0.596-0.881c-0.34-0.651-0.765-1.475-1.219-2.298c-0.144-0.255-0.286-0.51-0.427-0.737
				c-0.396-0.683-0.823-1.419-1.248-2.129c-0.172-0.285-0.341-0.541-0.513-0.823c-0.623-0.992-1.278-1.987-1.987-2.952
				c-0.083-0.142-0.196-0.285-0.282-0.396c-0.624-0.854-1.278-1.674-1.93-2.442c-0.427-0.481-0.854-0.964-1.278-1.419
				c-0.085-0.085-0.142-0.196-0.227-0.255c-0.596-0.623-1.192-1.164-1.815-1.677c-0.144-0.139-0.286-0.255-0.427-0.366
				c-0.655-0.483-1.306-0.964-1.96-1.364c-0.482-0.255-0.964-0.51-1.418-0.737c-0.793-0.372-1.561-0.626-2.326-0.854
				c-0.114-0.027-0.228-0.055-0.369-0.083c-0.71-0.172-1.392-0.283-2.074-0.313h-0.368c-0.654,0-1.306,0.059-1.902,0.2
				c-0.085,0-0.171,0.028-0.255,0.059c-0.626,0.168-1.222,0.394-1.76,0.709l16.774-9.483c0.538-0.313,1.134-0.54,1.761-0.709
				c0.083-0.027,0.168-0.058,0.255-0.085c0.596-0.111,1.247-0.197,1.901-0.169h0.369c0.682,0.03,1.361,0.114,2.101,0.313
				c0.113,0.028,0.227,0.056,0.368,0.083c0.737,0.2,1.505,0.483,2.298,0.854c0.031,0,0.031,0,0.06,0.027
				c0.453,0.2,0.905,0.455,1.359,0.709c0.683,0.396,1.306,0.851,1.96,1.364c0.142,0.111,0.283,0.227,0.425,0.338
				c0.626,0.51,1.222,1.081,1.816,1.674c0.088,0.086,0.17,0.172,0.255,0.256c0.283,0.343,0.598,0.654,0.91,0.995
				c0.113,0.142,0.229,0.286,0.342,0.423c0.679,0.799,1.306,1.619,1.929,2.442c0.086,0.141,0.199,0.285,0.311,0.396
				c0.709,0.996,1.364,1.991,1.987,2.983c0.173,0.255,0.313,0.538,0.481,0.793c0.456,0.737,0.882,1.447,1.252,2.129
				c0.141,0.255,0.28,0.513,0.426,0.767c0.452,0.824,0.906,1.617,1.248,2.299c0.171,0.344,0.368,0.654,0.595,0.909
				c0.228,0.255,0.482,0.481,0.737,0.626c0.173,0.084,0.342,0.11,0.513,0.169c0.056,0,0.113,0.059,0.17,0.059l0.058-0.03
				l2.468-1.419c0.341-0.197,0.681-0.396,1.049-0.568c0.114-0.056,0.259-0.083,0.37-0.142c0.257-0.113,0.512-0.227,0.795-0.342
				c0.173-0.055,0.313-0.082,0.483-0.141c0.255-0.086,0.512-0.169,0.794-0.228c0.17-0.059,0.368-0.085,0.569-0.113
				c0.255-0.056,0.51-0.083,0.794-0.142c0.197,0,0.398-0.03,0.625-0.03c0.283,0,0.538-0.028,0.822-0.028
				c0.229,0.028,0.456,0.028,0.683,0.059c0.283,0.028,0.565,0.059,0.85,0.114c0.257,0.056,0.484,0.113,0.711,0.172
				c0.311,0.083,0.595,0.165,0.906,0.255c0.227,0.082,0.481,0.197,0.74,0.282c0.141,0.083,0.255,0.113,0.396,0.172
				c0.341,0.139,0.655,0.311,0.966,0.51c0.936,0.538,1.845,1.192,2.725,1.874c0.142,0.111,0.255,0.197,0.368,0.283
				c0.854,0.709,1.646,1.447,2.414,2.27c0.142,0.142,0.283,0.286,0.425,0.455l0.513,0.51c0.596,0.709,1.161,1.419,1.729,2.188
				c0.087,0.083,0.142,0.227,0.229,0.338c0.623,0.854,1.19,1.732,1.731,2.642c0.142,0.255,0.311,0.481,0.454,0.767
				c0.538,0.993,1.079,1.985,1.532,3.008c0,0.028,0.028,0.086,0.028,0.114c0.056,0.082,0.087,0.169,0.113,0.255
				c0.425,0.992,0.796,2.015,1.107,3.038c0.085,0.227,0.171,0.454,0.227,0.709c0.314,1.075,0.569,2.129,0.738,3.204
				c0.029,0.172,0.058,0.344,0.086,0.544c0.058,0.481,0.141,0.991,0.171,1.475C149.223,132.023,149.251,132.622,149.251,133.187z"/>
			<path fill="#0C5AE5" d="M108.862,171.817c-0.485,0-0.958-0.252-1.222-0.701c-0.396-0.671-0.175-1.535,0.496-1.937
				c6.289-3.748,17.448-11.396,21.509-20.504c0.939-1.644,1.383-3.62,1.383-6.009c0-0.959-0.082-1.993-0.237-2.985
				c-0.006-0.039-0.04-0.347-0.042-0.386c-0.166-1.089-0.401-2.112-0.716-3.188c-0.02-0.042-0.063-0.188-0.104-0.335
				c-0.011-0.03-0.108-0.327-0.117-0.357c-0.297-0.976-0.647-1.924-1.056-2.899c-0.017-0.036-0.142-0.327-0.156-0.36
				c-0.401-0.859-0.892-1.868-1.463-2.85l-0.368-0.659c-0.577-0.976-1.153-1.824-1.729-2.65l-0.166-0.222
				c-0.733-1.031-1.48-1.888-2.192-2.678l-0.217-0.232c-0.905-0.943-1.691-1.675-2.475-2.323l0.642-1.303l-0.953,1.067
				c-0.951-0.768-1.782-1.351-2.587-1.813c-0.375-0.2-0.778-0.375-1.176-0.552c-0.301-0.145-0.485-0.2-0.673-0.26
				c-0.293-0.115-0.504-0.173-0.699-0.233c-0.356-0.087-0.498-0.122-0.64-0.139c-0.295-0.055-0.486-0.103-0.699-0.103
				c-0.336-0.034-0.494-0.056-0.651-0.056c-0.275-0.02-0.396-0.014-0.517-0.008c-0.016,0-0.292,0.008-0.308,0.008l-0.81,0.095
				c-0.119,0.019-0.237,0.035-0.359,0.052c-0.203,0.056-0.425,0.092-0.651,0.122c-0.079,0.022-0.269,0.089-0.463,0.15l-0.461,0.163
				l-3.673,2.067c-0.083,0.069-0.174,0.131-0.271,0.181c-0.411,0.266-0.944,0.386-1.511,0.305c-0.103-0.011-0.335-0.072-0.429-0.105
				c-0.128-0.024-0.405-0.113-0.522-0.172c-0.585-0.31-0.955-0.615-1.308-1.006c-0.02-0.02-0.041-0.041-0.058-0.064h-0.003
				c-0.316-0.359-0.599-0.78-0.801-1.186l-0.153-0.293c-0.302-0.583-0.66-1.268-1.037-1.952c-0.172-0.299-0.279-0.496-0.39-0.671
				c-0.006-0.014-0.153-0.261-0.158-0.274l-1.611-2.694c-0.593-0.945-1.227-1.909-1.915-2.846l0.907-1.176l-1.128,0.859
				c-0.667-0.906-1.3-1.702-1.929-2.444c-0.4-0.45-0.818-0.924-1.234-1.37c-0.027-0.027-0.104-0.122-0.154-0.181
				c-0.023-0.019-0.042-0.041-0.064-0.063c-0.551-0.582-1.106-1.08-1.688-1.557c-0.203-0.188-0.308-0.272-0.416-0.36
				c-0.602-0.441-1.203-0.889-1.807-1.254c-0.482-0.254-0.912-0.481-1.317-0.682c-0.69-0.321-1.394-0.554-2.095-0.759
				c-0.02-0.005-0.277-0.061-0.297-0.066c-0.685-0.167-1.255-0.252-1.801-0.277l-0.308,0.002c-0.599,0-1.125,0.053-1.572,0.161
				c-0.108,0.025-0.219,0.04-0.33,0.04c-0.404,0.146-0.826,0.313-1.194,0.512l-0.122,0.07c-0.679,0.379-1.539,0.149-1.929-0.53
				c-0.388-0.676-0.158-1.538,0.516-1.932c0.05-0.03,0.103-0.059,0.153-0.086l16.639-9.402c0.599-0.349,1.286-0.626,2.087-0.845
				c0.033-0.008,0.325-0.103,0.361-0.108c0.845-0.161,1.549-0.216,2.228-0.194l0.308-0.003c0.917,0.036,1.686,0.15,2.467,0.36
				l0.288,0.066c0.898,0.238,1.749,0.551,2.611,0.954v0.003c0.02,0.008,0.042,0.017,0.061,0.028
				c0.485,0.215,0.968,0.481,1.453,0.756c0.757,0.441,1.433,0.929,2.14,1.483c0.005,0.005,0.222,0.177,0.226,0.18
				c0.005,0.002,0.218,0.174,0.223,0.181c0.664,0.538,1.296,1.139,1.924,1.768c0.031,0.033,0.316,0.321,0.344,0.354
				c0.173,0.205,0.358,0.402,0.551,0.605l0.312,0.333c0.023,0.024,0.214,0.263,0.232,0.288c0.84,0.992,1.484,1.837,2.125,2.683
				c0.049,0.05,0.289,0.372,0.335,0.43c0.726,1.018,1.393,2.032,2.031,3.049c0.082,0.122,0.181,0.286,0.276,0.451l0.188,0.316
				c0.494,0.799,0.936,1.533,1.314,2.237l0.783,1.41c0.338,0.605,0.655,1.181,0.913,1.697c0.128,0.249,0.259,0.454,0.386,0.599
				c0.088,0.097,0.168,0.174,0.238,0.232l1.94-1.117c0.393-0.23,0.762-0.44,1.161-0.624c0.051-0.024,0.282-0.116,0.335-0.132
				l0.896-0.38c0.053-0.02,0.344-0.108,0.396-0.125c0.471-0.15,0.787-0.25,1.131-0.318c0.063-0.033,0.341-0.081,0.621-0.125
				c0.086-0.02,0.252-0.047,0.423-0.075l0.787-0.092c0.14-0.011,0.283-0.021,0.437-0.021l0.822-0.028l0.423,0.033
				c0.146,0.006,0.293,0.017,0.439,0.037c0.288,0.026,0.616,0.063,0.948,0.13l2.527,0.754c0.098,0.033,0.192,0.078,0.281,0.128
				c0.632,0.255,1.016,0.46,1.396,0.703c0.82,0.472,1.738,1.101,2.829,1.949l0.306,0.235c1.037,0.856,1.868,1.641,2.645,2.473
				c0.138,0.136,0.308,0.31,0.479,0.515l0.422,0.41c0.7,0.827,1.283,1.559,1.868,2.346c0.033,0.044,0.192,0.274,0.217,0.321
				c0.668,0.914,1.26,1.832,1.824,2.783l0.171,0.283c0.113,0.177,0.225,0.36,0.33,0.565c0.557,1.03,1.103,2.037,1.563,3.073
				c0.024,0.056,0.044,0.114,0.063,0.169c0.058,0.127,0.1,0.244,0.131,0.341c0.397,0.918,0.789,1.988,1.113,3.058
				c0.08,0.205,0.186,0.496,0.255,0.82c0.341,1.164,0.589,2.24,0.754,3.29l0.147,1.018c0.052,0.377,0.103,0.76,0.125,1.128
				c0.055,0.565,0.086,1.209,0.086,1.821c0,0.005,0,0.011,0,0.017c-0.031,2.896-0.609,5.344-1.722,7.278
				c-4.626,10.339-10.442,14.353-17.007,18.172l-22.367,12.973C109.352,171.756,109.106,171.817,108.862,171.817z M113.464,114.382
				c0.217,0,0.552,0.059,0.891,0.129c0.141,0.01,0.368,0.06,0.614,0.118c0.031,0.009,0.348,0.089,0.375,0.097
				c0.283,0.084,0.585,0.175,0.859,0.286c0.249,0.08,0.565,0.191,0.845,0.329c0.471,0.205,0.932,0.41,1.415,0.669
				c0.979,0.563,1.931,1.228,2.956,2.054c0.18,0.122,0.349,0.25,0.49,0.394c0.752,0.612,1.603,1.402,2.419,2.247l0.239,0.259
				c0.02,0.017,0.203,0.216,0.219,0.232c0.771,0.854,1.587,1.791,2.319,2.828l0.243,0.32c0.634,0.903,1.25,1.815,1.807,2.753
				l0.443,0.796c0.609,1.042,1.14,2.134,1.641,3.227c0.051,0.071,0.1,0.222,0.133,0.299c0.447,1.069,0.833,2.106,1.155,3.171
				c0.026,0.061,0.075,0.222,0.122,0.38c0.013,0.03,0.1,0.318,0.112,0.35c0.344,1.183,0.604,2.319,0.775,3.373
				c0.008,0.041,0.04,0.352,0.045,0.394c0.19,1.292,0.284,2.478,0.284,3.581c0,2.894-0.57,5.35-1.696,7.295
				c-1.394,3.135-3.562,6.099-6.075,8.803l4.422-2.565c6.349-3.692,11.555-7.291,15.906-17.009c0.932-1.629,1.384-3.608,1.408-6.009
				c0-0.521-0.024-1.066-0.078-1.588c-0.021-0.353-0.066-0.669-0.106-0.979l-0.135-0.926c-0.148-0.959-0.373-1.924-0.703-3.061
				c-0.064-0.277-0.131-0.438-0.192-0.604c-0.326-1.06-0.679-2.034-1.082-2.979c-0.089-0.139-0.153-0.309-0.192-0.48
				c-0.419-0.923-0.905-1.823-1.395-2.722c-0.109-0.214-0.18-0.321-0.246-0.427l-0.232-0.386c-0.497-0.831-1.04-1.674-1.635-2.489
				c-0.032-0.041-0.156-0.235-0.181-0.279c-0.593-0.798-1.143-1.486-1.719-2.173l-0.427-0.416c-0.202-0.232-0.315-0.346-0.427-0.457
				c-0.73-0.779-1.476-1.483-2.316-2.182l-0.353-0.271c-0.968-0.748-1.783-1.312-2.542-1.747c-0.301-0.188-0.541-0.321-0.807-0.432
				c-0.16-0.062-0.291-0.111-0.424-0.177c-0.146-0.054-0.286-0.108-0.423-0.164l-1.665-0.463c-0.208-0.042-0.445-0.063-0.681-0.089
				l-0.716-0.062l-1.764,0.178c-0.229,0.039-0.335,0.044-0.424,0.072c-0.393,0.092-0.594,0.16-0.796,0.228
				c-0.024,0.011-0.297,0.088-0.323,0.097l-0.763,0.308c-0.042,0.02-0.34,0.139-0.386,0.152c-0.346,0.158-0.641,0.33-0.934,0.499
				l-2.503,1.441c-0.354,0.205-0.884,0.267-1.327,0.105c-0.018-0.006-0.036-0.011-0.054-0.017c-0.303-0.086-0.496-0.147-0.691-0.244
				c-0.445-0.247-0.815-0.557-1.172-0.957c-0.295-0.329-0.559-0.726-0.803-1.208c-0.244-0.487-0.543-1.027-0.858-1.596l-0.716-1.287
				c-0.438-0.809-0.851-1.496-1.292-2.209c-0.071-0.108-0.164-0.266-0.255-0.424l-0.197-0.327c-0.632-1.003-1.272-1.974-1.966-2.944
				v0.003c-0.016,0-0.204-0.219-0.37-0.493c-0.521-0.677-1.131-1.478-1.791-2.249c-0.01-0.014-0.191-0.238-0.198-0.25l-0.396-0.449
				c-0.23-0.244-0.457-0.485-0.669-0.737c-0.729-0.721-1.288-1.259-1.88-1.741l0.475-1.436l-0.872,1.117
				c-0.603-0.469-1.174-0.89-1.8-1.256c-0.4-0.222-0.807-0.455-1.217-0.632c-0.03-0.017-0.063-0.033-0.095-0.049
				c-0.712-0.33-1.408-0.588-2.062-0.763l-0.352-0.08c-0.591-0.161-1.162-0.244-1.808-0.271l-0.311,0.002
				c-0.529-0.024-1.014,0.025-1.635,0.147c-0.709,0.21-1.173,0.396-1.569,0.626l-10.946,6.188c0.05,0.01,0.1,0.021,0.15,0.033
				l0.324,0.074c0.846,0.247,1.713,0.525,2.636,0.954c0.46,0.229,0.906,0.469,1.357,0.707c0.874,0.515,1.547,1.009,2.221,1.507
				c0.266,0.211,0.443,0.355,0.624,0.53c0.571,0.463,1.208,1.04,1.849,1.71h-0.003c0.097,0.095,0.188,0.197,0.241,0.267
				c0.429,0.463,0.865,0.954,1.3,1.447c0.692,0.812,1.369,1.662,2.012,2.541c0.139,0.181,0.266,0.353,0.363,0.524
				c0.648,0.864,1.322,1.888,1.965,2.91l1.646,2.755c0.247,0.41,0.378,0.644,0.51,0.876c0.461,0.832,0.826,1.535,1.14,2.141
				l0.166,0.315c0.1,0.199,0.232,0.399,0.377,0.568c0.016,0.02,0.033,0.036,0.049,0.053c0.206,0.232,0.337,0.311,0.361,0.321
				c0.006,0.003,0.016,0.006,0.03,0.011l3.72-2.126c0.187-0.127,0.43-0.202,0.636-0.258c-0.004-0.008,0.188-0.074,0.382-0.139
				c0.35-0.115,0.629-0.205,0.911-0.266c0.226-0.039,0.335-0.044,0.43-0.078c0.101-0.033,0.202-0.055,0.309-0.066l0.817-0.11
				c0.084-0.015,0.22-0.022,0.361-0.033c0.058-0.006,0.349-0.03,0.406-0.03c0.454-0.015,0.716-0.017,0.967,0.008
				c0.147-0.006,0.447,0.022,0.704,0.061C113.42,114.382,113.441,114.382,113.464,114.382z M149.251,133.187h0.027H149.251z
				 M145.365,122.621L145.365,122.621L145.365,122.621z M120.738,108.005c0.127,0.035,0.265,0.077,0.298,0.094
				C120.989,108.075,120.885,108.03,120.738,108.005z M91.797,104.859c0.003,0,0.003,0.003,0.003,0.003S91.8,104.859,91.797,104.859
				z"/>
		</g>
		<g>
			<path fill="#D4E6FC" d="M149.251,133.187c-0.028,2.697-0.569,4.911-1.533,6.585c-4.398,9.821-9.707,13.71-16.489,17.657
				l-22.366,12.969c6.955-4.144,17.968-11.922,22.08-21.146c0.968-1.674,1.505-3.886,1.505-6.585c0-1.021-0.086-2.129-0.255-3.204
				c-0.028-0.172-0.028-0.372-0.056-0.541c-0.171-1.05-0.426-2.129-0.74-3.207c-0.082-0.227-0.142-0.482-0.227-0.709
				c-0.312-1.023-0.68-2.019-1.105-3.038c-0.056-0.083-0.087-0.173-0.113-0.255c-0.483-1.051-0.993-2.102-1.589-3.121
				c-0.145-0.255-0.286-0.513-0.428-0.768c-0.539-0.907-1.136-1.788-1.731-2.642c-0.084-0.111-0.169-0.225-0.255-0.338
				c-0.683-0.965-1.447-1.847-2.215-2.697c-0.142-0.142-0.283-0.313-0.425-0.455c-0.768-0.796-1.59-1.561-2.414-2.242
				c-0.109-0.11-0.255-0.199-0.368-0.282c-0.878-0.71-1.787-1.364-2.725-1.902c-0.481-0.255-0.938-0.454-1.39-0.653
				c-0.227-0.111-0.483-0.2-0.738-0.283c-0.283-0.113-0.597-0.199-0.88-0.282c-0.255-0.059-0.481-0.116-0.709-0.145
				c-0.286-0.056-0.568-0.11-0.881-0.11c-0.197-0.031-0.425-0.059-0.651-0.059c-0.283-0.03-0.569,0-0.824,0
				c-0.227,0.027-0.428,0.027-0.623,0.059c-0.286,0.027-0.541,0.083-0.824,0.11c-0.171,0.055-0.368,0.086-0.567,0.113
				c-0.255,0.059-0.511,0.142-0.768,0.228c-0.169,0.059-0.339,0.114-0.483,0.169c-0.113,0.03-0.195,0.059-0.281,0.117l12.317-7.124
				l0.058-0.03l2.468-1.419c0.341-0.197,0.681-0.396,1.049-0.568c0.114-0.056,0.259-0.083,0.37-0.142
				c0.257-0.113,0.512-0.227,0.795-0.342c0.173-0.055,0.313-0.082,0.483-0.141c0.255-0.086,0.512-0.169,0.794-0.228
				c0.17-0.059,0.368-0.085,0.569-0.113c0.255-0.056,0.51-0.083,0.794-0.142c0.197,0,0.398-0.03,0.625-0.03
				c0.283,0,0.538-0.028,0.822-0.028c0.229,0.028,0.456,0.028,0.683,0.059c0.283,0.028,0.565,0.059,0.85,0.114
				c0.257,0.056,0.484,0.113,0.711,0.172c0.311,0.083,0.595,0.165,0.906,0.255c0.227,0.082,0.481,0.197,0.74,0.282
				c0.141,0.083,0.255,0.113,0.396,0.172c0.341,0.139,0.655,0.311,0.966,0.51c0.936,0.538,1.845,1.192,2.725,1.874
				c0.142,0.111,0.255,0.197,0.368,0.283c0.854,0.709,1.646,1.447,2.414,2.27c0.142,0.142,0.283,0.286,0.425,0.455l0.513,0.51
				c0.596,0.709,1.161,1.419,1.729,2.188c0.087,0.083,0.142,0.227,0.229,0.338c0.623,0.854,1.19,1.732,1.731,2.642
				c0.142,0.255,0.311,0.481,0.454,0.767c0.538,0.993,1.079,1.985,1.532,3.008c0,0.028,0.028,0.086,0.028,0.114
				c0.056,0.082,0.087,0.169,0.113,0.255c0.425,0.992,0.796,2.015,1.107,3.038c0.085,0.227,0.171,0.454,0.227,0.709
				c0.314,1.075,0.569,2.129,0.738,3.204c0.029,0.172,0.058,0.344,0.086,0.544c0.058,0.481,0.141,0.991,0.171,1.475
				C149.223,132.023,149.251,132.622,149.251,133.187z"/>
			<path fill="#0C5AE5" d="M108.862,171.817c-0.485,0-0.958-0.252-1.222-0.701c-0.396-0.671-0.175-1.535,0.496-1.937
				c6.289-3.748,17.448-11.396,21.509-20.504c0.939-1.644,1.383-3.62,1.383-6.009c0-0.959-0.082-1.993-0.237-2.985
				c-0.006-0.039-0.04-0.347-0.042-0.386c-0.166-1.089-0.401-2.112-0.716-3.188c-0.02-0.042-0.063-0.188-0.104-0.335
				c-0.011-0.03-0.108-0.327-0.117-0.357c-0.297-0.976-0.647-1.924-1.056-2.899c-0.017-0.036-0.142-0.327-0.156-0.36
				c-0.401-0.859-0.892-1.868-1.463-2.85l-0.368-0.659c-0.577-0.976-1.153-1.824-1.729-2.65l-0.166-0.222
				c-0.733-1.031-1.48-1.888-2.192-2.678l-0.217-0.232c-0.905-0.943-1.691-1.675-2.475-2.323l0.642-1.303l-0.953,1.067
				c-0.951-0.768-1.782-1.351-2.587-1.813c-0.375-0.2-0.778-0.375-1.176-0.552c-0.301-0.145-0.485-0.2-0.673-0.26
				c-0.293-0.115-0.504-0.173-0.699-0.233c-0.356-0.087-0.498-0.122-0.64-0.139c-0.295-0.055-0.486-0.103-0.699-0.103
				c-0.336-0.034-0.494-0.056-0.651-0.056c-0.275-0.02-0.396-0.014-0.517-0.008c-0.016,0-0.292,0.008-0.308,0.008l-0.81,0.095
				c-0.119,0.019-0.237,0.035-0.359,0.052c-0.203,0.056-0.425,0.092-0.651,0.122c-0.079,0.022-0.269,0.089-0.463,0.15l-0.461,0.163
				l-0.018-0.025l-0.076,0.045c-0.651,0.386-1.514,0.177-1.915-0.479c-0.405-0.651-0.217-1.508,0.424-1.933
				c0.055-0.038,0.113-0.071,0.17-0.1l14.748-8.518c0.393-0.23,0.762-0.44,1.161-0.624c0.051-0.024,0.282-0.116,0.335-0.132
				l0.896-0.38c0.053-0.02,0.344-0.108,0.396-0.125c0.471-0.15,0.787-0.25,1.131-0.318c0.063-0.033,0.341-0.081,0.621-0.125
				c0.086-0.02,0.252-0.047,0.423-0.075l0.787-0.092c0.14-0.011,0.283-0.021,0.437-0.021l0.822-0.028l0.423,0.033
				c0.146,0.006,0.293,0.017,0.439,0.037c0.288,0.026,0.616,0.063,0.948,0.13l2.527,0.754c0.098,0.033,0.192,0.078,0.281,0.128
				c0.632,0.255,1.016,0.46,1.396,0.703c0.82,0.472,1.738,1.101,2.829,1.949l0.306,0.235c1.037,0.856,1.868,1.641,2.645,2.473
				c0.138,0.136,0.308,0.31,0.479,0.515l0.422,0.41c0.7,0.827,1.283,1.559,1.868,2.346c0.033,0.044,0.192,0.274,0.217,0.321
				c0.668,0.914,1.26,1.832,1.824,2.783l0.171,0.283c0.113,0.177,0.225,0.36,0.33,0.565c0.557,1.03,1.103,2.037,1.563,3.073
				c0.024,0.056,0.044,0.114,0.063,0.169c0.058,0.127,0.1,0.244,0.131,0.341c0.397,0.918,0.789,1.988,1.113,3.058
				c0.08,0.205,0.186,0.496,0.255,0.82c0.341,1.164,0.589,2.24,0.754,3.29l0.147,1.018c0.052,0.377,0.103,0.76,0.125,1.128
				c0.055,0.565,0.086,1.209,0.086,1.821c0,0.005,0,0.011,0,0.017c-0.031,2.896-0.609,5.344-1.722,7.278
				c-4.626,10.339-10.442,14.353-17.007,18.172l-22.367,12.973C109.352,171.756,109.106,171.817,108.862,171.817z M114.479,114.528
				c0.132,0.021,0.307,0.061,0.49,0.102c0.031,0.009,0.348,0.089,0.375,0.097c0.283,0.084,0.581,0.175,0.859,0.286
				c0.249,0.08,0.565,0.191,0.845,0.329c0.471,0.205,0.932,0.41,1.415,0.669c0.979,0.563,1.931,1.228,2.956,2.054
				c0.18,0.122,0.349,0.25,0.49,0.394c0.752,0.612,1.603,1.402,2.419,2.247l0.239,0.259c0.02,0.017,0.203,0.216,0.219,0.232
				c0.771,0.854,1.587,1.791,2.319,2.828l0.243,0.32c0.634,0.903,1.25,1.815,1.807,2.753l0.443,0.796
				c0.609,1.042,1.14,2.134,1.641,3.227c0.051,0.071,0.1,0.222,0.133,0.299c0.447,1.069,0.833,2.106,1.155,3.171
				c0.026,0.061,0.075,0.222,0.122,0.38c0.013,0.03,0.1,0.318,0.112,0.35c0.344,1.183,0.604,2.319,0.775,3.373
				c0.008,0.041,0.04,0.352,0.045,0.394c0.19,1.292,0.284,2.478,0.284,3.581c0,2.894-0.57,5.35-1.696,7.295
				c-1.394,3.135-3.562,6.099-6.075,8.803l4.422-2.565c6.349-3.692,11.555-7.291,15.906-17.009c0.932-1.629,1.384-3.608,1.408-6.009
				c0-0.521-0.024-1.066-0.078-1.588c-0.021-0.353-0.066-0.669-0.106-0.979l-0.135-0.926c-0.148-0.959-0.373-1.924-0.703-3.061
				c-0.064-0.277-0.131-0.438-0.192-0.604c-0.326-1.06-0.679-2.034-1.082-2.979c-0.089-0.139-0.153-0.309-0.192-0.48
				c-0.419-0.923-0.905-1.823-1.395-2.722c-0.109-0.214-0.18-0.321-0.246-0.427l-0.232-0.386c-0.497-0.831-1.04-1.674-1.635-2.489
				c-0.032-0.041-0.156-0.235-0.181-0.279c-0.593-0.798-1.143-1.486-1.719-2.173l-0.427-0.416c-0.202-0.232-0.315-0.346-0.427-0.457
				c-0.73-0.779-1.476-1.483-2.316-2.182l-0.353-0.271c-0.968-0.748-1.783-1.312-2.542-1.747c-0.301-0.188-0.541-0.321-0.807-0.432
				c-0.16-0.062-0.291-0.111-0.424-0.177c-0.146-0.054-0.286-0.108-0.423-0.164l-1.665-0.463c-0.208-0.042-0.445-0.063-0.681-0.089
				l-0.716-0.062l-1.764,0.178c-0.229,0.039-0.335,0.044-0.427,0.072c-0.39,0.092-0.591,0.16-0.793,0.228
				c-0.024,0.011-0.297,0.088-0.323,0.097l-0.763,0.308c-0.042,0.02-0.34,0.139-0.386,0.152c-0.346,0.158-0.641,0.33-0.934,0.499
				L114.479,114.528z M149.251,133.187h0.027H149.251z M145.365,122.621L145.365,122.621L145.365,122.621z"/>
		</g>
	</g>
</g>
</svg>
