<?xml version="1.0" encoding="utf-8"?>
<!-- Generator: Adobe Illustrator 16.0.0, SVG Export Plug-In . SVG Version: 6.00 Build 0)  -->
<!DOCTYPE svg PUBLIC "-//W3C//DTD SVG 1.1//EN" "http://www.w3.org/Graphics/SVG/1.1/DTD/svg11.dtd">
<svg version="1.1" id="Layer_1" xmlns="http://www.w3.org/2000/svg" xmlns:xlink="http://www.w3.org/1999/xlink" x="0px" y="0px"
	 width="200px" height="200px" viewBox="0 0 200 200" enable-background="new 0 0 200 200" xml:space="preserve">
<g>
	<g>
		<polygon fill="#0C5AE5" points="139.293,146.487 177.746,125.223 139.623,102.294 99.159,123.33 		"/>
		<path fill="#0C5AE5" d="M139.293,148.024c-0.266,0-0.532-0.071-0.77-0.207l-40.133-23.158c-0.487-0.278-0.781-0.804-0.768-1.365
			c0.011-0.559,0.329-1.069,0.829-1.331l40.463-21.034c0.471-0.247,1.042-0.226,1.502,0.048l38.123,22.929
			c0.472,0.283,0.754,0.8,0.745,1.346c-0.009,0.553-0.312,1.051-0.793,1.318l-38.454,21.263
			C139.806,147.958,139.548,148.024,139.293,148.024z M102.356,123.398l36.951,21.324l35.364-19.556l-35.104-21.109L102.356,123.398
			z"/>
	</g>
	<g>
		<g>
			<polygon fill="#FFFFFF" points="150.331,25.697 125.017,40.41 99.535,25.699 124.85,10.987 			"/>
			<path fill="#0C5AE5" d="M125.017,41.947c-0.264,0-0.531-0.069-0.768-0.205L98.766,27.031c-0.474-0.275-0.769-0.781-0.769-1.331
				c0-0.548,0.291-1.056,0.766-1.33L124.08,9.658c0.472-0.277,1.063-0.277,1.54-0.003L151.1,24.368
				c0.475,0.274,0.768,0.78,0.768,1.33c0,0.548-0.291,1.056-0.765,1.331l-25.313,14.711
				C125.551,41.878,125.284,41.947,125.017,41.947z M102.604,25.694l22.409,12.939l22.253-12.93l-22.411-12.94L102.604,25.694z"/>
		</g>
		<g>
			<polygon fill="#D4E6FC" points="150.331,25.697 149.959,123.33 124.641,138.037 125.017,40.41 			"/>
			<path fill="#0C5AE5" d="M124.641,139.575c-0.264,0-0.53-0.067-0.769-0.205c-0.477-0.276-0.771-0.787-0.768-1.339l0.375-97.626
				c0.003-0.545,0.294-1.05,0.766-1.323l25.313-14.711c0.472-0.278,1.063-0.278,1.541-0.003c0.477,0.276,0.771,0.787,0.768,1.337
				l-0.371,97.63c-0.004,0.543-0.295,1.047-0.766,1.32l-25.317,14.711C125.176,139.507,124.908,139.575,124.641,139.575z
				 M126.551,41.297l-0.362,94.064l22.236-12.922l0.359-94.064L126.551,41.297z"/>
		</g>
		<g>
			<polygon fill="#FFFFFF" points="125.017,40.41 124.641,138.037 99.159,123.33 99.535,25.699 			"/>
			<path fill="#0C5AE5" d="M124.641,139.575c-0.264,0-0.53-0.067-0.769-0.205l-25.481-14.711c-0.477-0.276-0.772-0.785-0.768-1.336
				l0.375-97.629c0.003-0.548,0.297-1.054,0.772-1.328c0.473-0.273,1.059-0.271,1.534,0.002l25.482,14.711
				c0.478,0.276,0.771,0.787,0.77,1.337l-0.376,97.626c-0.003,0.55-0.298,1.057-0.772,1.327
				C125.17,139.507,124.906,139.575,124.641,139.575z M100.699,122.44l22.414,12.942l0.363-94.086l-22.414-12.939L100.699,122.44z"
				/>
		</g>
	</g>
	<g>
		<polygon fill="#0C5AE5" points="62.383,189.013 100.837,167.747 62.714,144.821 22.254,165.853 		"/>
		<path fill="#0C5AE5" d="M62.383,190.55c-0.264,0-0.531-0.071-0.769-0.207l-40.13-23.161c-0.487-0.278-0.781-0.804-0.769-1.362
			c0.012-0.563,0.331-1.073,0.829-1.333l40.46-21.033c0.475-0.246,1.042-0.228,1.501,0.049l38.124,22.929
			c0.472,0.282,0.753,0.797,0.745,1.346c-0.009,0.55-0.312,1.052-0.793,1.315l-38.454,21.266
			C62.897,190.485,62.639,190.55,62.383,190.55z M25.451,165.921l36.947,21.326l35.365-19.555l-35.104-21.11L25.451,165.921z"/>
	</g>
	<g>
		<polygon fill="#0C5AE5" points="100.837,167.747 139.293,146.487 101.168,123.557 60.705,144.588 		"/>
		<path fill="#0C5AE5" d="M100.837,169.285c-0.264,0-0.532-0.066-0.769-0.205l-40.133-23.156c-0.486-0.283-0.78-0.806-0.769-1.37
			c0.012-0.56,0.331-1.069,0.829-1.327l40.464-21.032c0.474-0.252,1.042-0.231,1.501,0.045l38.124,22.927
			c0.472,0.285,0.754,0.799,0.745,1.348c-0.01,0.551-0.313,1.053-0.793,1.318l-38.455,21.261
			C101.352,169.222,101.093,169.285,100.837,169.285z M63.903,144.662l36.951,21.319l35.363-19.551l-35.103-21.113L63.903,144.662z"
			/>
	</g>
	<g>
		<g>
			<polygon fill="#FFFFFF" points="111.876,83.127 86.562,97.841 61.08,83.127 86.398,68.416 			"/>
			<path fill="#0C5AE5" d="M86.562,99.378c-0.264,0-0.53-0.072-0.768-0.207L60.312,84.46c-0.475-0.276-0.769-0.781-0.769-1.33
				c0-0.55,0.291-1.054,0.766-1.331l25.317-14.714c0.471-0.276,1.063-0.276,1.54,0l25.479,14.708
				c0.475,0.276,0.769,0.781,0.769,1.333c0,0.546-0.291,1.054-0.767,1.327L87.334,99.168C87.097,99.306,86.83,99.378,86.562,99.378z
				 M64.149,83.125l22.41,12.938l22.251-12.93L86.4,70.191L64.149,83.125z"/>
		</g>
		<g>
			<polygon fill="#D4E6FC" points="111.876,83.127 111.503,144.588 86.187,159.303 86.562,97.841 			"/>
			<path fill="#0C5AE5" d="M86.187,160.841c-0.268,0-0.532-0.073-0.772-0.211c-0.478-0.276-0.769-0.787-0.766-1.34l0.376-61.461
				c0.002-0.544,0.293-1.044,0.766-1.318L111.105,81.8c0.473-0.282,1.063-0.279,1.542-0.003c0.478,0.277,0.77,0.79,0.767,1.338
				l-0.373,61.463c-0.002,0.543-0.293,1.049-0.766,1.318L86.959,160.63C86.722,160.768,86.455,160.841,86.187,160.841z
				 M88.093,98.727l-0.354,57.892l22.233-12.918l0.352-57.892L88.093,98.727z"/>
		</g>
		<g>
			<polygon fill="#FFFFFF" points="86.562,97.841 86.187,159.303 60.705,144.588 61.08,83.127 			"/>
			<path fill="#0C5AE5" d="M86.187,160.841c-0.264,0-0.532-0.073-0.769-0.207l-25.482-14.711c-0.477-0.276-0.772-0.791-0.769-1.344
				l0.375-61.459c0.003-0.549,0.297-1.053,0.772-1.327c0.474-0.27,1.06-0.27,1.534,0.003l25.482,14.71
				c0.478,0.278,0.772,0.787,0.769,1.341l-0.375,61.461c-0.003,0.549-0.297,1.054-0.772,1.327
				C86.716,160.772,86.451,160.841,86.187,160.841z M62.249,143.707l22.417,12.941l0.354-57.925L62.603,85.782L62.249,143.707z"/>
		</g>
	</g>
	<g>
		<g>
			<polygon fill="#FFFFFF" points="73.422,134.121 48.108,148.835 22.626,134.121 47.942,119.408 			"/>
			<path fill="#0C5AE5" d="M48.108,150.373c-0.264,0-0.532-0.072-0.768-0.207l-25.482-14.711c-0.475-0.276-0.769-0.781-0.769-1.334
				c0-0.546,0.292-1.054,0.766-1.326l25.317-14.715c0.471-0.276,1.066-0.276,1.54-0.003l25.479,14.711
				c0.474,0.276,0.768,0.781,0.768,1.333c0,0.547-0.291,1.055-0.765,1.327L48.88,150.163
				C48.643,150.3,48.375,150.373,48.108,150.373z M25.692,134.115l22.413,12.942l22.251-12.93l-22.41-12.942L25.692,134.115z"/>
		</g>
		<g>
			<polygon fill="#D4E6FC" points="73.422,134.121 73.049,165.853 47.732,180.564 48.108,148.835 			"/>
			<path fill="#0C5AE5" d="M47.732,182.1c-0.267,0-0.534-0.069-0.774-0.21c-0.478-0.275-0.769-0.793-0.763-1.345l0.375-31.729
				c0.005-0.544,0.297-1.039,0.766-1.312l25.313-14.711c0.475-0.282,1.066-0.282,1.546,0c0.478,0.276,0.769,0.793,0.763,1.345
				l-0.372,31.73c-0.006,0.544-0.298,1.04-0.766,1.313l-25.317,14.711C48.267,182.035,48,182.1,47.732,182.1z M49.636,149.724
				l-0.333,28.148l22.218-12.913l0.331-28.147L49.636,149.724z"/>
		</g>
		<g>
			<polygon fill="#FFFFFF" points="48.108,148.835 47.732,180.564 22.254,165.853 22.626,134.121 			"/>
			<path fill="#0C5AE5" d="M47.732,182.1c-0.264,0-0.531-0.065-0.769-0.203l-25.479-14.715c-0.48-0.276-0.774-0.793-0.769-1.348
				l0.373-31.731c0.006-0.547,0.303-1.048,0.778-1.317c0.471-0.268,1.06-0.268,1.528,0.002l25.482,14.714
				c0.48,0.276,0.774,0.793,0.769,1.352l-0.375,31.728c-0.006,0.547-0.303,1.051-0.777,1.322
				C48.258,182.035,47.994,182.1,47.732,182.1z M23.8,164.972l22.425,12.949l0.333-28.206l-22.425-12.949L23.8,164.972z"/>
		</g>
	</g>
</g>
</svg>
